<?xml version="1.0" encoding="UTF-8" standalone="no"?>
<!DOCTYPE svg PUBLIC "-//W3C//DTD SVG 1.1//EN"
 "http://www.w3.org/Graphics/SVG/1.1/DTD/svg11.dtd">
<!-- Generated by graphviz version 7.1.0 (20230121.1956)
 -->
<!-- Title: JavaWeaver_join_point_hierarchy_join_point_hierarchy Pages: 1 -->
<svg width="397pt" height="1285pt"
 viewBox="0.00 0.00 397.00 1285.00" xmlns="http://www.w3.org/2000/svg" xmlns:xlink="http://www.w3.org/1999/xlink">
<g id="graph0" class="graph" transform="scale(1 1) rotate(0) translate(4 1281)">
<title>JavaWeaver_join_point_hierarchy_join_point_hierarchy</title>
<polygon fill="white" stroke="none" points="-4,4 -4,-1281 393,-1281 393,4 -4,4"/>
<!-- NamedType -->
<g id="node1" class="node">
<title>NamedType</title>
<polygon fill="#b2dfee" stroke="#b2dfee" points="155,-38 90,-38 90,-19 155,-19 155,-38"/>
<text text-anchor="middle" x="122.5" y="-26" font-family="Times New Roman,serif" font-size="10.00">NamedType</text>
</g>
<!-- joinpoint -->
<g id="node2" class="node">
<title>joinpoint</title>
<polygon fill="#b2dfee" stroke="#b2dfee" points="54,-352 0,-352 0,-333 54,-333 54,-352"/>
<text text-anchor="middle" x="27" y="-340" font-family="Times New Roman,serif" font-size="10.00">joinpoint</text>
</g>
<!-- NamedType&#45;&gt;joinpoint -->
<g id="edge1" class="edge">
<title>NamedType&#45;&gt;joinpoint</title>
<path fill="none" stroke="black" d="M117.92,-38.49C111.89,-55.46 99.42,-91.05 90,-121.5 67.36,-194.67 43.77,-282.54 33.42,-321.8"/>
<polygon fill="black" stroke="black" points="30.08,-320.73 30.92,-331.29 36.85,-322.51 30.08,-320.73"/>
</g>
<!-- androidManifest -->
<g id="node3" class="node">
<title>androidManifest</title>
<polygon fill="#b2dfee" stroke="#b2dfee" points="275.5,-1277 192.5,-1277 192.5,-1258 275.5,-1258 275.5,-1277"/>
<text text-anchor="middle" x="234" y="-1265" font-family="Times New Roman,serif" font-size="10.00">androidManifest</text>
</g>
<!-- xmlNode -->
<g id="node4" class="node">
<title>xmlNode</title>
<polygon fill="#b2dfee" stroke="#b2dfee" points="149.5,-1240 95.5,-1240 95.5,-1221 149.5,-1221 149.5,-1240"/>
<text text-anchor="middle" x="122.5" y="-1228" font-family="Times New Roman,serif" font-size="10.00">xmlNode</text>
</g>
<!-- androidManifest&#45;&gt;xmlNode -->
<g id="edge2" class="edge">
<title>androidManifest&#45;&gt;xmlNode</title>
<path fill="none" stroke="black" d="M203.66,-1257.58C190.46,-1253.13 174.73,-1247.81 160.72,-1243.08"/>
<polygon fill="black" stroke="black" points="161.96,-1239.8 151.36,-1239.91 159.72,-1246.43 161.96,-1239.8"/>
</g>
<!-- xmlNode&#45;&gt;joinpoint -->
<g id="edge52" class="edge">
<title>xmlNode&#45;&gt;joinpoint</title>
<path fill="none" stroke="black" d="M119.77,-1220.81C114.62,-1191.66 99.17,-1102.19 90,-1027.5 57.97,-766.5 35.17,-447.64 29.42,-363.61"/>
<polygon fill="black" stroke="black" points="32.91,-363.43 28.75,-353.69 25.93,-363.91 32.91,-363.43"/>
</g>
<!-- annotation -->
<g id="node5" class="node">
<title>annotation</title>
<polygon fill="#b2dfee" stroke="#b2dfee" points="264,-1203 204,-1203 204,-1184 264,-1184 264,-1203"/>
<text text-anchor="middle" x="234" y="-1191" font-family="Times New Roman,serif" font-size="10.00">annotation</text>
</g>
<!-- expression -->
<g id="node6" class="node">
<title>expression</title>
<polygon fill="#b2dfee" stroke="#b2dfee" points="152,-1018 93,-1018 93,-999 152,-999 152,-1018"/>
<text text-anchor="middle" x="122.5" y="-1006" font-family="Times New Roman,serif" font-size="10.00">expression</text>
</g>
<!-- annotation&#45;&gt;expression -->
<g id="edge3" class="edge">
<title>annotation&#45;&gt;expression</title>
<path fill="none" stroke="black" d="M203.56,-1184.43C198.95,-1182.07 194.55,-1179.13 191,-1175.5 150.07,-1133.72 132.92,-1063.85 126.65,-1029.23"/>
<polygon fill="black" stroke="black" points="130.15,-1028.97 125.05,-1019.69 123.25,-1030.13 130.15,-1028.97"/>
</g>
<!-- expression&#45;&gt;joinpoint -->
<g id="edge24" class="edge">
<title>expression&#45;&gt;joinpoint</title>
<path fill="none" stroke="black" d="M120.11,-998.81C115.68,-967.95 101.52,-869.24 90,-787.5 66.98,-624.19 39.69,-427.09 30.89,-363.42"/>
<polygon fill="black" stroke="black" points="34.38,-363.14 29.55,-353.71 27.45,-364.09 34.38,-363.14"/>
</g>
<!-- anonymousExec -->
<g id="node7" class="node">
<title>anonymousExec</title>
<polygon fill="#b2dfee" stroke="#b2dfee" points="275,-833 193,-833 193,-814 275,-814 275,-833"/>
<text text-anchor="middle" x="234" y="-821" font-family="Times New Roman,serif" font-size="10.00">anonymousExec</text>
</g>
<!-- executable -->
<g id="node8" class="node">
<title>executable</title>
<polygon fill="#b2dfee" stroke="#b2dfee" points="152,-778 93,-778 93,-759 152,-759 152,-778"/>
<text text-anchor="middle" x="122.5" y="-766" font-family="Times New Roman,serif" font-size="10.00">executable</text>
</g>
<!-- anonymousExec&#45;&gt;executable -->
<g id="edge4" class="edge">
<title>anonymousExec&#45;&gt;executable</title>
<path fill="none" stroke="black" d="M208.83,-813.61C202.95,-811.08 196.71,-808.28 191,-805.5 177.43,-798.89 162.7,-790.92 150.47,-784.06"/>
<polygon fill="black" stroke="black" points="152.2,-781.02 141.78,-779.14 148.75,-787.11 152.2,-781.02"/>
</g>
<!-- executable&#45;&gt;joinpoint -->
<g id="edge23" class="edge">
<title>executable&#45;&gt;joinpoint</title>
<path fill="none" stroke="black" d="M119.37,-758.8C107.5,-704.72 49.41,-440.05 32.58,-363.36"/>
<polygon fill="black" stroke="black" points="36.05,-362.86 30.49,-353.85 29.22,-364.37 36.05,-362.86"/>
</g>
<!-- app -->
<g id="node9" class="node">
<title>app</title>
<polygon fill="#b2dfee" stroke="#b2dfee" points="149.5,-463 95.5,-463 95.5,-444 149.5,-444 149.5,-463"/>
<text text-anchor="middle" x="122.5" y="-451" font-family="Times New Roman,serif" font-size="10.00">app</text>
</g>
<!-- app&#45;&gt;joinpoint -->
<g id="edge5" class="edge">
<title>app&#45;&gt;joinpoint</title>
<path fill="none" stroke="black" d="M100.88,-443.57C97.04,-441.22 93.22,-438.51 90,-435.5 67.13,-414.15 48.47,-382.8 37.79,-362.51"/>
<polygon fill="black" stroke="black" points="40.92,-360.94 33.27,-353.61 34.68,-364.11 40.92,-360.94"/>
</g>
<!-- arrayAccess -->
<g id="node10" class="node">
<title>arrayAccess</title>
<polygon fill="#b2dfee" stroke="#b2dfee" points="267.5,-1166 200.5,-1166 200.5,-1147 267.5,-1147 267.5,-1166"/>
<text text-anchor="middle" x="234" y="-1154" font-family="Times New Roman,serif" font-size="10.00">arrayAccess</text>
</g>
<!-- arrayAccess&#45;&gt;expression -->
<g id="edge6" class="edge">
<title>arrayAccess&#45;&gt;expression</title>
<path fill="none" stroke="black" d="M202.97,-1146.7C198.65,-1144.45 194.49,-1141.74 191,-1138.5 158.05,-1107.9 138.41,-1057.55 129.42,-1029.33"/>
<polygon fill="black" stroke="black" points="132.8,-1028.4 126.55,-1019.84 126.09,-1030.43 132.8,-1028.4"/>
</g>
<!-- assert -->
<g id="node11" class="node">
<title>assert</title>
<polygon fill="#b2dfee" stroke="#b2dfee" points="261,-722 207,-722 207,-703 261,-703 261,-722"/>
<text text-anchor="middle" x="234" y="-710" font-family="Times New Roman,serif" font-size="10.00">assert</text>
</g>
<!-- statement -->
<g id="node12" class="node">
<title>statement</title>
<polygon fill="#b2dfee" stroke="#b2dfee" points="150.5,-426 94.5,-426 94.5,-407 150.5,-407 150.5,-426"/>
<text text-anchor="middle" x="122.5" y="-414" font-family="Times New Roman,serif" font-size="10.00">statement</text>
</g>
<!-- assert&#45;&gt;statement -->
<g id="edge7" class="edge">
<title>assert&#45;&gt;statement</title>
<path fill="none" stroke="black" d="M206.64,-706.02C200.67,-703.38 194.95,-699.67 191,-694.5 120.48,-602.12 218.99,-532.52 155,-435.5 154.7,-435.05 154.39,-434.6 154.06,-434.17"/>
<polygon fill="black" stroke="black" points="156.45,-431.61 146.75,-427.36 151.68,-436.74 156.45,-431.61"/>
</g>
<!-- statement&#45;&gt;joinpoint -->
<g id="edge41" class="edge">
<title>statement&#45;&gt;joinpoint</title>
<path fill="none" stroke="black" d="M108.89,-406.52C93.61,-394.43 67.63,-373.86 49.24,-359.31"/>
<polygon fill="black" stroke="black" points="51.61,-356.72 41.6,-353.26 47.27,-362.21 51.61,-356.72"/>
</g>
<!-- assignment -->
<g id="node13" class="node">
<title>assignment</title>
<polygon fill="#b2dfee" stroke="#b2dfee" points="265,-685 203,-685 203,-666 265,-666 265,-685"/>
<text text-anchor="middle" x="234" y="-673" font-family="Times New Roman,serif" font-size="10.00">assignment</text>
</g>
<!-- assignment&#45;&gt;statement -->
<g id="edge8" class="edge">
<title>assignment&#45;&gt;statement</title>
<path fill="none" stroke="black" d="M202.84,-667.06C198.31,-664.63 194.13,-661.5 191,-657.5 129.45,-578.74 210.98,-518.31 155,-435.5 154.62,-434.94 154.22,-434.39 153.79,-433.86"/>
<polygon fill="black" stroke="black" points="156.45,-431.54 146.7,-427.39 151.73,-436.71 156.45,-431.54"/>
</g>
<!-- binaryExpression -->
<g id="node14" class="node">
<title>binaryExpression</title>
<polygon fill="#b2dfee" stroke="#b2dfee" points="277,-1129 191,-1129 191,-1110 277,-1110 277,-1129"/>
<text text-anchor="middle" x="234" y="-1117" font-family="Times New Roman,serif" font-size="10.00">binaryExpression</text>
</g>
<!-- binaryExpression&#45;&gt;expression -->
<g id="edge9" class="edge">
<title>binaryExpression&#45;&gt;expression</title>
<path fill="none" stroke="black" d="M204.26,-1109.66C199.58,-1107.38 194.97,-1104.67 191,-1101.5 165.5,-1081.13 145.02,-1048.82 133.57,-1028.14"/>
<polygon fill="black" stroke="black" points="136.8,-1026.76 129,-1019.59 130.62,-1030.06 136.8,-1026.76"/>
</g>
<!-- body -->
<g id="node15" class="node">
<title>body</title>
<polygon fill="#b2dfee" stroke="#b2dfee" points="261,-648 207,-648 207,-629 261,-629 261,-648"/>
<text text-anchor="middle" x="234" y="-636" font-family="Times New Roman,serif" font-size="10.00">body</text>
</g>
<!-- body&#45;&gt;statement -->
<g id="edge10" class="edge">
<title>body&#45;&gt;statement</title>
<path fill="none" stroke="black" d="M206.83,-631.87C200.86,-629.23 195.09,-625.56 191,-620.5 138.39,-555.32 202.99,-504.15 155,-435.5 154.61,-434.94 154.2,-434.4 153.77,-433.87"/>
<polygon fill="black" stroke="black" points="156.39,-431.52 146.61,-427.44 151.71,-436.73 156.39,-431.52"/>
</g>
<!-- break -->
<g id="node16" class="node">
<title>break</title>
<polygon fill="#b2dfee" stroke="#b2dfee" points="261,-611 207,-611 207,-592 261,-592 261,-611"/>
<text text-anchor="middle" x="234" y="-599" font-family="Times New Roman,serif" font-size="10.00">break</text>
</g>
<!-- break&#45;&gt;statement -->
<g id="edge11" class="edge">
<title>break&#45;&gt;statement</title>
<path fill="none" stroke="black" d="M206.55,-594.54C200.74,-591.92 195.1,-588.34 191,-583.5 147.27,-531.82 195.06,-490.07 155,-435.5 154.59,-434.94 154.15,-434.39 153.7,-433.85"/>
<polygon fill="black" stroke="black" points="156.01,-431.23 146.17,-427.3 151.42,-436.51 156.01,-431.23"/>
</g>
<!-- call -->
<g id="node17" class="node">
<title>call</title>
<polygon fill="#b2dfee" stroke="#b2dfee" points="261,-1092 207,-1092 207,-1073 261,-1073 261,-1092"/>
<text text-anchor="middle" x="234" y="-1080" font-family="Times New Roman,serif" font-size="10.00">call</text>
</g>
<!-- call&#45;&gt;expression -->
<g id="edge12" class="edge">
<title>call&#45;&gt;expression</title>
<path fill="none" stroke="black" d="M206.65,-1072.59C201.33,-1070.21 195.87,-1067.48 191,-1064.5 172.84,-1053.4 154.4,-1037.73 141.38,-1025.79"/>
<polygon fill="black" stroke="black" points="144.11,-1023.54 134.42,-1019.25 139.32,-1028.65 144.11,-1023.54"/>
</g>
<!-- callStatement -->
<g id="node18" class="node">
<title>callStatement</title>
<polygon fill="#b2dfee" stroke="#b2dfee" points="269,-574 199,-574 199,-555 269,-555 269,-574"/>
<text text-anchor="middle" x="234" y="-562" font-family="Times New Roman,serif" font-size="10.00">callStatement</text>
</g>
<!-- callStatement&#45;&gt;statement -->
<g id="edge13" class="edge">
<title>callStatement&#45;&gt;statement</title>
<path fill="none" stroke="black" d="M201.63,-554.72C197.69,-552.49 193.99,-549.78 191,-546.5 156.04,-508.19 187.24,-476.12 155,-435.5 154.48,-434.84 153.93,-434.2 153.35,-433.58"/>
<polygon fill="black" stroke="black" points="155.91,-431.15 145.98,-427.44 151.42,-436.53 155.91,-431.15"/>
</g>
<!-- case -->
<g id="node19" class="node">
<title>case</title>
<polygon fill="#b2dfee" stroke="#b2dfee" points="261,-537 207,-537 207,-518 261,-518 261,-537"/>
<text text-anchor="middle" x="234" y="-525" font-family="Times New Roman,serif" font-size="10.00">case</text>
</g>
<!-- case&#45;&gt;statement -->
<g id="edge14" class="edge">
<title>case&#45;&gt;statement</title>
<path fill="none" stroke="black" d="M206.82,-519.69C201.13,-517.11 195.48,-513.77 191,-509.5 164.53,-484.26 179.67,-462.5 155,-435.5 154.3,-434.74 153.57,-433.99 152.8,-433.27"/>
<polygon fill="black" stroke="black" points="155.06,-430.59 144.99,-427.29 150.8,-436.15 155.06,-430.59"/>
</g>
<!-- catch -->
<g id="node20" class="node">
<title>catch</title>
<polygon fill="#b2dfee" stroke="#b2dfee" points="149.5,-371 95.5,-371 95.5,-352 149.5,-352 149.5,-371"/>
<text text-anchor="middle" x="122.5" y="-359" font-family="Times New Roman,serif" font-size="10.00">catch</text>
</g>
<!-- catch&#45;&gt;joinpoint -->
<g id="edge15" class="edge">
<title>catch&#45;&gt;joinpoint</title>
<path fill="none" stroke="black" d="M95.46,-356.21C86.11,-354.31 75.38,-352.13 65.27,-350.07"/>
<polygon fill="black" stroke="black" points="66.21,-346.69 55.71,-348.13 64.82,-353.55 66.21,-346.69"/>
</g>
<!-- class -->
<g id="node21" class="node">
<title>class</title>
<polygon fill="#b2dfee" stroke="#b2dfee" points="261,-167 207,-167 207,-148 261,-148 261,-167"/>
<text text-anchor="middle" x="234" y="-155" font-family="Times New Roman,serif" font-size="10.00">class</text>
</g>
<!-- type -->
<g id="node22" class="node">
<title>type</title>
<polygon fill="#b2dfee" stroke="#b2dfee" points="149.5,-334 95.5,-334 95.5,-315 149.5,-315 149.5,-334"/>
<text text-anchor="middle" x="122.5" y="-322" font-family="Times New Roman,serif" font-size="10.00">type</text>
</g>
<!-- class&#45;&gt;type -->
<g id="edge16" class="edge">
<title>class&#45;&gt;type</title>
<path fill="none" stroke="black" d="M206.65,-165.2C200.83,-167.96 195.16,-171.64 191,-176.5 152.01,-222.04 191.8,-259.17 155,-306.5 154.85,-306.7 154.69,-306.9 154.53,-307.09"/>
<polygon fill="black" stroke="black" points="152.23,-304.45 147.04,-313.68 156.86,-309.7 152.23,-304.45"/>
</g>
<!-- type&#45;&gt;joinpoint -->
<g id="edge47" class="edge">
<title>type&#45;&gt;joinpoint</title>
<path fill="none" stroke="black" d="M95.46,-329.51C86.11,-331.31 75.38,-333.38 65.27,-335.32"/>
<polygon fill="black" stroke="black" points="64.87,-331.84 55.72,-337.16 66.2,-338.71 64.87,-331.84"/>
</g>
<!-- comment -->
<g id="node23" class="node">
<title>comment</title>
<polygon fill="#b2dfee" stroke="#b2dfee" points="261,-500 207,-500 207,-481 261,-481 261,-500"/>
<text text-anchor="middle" x="234" y="-488" font-family="Times New Roman,serif" font-size="10.00">comment</text>
</g>
<!-- comment&#45;&gt;statement -->
<g id="edge17" class="edge">
<title>comment&#45;&gt;statement</title>
<path fill="none" stroke="black" d="M206.84,-481.18C201.39,-478.73 195.84,-475.82 191,-472.5 172.09,-459.51 172.97,-449.76 155,-435.5 153.72,-434.48 152.38,-433.48 151,-432.5"/>
<polygon fill="black" stroke="black" points="153.24,-429.78 142.96,-427.22 149.4,-435.63 153.24,-429.78"/>
</g>
<!-- constructor -->
<g id="node24" class="node">
<title>constructor</title>
<polygon fill="#b2dfee" stroke="#b2dfee" points="265.5,-796 202.5,-796 202.5,-777 265.5,-777 265.5,-796"/>
<text text-anchor="middle" x="234" y="-784" font-family="Times New Roman,serif" font-size="10.00">constructor</text>
</g>
<!-- constructor&#45;&gt;executable -->
<g id="edge18" class="edge">
<title>constructor&#45;&gt;executable</title>
<path fill="none" stroke="black" d="M202.21,-781.44C190.2,-779.46 176.27,-777.17 163.5,-775.08"/>
<polygon fill="black" stroke="black" points="164.11,-771.63 153.68,-773.46 162.98,-778.54 164.11,-771.63"/>
</g>
<!-- continue -->
<g id="node25" class="node">
<title>continue</title>
<polygon fill="#b2dfee" stroke="#b2dfee" points="261,-463 207,-463 207,-444 261,-444 261,-463"/>
<text text-anchor="middle" x="234" y="-451" font-family="Times New Roman,serif" font-size="10.00">continue</text>
</g>
<!-- continue&#45;&gt;statement -->
<g id="edge19" class="edge">
<title>continue&#45;&gt;statement</title>
<path fill="none" stroke="black" d="M206.77,-444.64C193.13,-440.03 176.2,-434.31 161.18,-429.23"/>
<polygon fill="black" stroke="black" points="162.69,-426.05 152.09,-426.16 160.44,-432.68 162.69,-426.05"/>
</g>
<!-- declaration -->
<g id="node26" class="node">
<title>declaration</title>
<polygon fill="#b2dfee" stroke="#b2dfee" points="153,-297 92,-297 92,-278 153,-278 153,-297"/>
<text text-anchor="middle" x="122.5" y="-285" font-family="Times New Roman,serif" font-size="10.00">declaration</text>
</g>
<!-- declaration&#45;&gt;joinpoint -->
<g id="edge20" class="edge">
<title>declaration&#45;&gt;joinpoint</title>
<path fill="none" stroke="black" d="M104.78,-297.33C90.91,-305.49 70.91,-317.26 54.81,-326.73"/>
<polygon fill="black" stroke="black" points="53.04,-323.71 46.19,-331.8 56.58,-329.75 53.04,-323.71"/>
</g>
<!-- enum -->
<g id="node27" class="node">
<title>enum</title>
<polygon fill="#b2dfee" stroke="#b2dfee" points="378,-167 324,-167 324,-148 378,-148 378,-167"/>
<text text-anchor="middle" x="351" y="-155" font-family="Times New Roman,serif" font-size="10.00">enum</text>
</g>
<!-- enum&#45;&gt;class -->
<g id="edge21" class="edge">
<title>enum&#45;&gt;class</title>
<path fill="none" stroke="black" d="M323.62,-157.5C308.42,-157.5 289.08,-157.5 272.35,-157.5"/>
<polygon fill="black" stroke="black" points="272.77,-154 262.77,-157.5 272.77,-161 272.77,-154"/>
</g>
<!-- enumValue -->
<g id="node28" class="node">
<title>enumValue</title>
<polygon fill="#b2dfee" stroke="#b2dfee" points="381.5,-93 320.5,-93 320.5,-74 381.5,-74 381.5,-93"/>
<text text-anchor="middle" x="351" y="-81" font-family="Times New Roman,serif" font-size="10.00">enumValue</text>
</g>
<!-- field -->
<g id="node29" class="node">
<title>field</title>
<polygon fill="#b2dfee" stroke="#b2dfee" points="261,-93 207,-93 207,-74 261,-74 261,-93"/>
<text text-anchor="middle" x="234" y="-81" font-family="Times New Roman,serif" font-size="10.00">field</text>
</g>
<!-- enumValue&#45;&gt;field -->
<g id="edge22" class="edge">
<title>enumValue&#45;&gt;field</title>
<path fill="none" stroke="black" d="M320.09,-83.5C305.55,-83.5 287.94,-83.5 272.52,-83.5"/>
<polygon fill="black" stroke="black" points="272.76,-80 262.76,-83.5 272.76,-87 272.76,-80"/>
</g>
<!-- field&#45;&gt;declaration -->
<g id="edge25" class="edge">
<title>field&#45;&gt;declaration</title>
<path fill="none" stroke="black" d="M206.88,-90.82C200.91,-93.61 195.12,-97.39 191,-102.5 143.31,-161.58 199.85,-208.24 155,-269.5 154.93,-269.6 154.86,-269.7 154.78,-269.79"/>
<polygon fill="black" stroke="black" points="152.44,-267.19 147.49,-276.56 157.2,-272.32 152.44,-267.19"/>
</g>
<!-- fieldAccess -->
<g id="node30" class="node">
<title>fieldAccess</title>
<polygon fill="#b2dfee" stroke="#b2dfee" points="383,-1055 319,-1055 319,-1036 383,-1036 383,-1055"/>
<text text-anchor="middle" x="351" y="-1043" font-family="Times New Roman,serif" font-size="10.00">fieldAccess</text>
</g>
<!-- var -->
<g id="node31" class="node">
<title>var</title>
<polygon fill="#b2dfee" stroke="#b2dfee" points="261,-1055 207,-1055 207,-1036 261,-1036 261,-1055"/>
<text text-anchor="middle" x="234" y="-1043" font-family="Times New Roman,serif" font-size="10.00">var</text>
</g>
<!-- fieldAccess&#45;&gt;var -->
<g id="edge26" class="edge">
<title>fieldAccess&#45;&gt;var</title>
<path fill="none" stroke="black" d="M318.58,-1045.5C304.41,-1045.5 287.56,-1045.5 272.72,-1045.5"/>
<polygon fill="black" stroke="black" points="272.84,-1042 262.84,-1045.5 272.84,-1049 272.84,-1042"/>
</g>
<!-- var&#45;&gt;expression -->
<g id="edge50" class="edge">
<title>var&#45;&gt;expression</title>
<path fill="none" stroke="black" d="M206.77,-1036.64C193.66,-1032.21 177.53,-1026.76 162.96,-1021.83"/>
<polygon fill="black" stroke="black" points="164.23,-1018.57 153.64,-1018.68 161.99,-1025.2 164.23,-1018.57"/>
</g>
<!-- file -->
<g id="node32" class="node">
<title>file</title>
<polygon fill="#b2dfee" stroke="#b2dfee" points="149.5,-260 95.5,-260 95.5,-241 149.5,-241 149.5,-260"/>
<text text-anchor="middle" x="122.5" y="-248" font-family="Times New Roman,serif" font-size="10.00">file</text>
</g>
<!-- file&#45;&gt;joinpoint -->
<g id="edge27" class="edge">
<title>file&#45;&gt;joinpoint</title>
<path fill="none" stroke="black" d="M102.82,-260.4C98.43,-263.09 93.89,-266.19 90,-269.5 71.09,-285.58 53.15,-307.73 41.48,-323.41"/>
<polygon fill="black" stroke="black" points="38.7,-321.27 35.66,-331.42 44.37,-325.39 38.7,-321.27"/>
</g>
<!-- if -->
<g id="node33" class="node">
<title>if</title>
<polygon fill="#b2dfee" stroke="#b2dfee" points="261,-426 207,-426 207,-407 261,-407 261,-426"/>
<text text-anchor="middle" x="234" y="-414" font-family="Times New Roman,serif" font-size="10.00">if</text>
</g>
<!-- if&#45;&gt;statement -->
<g id="edge28" class="edge">
<title>if&#45;&gt;statement</title>
<path fill="none" stroke="black" d="M206.77,-416.5C193.39,-416.5 176.86,-416.5 162.06,-416.5"/>
<polygon fill="black" stroke="black" points="162.17,-413 152.17,-416.5 162.17,-420 162.17,-413"/>
</g>
<!-- interface -->
<g id="node34" class="node">
<title>interface</title>
<polygon fill="#b2dfee" stroke="#b2dfee" points="261,-130 207,-130 207,-111 261,-111 261,-130"/>
<text text-anchor="middle" x="234" y="-118" font-family="Times New Roman,serif" font-size="10.00">interface</text>
</g>
<!-- interface&#45;&gt;type -->
<g id="edge29" class="edge">
<title>interface&#45;&gt;type</title>
<path fill="none" stroke="black" d="M206.88,-127.82C200.91,-130.61 195.12,-134.39 191,-139.5 143.31,-198.58 199.85,-245.24 155,-306.5 154.93,-306.6 154.86,-306.7 154.78,-306.79"/>
<polygon fill="black" stroke="black" points="152.44,-304.19 147.49,-313.56 157.2,-309.32 152.44,-304.19"/>
</g>
<!-- libClass -->
<g id="node35" class="node">
<title>libClass</title>
<polygon fill="#b2dfee" stroke="#b2dfee" points="261,-19 207,-19 207,0 261,0 261,-19"/>
<text text-anchor="middle" x="234" y="-7" font-family="Times New Roman,serif" font-size="10.00">libClass</text>
</g>
<!-- libClass&#45;&gt;NamedType -->
<g id="edge30" class="edge">
<title>libClass&#45;&gt;NamedType</title>
<path fill="none" stroke="black" d="M206.77,-14.05C194.71,-16.14 180.09,-18.68 166.48,-21.04"/>
<polygon fill="black" stroke="black" points="166.12,-17.55 156.86,-22.71 167.31,-24.45 166.12,-17.55"/>
</g>
<!-- libMethod -->
<g id="node36" class="node">
<title>libMethod</title>
<polygon fill="#b2dfee" stroke="#b2dfee" points="152,-223 93,-223 93,-204 152,-204 152,-223"/>
<text text-anchor="middle" x="122.5" y="-211" font-family="Times New Roman,serif" font-size="10.00">libMethod</text>
</g>
<!-- libMethod&#45;&gt;joinpoint -->
<g id="edge31" class="edge">
<title>libMethod&#45;&gt;joinpoint</title>
<path fill="none" stroke="black" d="M101.7,-223.31C97.53,-225.93 93.38,-229.02 90,-232.5 64.26,-259.01 45.54,-298.28 35.76,-322.03"/>
<polygon fill="black" stroke="black" points="32.55,-320.61 32.13,-331.2 39.06,-323.19 32.55,-320.61"/>
</g>
<!-- literal -->
<g id="node37" class="node">
<title>literal</title>
<polygon fill="#b2dfee" stroke="#b2dfee" points="261,-1018 207,-1018 207,-999 261,-999 261,-1018"/>
<text text-anchor="middle" x="234" y="-1006" font-family="Times New Roman,serif" font-size="10.00">literal</text>
</g>
<!-- literal&#45;&gt;expression -->
<g id="edge32" class="edge">
<title>literal&#45;&gt;expression</title>
<path fill="none" stroke="black" d="M206.77,-1008.5C193.79,-1008.5 177.84,-1008.5 163.39,-1008.5"/>
<polygon fill="black" stroke="black" points="163.72,-1005 153.72,-1008.5 163.72,-1012 163.72,-1005"/>
</g>
<!-- localVariable -->
<g id="node38" class="node">
<title>localVariable</title>
<polygon fill="#b2dfee" stroke="#b2dfee" points="268,-389 200,-389 200,-370 268,-370 268,-389"/>
<text text-anchor="middle" x="234" y="-377" font-family="Times New Roman,serif" font-size="10.00">localVariable</text>
</g>
<!-- localVariable&#45;&gt;statement -->
<g id="edge33" class="edge">
<title>localVariable&#45;&gt;statement</title>
<path fill="none" stroke="black" d="M203.66,-389.42C190.66,-393.81 175.21,-399.03 161.36,-403.71"/>
<polygon fill="black" stroke="black" points="160.46,-400.32 152.1,-406.84 162.7,-406.95 160.46,-400.32"/>
</g>
<!-- loop -->
<g id="node39" class="node">
<title>loop</title>
<polygon fill="#b2dfee" stroke="#b2dfee" points="261,-352 207,-352 207,-333 261,-333 261,-352"/>
<text text-anchor="middle" x="234" y="-340" font-family="Times New Roman,serif" font-size="10.00">loop</text>
</g>
<!-- loop&#45;&gt;statement -->
<g id="edge34" class="edge">
<title>loop&#45;&gt;statement</title>
<path fill="none" stroke="black" d="M208.46,-352.32C202.59,-355.01 196.44,-358.13 191,-361.5 173.42,-372.38 155.35,-387.34 142.34,-398.91"/>
<polygon fill="black" stroke="black" points="140.01,-396.3 134.96,-405.61 144.71,-401.48 140.01,-396.3"/>
</g>
<!-- method -->
<g id="node40" class="node">
<title>method</title>
<polygon fill="#b2dfee" stroke="#b2dfee" points="261,-759 207,-759 207,-740 261,-740 261,-759"/>
<text text-anchor="middle" x="234" y="-747" font-family="Times New Roman,serif" font-size="10.00">method</text>
</g>
<!-- method&#45;&gt;executable -->
<g id="edge35" class="edge">
<title>method&#45;&gt;executable</title>
<path fill="none" stroke="black" d="M206.77,-754.05C193.79,-756.3 177.84,-759.07 163.39,-761.58"/>
<polygon fill="black" stroke="black" points="162.95,-758.1 153.7,-763.26 164.15,-765 162.95,-758.1"/>
</g>
<!-- new -->
<g id="node41" class="node">
<title>new</title>
<polygon fill="#b2dfee" stroke="#b2dfee" points="261,-981 207,-981 207,-962 261,-962 261,-981"/>
<text text-anchor="middle" x="234" y="-969" font-family="Times New Roman,serif" font-size="10.00">new</text>
</g>
<!-- new&#45;&gt;expression -->
<g id="edge36" class="edge">
<title>new&#45;&gt;expression</title>
<path fill="none" stroke="black" d="M206.77,-980.36C193.66,-984.79 177.53,-990.24 162.96,-995.17"/>
<polygon fill="black" stroke="black" points="161.99,-991.8 153.64,-998.32 164.23,-998.43 161.99,-991.8"/>
</g>
<!-- opAssignment -->
<g id="node42" class="node">
<title>opAssignment</title>
<polygon fill="#b2dfee" stroke="#b2dfee" points="389,-685 313,-685 313,-666 389,-666 389,-685"/>
<text text-anchor="middle" x="351" y="-673" font-family="Times New Roman,serif" font-size="10.00">opAssignment</text>
</g>
<!-- opAssignment&#45;&gt;assignment -->
<g id="edge37" class="edge">
<title>opAssignment&#45;&gt;assignment</title>
<path fill="none" stroke="black" d="M312.66,-675.5C301.15,-675.5 288.41,-675.5 276.63,-675.5"/>
<polygon fill="black" stroke="black" points="276.76,-672 266.76,-675.5 276.76,-679 276.76,-672"/>
</g>
<!-- pragma -->
<g id="node43" class="node">
<title>pragma</title>
<polygon fill="#b2dfee" stroke="#b2dfee" points="378,-500 324,-500 324,-481 378,-481 378,-500"/>
<text text-anchor="middle" x="351" y="-488" font-family="Times New Roman,serif" font-size="10.00">pragma</text>
</g>
<!-- pragma&#45;&gt;comment -->
<g id="edge38" class="edge">
<title>pragma&#45;&gt;comment</title>
<path fill="none" stroke="black" d="M323.62,-490.5C308.42,-490.5 289.08,-490.5 272.35,-490.5"/>
<polygon fill="black" stroke="black" points="272.77,-487 262.77,-490.5 272.77,-494 272.77,-487"/>
</g>
<!-- reference -->
<g id="node44" class="node">
<title>reference</title>
<polygon fill="#b2dfee" stroke="#b2dfee" points="149.5,-149 95.5,-149 95.5,-130 149.5,-130 149.5,-149"/>
<text text-anchor="middle" x="122.5" y="-137" font-family="Times New Roman,serif" font-size="10.00">reference</text>
</g>
<!-- reference&#45;&gt;joinpoint -->
<g id="edge39" class="edge">
<title>reference&#45;&gt;joinpoint</title>
<path fill="none" stroke="black" d="M115.58,-149.23C108.98,-160.26 98.15,-178.87 90,-195.5 68.35,-239.68 46.89,-293.32 35.79,-322.02"/>
<polygon fill="black" stroke="black" points="32.55,-320.7 32.23,-331.29 39.08,-323.2 32.55,-320.7"/>
</g>
<!-- return -->
<g id="node45" class="node">
<title>return</title>
<polygon fill="#b2dfee" stroke="#b2dfee" points="261,-315 207,-315 207,-296 261,-296 261,-315"/>
<text text-anchor="middle" x="234" y="-303" font-family="Times New Roman,serif" font-size="10.00">return</text>
</g>
<!-- return&#45;&gt;statement -->
<g id="edge40" class="edge">
<title>return&#45;&gt;statement</title>
<path fill="none" stroke="black" d="M206.74,-314.58C201.18,-317.24 195.6,-320.53 191,-324.5 168.6,-343.83 172.79,-356.86 155,-380.5 150.52,-386.45 145.31,-392.65 140.44,-398.2"/>
<polygon fill="black" stroke="black" points="137.84,-395.85 133.75,-405.62 143.04,-400.54 137.84,-395.85"/>
</g>
<!-- switch -->
<g id="node46" class="node">
<title>switch</title>
<polygon fill="#b2dfee" stroke="#b2dfee" points="261,-278 207,-278 207,-259 261,-259 261,-278"/>
<text text-anchor="middle" x="234" y="-266" font-family="Times New Roman,serif" font-size="10.00">switch</text>
</g>
<!-- switch&#45;&gt;statement -->
<g id="edge42" class="edge">
<title>switch&#45;&gt;statement</title>
<path fill="none" stroke="black" d="M206.54,-276.71C200.86,-279.43 195.29,-282.97 191,-287.5 160.54,-319.7 177.94,-342.58 155,-380.5 151.25,-386.69 146.41,-392.84 141.65,-398.25"/>
<polygon fill="black" stroke="black" points="139.2,-395.74 134.95,-405.45 144.33,-400.51 139.2,-395.74"/>
</g>
<!-- ternary -->
<g id="node47" class="node">
<title>ternary</title>
<polygon fill="#b2dfee" stroke="#b2dfee" points="261,-944 207,-944 207,-925 261,-925 261,-944"/>
<text text-anchor="middle" x="234" y="-932" font-family="Times New Roman,serif" font-size="10.00">ternary</text>
</g>
<!-- ternary&#45;&gt;expression -->
<g id="edge43" class="edge">
<title>ternary&#45;&gt;expression</title>
<path fill="none" stroke="black" d="M208.46,-944.32C202.59,-947.01 196.44,-950.13 191,-953.5 173.42,-964.38 155.35,-979.34 142.34,-990.91"/>
<polygon fill="black" stroke="black" points="140.01,-988.3 134.96,-997.61 144.71,-993.48 140.01,-988.3"/>
</g>
<!-- this -->
<g id="node48" class="node">
<title>this</title>
<polygon fill="#b2dfee" stroke="#b2dfee" points="261,-907 207,-907 207,-888 261,-888 261,-907"/>
<text text-anchor="middle" x="234" y="-895" font-family="Times New Roman,serif" font-size="10.00">this</text>
</g>
<!-- this&#45;&gt;expression -->
<g id="edge44" class="edge">
<title>this&#45;&gt;expression</title>
<path fill="none" stroke="black" d="M206.91,-906.79C201.35,-909.44 195.72,-912.67 191,-916.5 166.07,-936.71 145.66,-968.19 134.04,-988.57"/>
<polygon fill="black" stroke="black" points="130.99,-986.84 129.24,-997.29 137.13,-990.22 130.99,-986.84"/>
</g>
<!-- throw -->
<g id="node49" class="node">
<title>throw</title>
<polygon fill="#b2dfee" stroke="#b2dfee" points="261,-241 207,-241 207,-222 261,-222 261,-241"/>
<text text-anchor="middle" x="234" y="-229" font-family="Times New Roman,serif" font-size="10.00">throw</text>
</g>
<!-- throw&#45;&gt;statement -->
<g id="edge45" class="edge">
<title>throw&#45;&gt;statement</title>
<path fill="none" stroke="black" d="M206.65,-239.2C200.83,-241.96 195.16,-245.64 191,-250.5 152.01,-296.04 183.45,-327.73 155,-380.5 151.57,-386.87 146.82,-393.07 142.05,-398.49"/>
<polygon fill="black" stroke="black" points="139.62,-395.97 135.28,-405.64 144.7,-400.78 139.62,-395.97"/>
</g>
<!-- try -->
<g id="node50" class="node">
<title>try</title>
<polygon fill="#b2dfee" stroke="#b2dfee" points="261,-204 207,-204 207,-185 261,-185 261,-204"/>
<text text-anchor="middle" x="234" y="-192" font-family="Times New Roman,serif" font-size="10.00">try</text>
</g>
<!-- try&#45;&gt;statement -->
<g id="edge46" class="edge">
<title>try&#45;&gt;statement</title>
<path fill="none" stroke="black" d="M206.88,-201.82C200.91,-204.61 195.12,-208.39 191,-213.5 143.31,-272.58 189.09,-312.65 155,-380.5 151.8,-386.87 147.2,-393.02 142.51,-398.37"/>
<polygon fill="black" stroke="black" points="140.14,-395.78 135.78,-405.44 145.21,-400.61 140.14,-395.78"/>
</g>
<!-- typeReference -->
<g id="node51" class="node">
<title>typeReference</title>
<polygon fill="#b2dfee" stroke="#b2dfee" points="271,-56 197,-56 197,-37 271,-37 271,-56"/>
<text text-anchor="middle" x="234" y="-44" font-family="Times New Roman,serif" font-size="10.00">typeReference</text>
</g>
<!-- typeReference&#45;&gt;reference -->
<g id="edge48" class="edge">
<title>typeReference&#45;&gt;reference</title>
<path fill="none" stroke="black" d="M204.97,-56.49C200.11,-58.78 195.26,-61.45 191,-64.5 169.06,-80.21 149.09,-104.17 136.65,-120.76"/>
<polygon fill="black" stroke="black" points="133.88,-118.63 130.83,-128.77 139.54,-122.74 133.88,-118.63"/>
</g>
<!-- unaryExpression -->
<g id="node52" class="node">
<title>unaryExpression</title>
<polygon fill="#b2dfee" stroke="#b2dfee" points="275.5,-870 192.5,-870 192.5,-851 275.5,-851 275.5,-870"/>
<text text-anchor="middle" x="234" y="-858" font-family="Times New Roman,serif" font-size="10.00">unaryExpression</text>
</g>
<!-- unaryExpression&#45;&gt;expression -->
<g id="edge49" class="edge">
<title>unaryExpression&#45;&gt;expression</title>
<path fill="none" stroke="black" d="M204.28,-870.37C199.49,-872.85 194.84,-875.87 191,-879.5 158.5,-910.19 138.69,-960.03 129.55,-987.92"/>
<polygon fill="black" stroke="black" points="126.27,-986.7 126.63,-997.29 132.95,-988.78 126.27,-986.7"/>
</g>
<!-- xmlElement -->
<g id="node53" class="node">
<title>xmlElement</title>
<polygon fill="#b2dfee" stroke="#b2dfee" points="264.5,-1240 203.5,-1240 203.5,-1221 264.5,-1221 264.5,-1240"/>
<text text-anchor="middle" x="234" y="-1228" font-family="Times New Roman,serif" font-size="10.00">xmlElement</text>
</g>
<!-- xmlElement&#45;&gt;xmlNode -->
<g id="edge51" class="edge">
<title>xmlElement&#45;&gt;xmlNode</title>
<path fill="none" stroke="black" d="M203.08,-1230.5C190.02,-1230.5 174.57,-1230.5 160.77,-1230.5"/>
<polygon fill="black" stroke="black" points="161.17,-1227 151.17,-1230.5 161.17,-1234 161.17,-1227"/>
</g>
</g>
</svg>
