<?xml version="1.0" encoding="UTF-8" standalone="no"?>
<!DOCTYPE svg PUBLIC "-//W3C//DTD SVG 1.1//EN"
 "http://www.w3.org/Graphics/SVG/1.1/DTD/svg11.dtd">
<!-- Generated by graphviz version 2.43.0 (0)
 -->
<!-- Title: JavaWeaver_join_point_hierarchy_join_point_hierarchy Pages: 1 -->
<svg width="455pt" height="1285pt"
 viewBox="0.00 0.00 455.00 1285.00" xmlns="http://www.w3.org/2000/svg" xmlns:xlink="http://www.w3.org/1999/xlink">
<g id="graph0" class="graph" transform="scale(1 1) rotate(0) translate(4 1281)">
<title>JavaWeaver_join_point_hierarchy_join_point_hierarchy</title>
<polygon fill="white" stroke="transparent" points="-4,4 -4,-1281 451,-1281 451,4 -4,4"/>
<!-- NamedType -->
<g id="node1" class="node">
<title>NamedType</title>
<polygon fill="#b2dfee" stroke="#b2dfee" points="178,-43 98,-43 98,-24 178,-24 178,-43"/>
<text text-anchor="middle" x="138" y="-31" font-family="Times,serif" font-size="10.00">NamedType</text>
</g>
<!-- joinpoint -->
<g id="node2" class="node">
<title>joinpoint</title>
<polygon fill="#b2dfee" stroke="#b2dfee" points="62,-366 0,-366 0,-347 62,-347 62,-366"/>
<text text-anchor="middle" x="31" y="-354" font-family="Times,serif" font-size="10.00">joinpoint</text>
</g>
<!-- NamedType&#45;&gt;joinpoint -->
<g id="edge1" class="edge">
<title>NamedType&#45;&gt;joinpoint</title>
<path fill="none" stroke="black" d="M133.43,-43.17C126.4,-62.26 110.39,-106.19 98,-143.5 74.46,-214.39 48.91,-299.42 37.75,-337.01"/>
<polygon fill="black" stroke="black" points="34.37,-336.11 34.89,-346.69 41.08,-338.09 34.37,-336.11"/>
</g>
<!-- androidManifest -->
<g id="node3" class="node">
<title>androidManifest</title>
<polygon fill="#b2dfee" stroke="#b2dfee" points="318,-1277 217,-1277 217,-1258 318,-1258 318,-1277"/>
<text text-anchor="middle" x="267.5" y="-1265" font-family="Times,serif" font-size="10.00">androidManifest</text>
</g>
<!-- xmlNode -->
<g id="node4" class="node">
<title>xmlNode</title>
<polygon fill="#b2dfee" stroke="#b2dfee" points="169.5,-1240 106.5,-1240 106.5,-1221 169.5,-1221 169.5,-1240"/>
<text text-anchor="middle" x="138" y="-1228" font-family="Times,serif" font-size="10.00">xmlNode</text>
</g>
<!-- androidManifest&#45;&gt;xmlNode -->
<g id="edge2" class="edge">
<title>androidManifest&#45;&gt;xmlNode</title>
<path fill="none" stroke="black" d="M233.67,-1257.97C217.14,-1253.17 196.95,-1247.32 179.47,-1242.24"/>
<polygon fill="black" stroke="black" points="180.11,-1238.79 169.53,-1239.36 178.16,-1245.51 180.11,-1238.79"/>
</g>
<!-- xmlNode&#45;&gt;joinpoint -->
<g id="edge50" class="edge">
<title>xmlNode&#45;&gt;joinpoint</title>
<path fill="none" stroke="black" d="M134.82,-1220.83C128.31,-1191.75 108.86,-1102.44 98,-1027.5 60.88,-771.34 38.64,-457.07 33.27,-376.2"/>
<polygon fill="black" stroke="black" points="36.75,-375.75 32.6,-366 29.77,-376.21 36.75,-375.75"/>
</g>
<!-- annotation -->
<g id="node5" class="node">
<title>annotation</title>
<polygon fill="#b2dfee" stroke="#b2dfee" points="303,-1203 232,-1203 232,-1184 303,-1184 303,-1203"/>
<text text-anchor="middle" x="267.5" y="-1191" font-family="Times,serif" font-size="10.00">annotation</text>
</g>
<!-- expression -->
<g id="node6" class="node">
<title>expression</title>
<polygon fill="#b2dfee" stroke="#b2dfee" points="174,-1018 102,-1018 102,-999 174,-999 174,-1018"/>
<text text-anchor="middle" x="138" y="-1006" font-family="Times,serif" font-size="10.00">expression</text>
</g>
<!-- annotation&#45;&gt;expression -->
<g id="edge3" class="edge">
<title>annotation&#45;&gt;expression</title>
<path fill="none" stroke="black" d="M231.79,-1186.11C225.34,-1183.55 219.05,-1180.11 214,-1175.5 169.5,-1134.91 149.79,-1062.91 142.55,-1028.24"/>
<polygon fill="black" stroke="black" points="145.97,-1027.52 140.62,-1018.38 139.1,-1028.87 145.97,-1027.52"/>
</g>
<!-- expression&#45;&gt;joinpoint -->
<g id="edge22" class="edge">
<title>expression&#45;&gt;joinpoint</title>
<path fill="none" stroke="black" d="M135.21,-998.82C129.53,-968 111.49,-869.38 98,-787.5 71.93,-629.27 43.81,-437.77 34.89,-376.42"/>
<polygon fill="black" stroke="black" points="38.31,-375.62 33.41,-366.22 31.38,-376.62 38.31,-375.62"/>
</g>
<!-- anonymousExec -->
<g id="node7" class="node">
<title>anonymousExec</title>
<polygon fill="#b2dfee" stroke="#b2dfee" points="318,-833 217,-833 217,-814 318,-814 318,-833"/>
<text text-anchor="middle" x="267.5" y="-821" font-family="Times,serif" font-size="10.00">anonymousExec</text>
</g>
<!-- executable -->
<g id="node8" class="node">
<title>executable</title>
<polygon fill="#b2dfee" stroke="#b2dfee" points="174,-778 102,-778 102,-759 174,-759 174,-778"/>
<text text-anchor="middle" x="138" y="-766" font-family="Times,serif" font-size="10.00">executable</text>
</g>
<!-- anonymousExec&#45;&gt;executable -->
<g id="edge4" class="edge">
<title>anonymousExec&#45;&gt;executable</title>
<path fill="none" stroke="black" d="M236.54,-813.97C229.11,-811.4 221.21,-808.5 214,-805.5 197.77,-798.75 180.12,-790.11 166.02,-782.87"/>
<polygon fill="black" stroke="black" points="167.37,-779.63 156.89,-778.13 164.15,-785.85 167.37,-779.63"/>
</g>
<!-- executable&#45;&gt;joinpoint -->
<g id="edge21" class="edge">
<title>executable&#45;&gt;joinpoint</title>
<path fill="none" stroke="black" d="M134.51,-758.72C120.92,-705.4 55.68,-449.42 37,-376.14"/>
<polygon fill="black" stroke="black" points="40.28,-374.83 34.42,-366.01 33.5,-376.56 40.28,-374.83"/>
</g>
<!-- app -->
<g id="node9" class="node">
<title>app</title>
<polygon fill="#b2dfee" stroke="#b2dfee" points="165,-463 111,-463 111,-444 165,-444 165,-463"/>
<text text-anchor="middle" x="138" y="-451" font-family="Times,serif" font-size="10.00">app</text>
</g>
<!-- app&#45;&gt;joinpoint -->
<g id="edge5" class="edge">
<title>app&#45;&gt;joinpoint</title>
<path fill="none" stroke="black" d="M111.72,-443.83C106.94,-441.46 102.14,-438.67 98,-435.5 75.61,-418.35 55.75,-392.33 43.8,-374.89"/>
<polygon fill="black" stroke="black" points="46.47,-372.58 38.02,-366.19 40.64,-376.46 46.47,-372.58"/>
</g>
<!-- arrayAccess -->
<g id="node10" class="node">
<title>arrayAccess</title>
<polygon fill="#b2dfee" stroke="#b2dfee" points="306.5,-1166 228.5,-1166 228.5,-1147 306.5,-1147 306.5,-1166"/>
<text text-anchor="middle" x="267.5" y="-1154" font-family="Times,serif" font-size="10.00">arrayAccess</text>
</g>
<!-- arrayAccess&#45;&gt;expression -->
<g id="edge6" class="edge">
<title>arrayAccess&#45;&gt;expression</title>
<path fill="none" stroke="black" d="M228.33,-1147.11C223.19,-1144.82 218.24,-1141.99 214,-1138.5 177.62,-1108.54 155.2,-1056.01 145.18,-1027.77"/>
<polygon fill="black" stroke="black" points="148.48,-1026.57 141.95,-1018.23 141.85,-1028.82 148.48,-1026.57"/>
</g>
<!-- assert -->
<g id="node11" class="node">
<title>assert</title>
<polygon fill="#b2dfee" stroke="#b2dfee" points="294.5,-722 240.5,-722 240.5,-703 294.5,-703 294.5,-722"/>
<text text-anchor="middle" x="267.5" y="-710" font-family="Times,serif" font-size="10.00">assert</text>
</g>
<!-- statement -->
<g id="node12" class="node">
<title>statement</title>
<polygon fill="#b2dfee" stroke="#b2dfee" points="172,-426 104,-426 104,-407 172,-407 172,-426"/>
<text text-anchor="middle" x="138" y="-414" font-family="Times,serif" font-size="10.00">statement</text>
</g>
<!-- assert&#45;&gt;statement -->
<g id="edge7" class="edge">
<title>assert&#45;&gt;statement</title>
<path fill="none" stroke="black" d="M240.24,-709.32C230.61,-706.82 220.5,-702.38 214,-694.5 140.09,-604.82 246.26,-529.56 178,-435.5 177.23,-434.44 176.38,-433.43 175.47,-432.48"/>
<polygon fill="black" stroke="black" points="177.53,-429.65 167.52,-426.19 173.19,-435.14 177.53,-429.65"/>
</g>
<!-- statement&#45;&gt;joinpoint -->
<g id="edge39" class="edge">
<title>statement&#45;&gt;joinpoint</title>
<path fill="none" stroke="black" d="M120.13,-406.86C103.29,-397.24 77.19,-382.32 57.76,-371.22"/>
<polygon fill="black" stroke="black" points="59.25,-368.04 48.83,-366.12 55.77,-374.12 59.25,-368.04"/>
</g>
<!-- assignment -->
<g id="node13" class="node">
<title>assignment</title>
<polygon fill="#b2dfee" stroke="#b2dfee" points="305.5,-685 229.5,-685 229.5,-666 305.5,-666 305.5,-685"/>
<text text-anchor="middle" x="267.5" y="-673" font-family="Times,serif" font-size="10.00">assignment</text>
</g>
<!-- assignment&#45;&gt;statement -->
<g id="edge8" class="edge">
<title>assignment&#45;&gt;statement</title>
<path fill="none" stroke="black" d="M229.44,-668.51C223.58,-665.91 218.1,-662.36 214,-657.5 149.56,-581.09 237.62,-515.73 178,-435.5 177.1,-434.29 176.11,-433.15 175.03,-432.09"/>
<polygon fill="black" stroke="black" points="177.13,-429.28 167.05,-426 172.88,-434.85 177.13,-429.28"/>
</g>
<!-- binaryExpression -->
<g id="node14" class="node">
<title>binaryExpression</title>
<polygon fill="#b2dfee" stroke="#b2dfee" points="321,-1129 214,-1129 214,-1110 321,-1110 321,-1129"/>
<text text-anchor="middle" x="267.5" y="-1117" font-family="Times,serif" font-size="10.00">binaryExpression</text>
</g>
<!-- binaryExpression&#45;&gt;expression -->
<g id="edge9" class="edge">
<title>binaryExpression&#45;&gt;expression</title>
<path fill="none" stroke="black" d="M229.9,-1109.95C224.31,-1107.66 218.81,-1104.87 214,-1101.5 185.55,-1081.57 162.23,-1047.91 149.5,-1027.02"/>
<polygon fill="black" stroke="black" points="152.36,-1024.99 144.27,-1018.16 146.34,-1028.55 152.36,-1024.99"/>
</g>
<!-- body -->
<g id="node15" class="node">
<title>body</title>
<polygon fill="#b2dfee" stroke="#b2dfee" points="294.5,-648 240.5,-648 240.5,-629 294.5,-629 294.5,-648"/>
<text text-anchor="middle" x="267.5" y="-636" font-family="Times,serif" font-size="10.00">body</text>
</g>
<!-- body&#45;&gt;statement -->
<g id="edge10" class="edge">
<title>body&#45;&gt;statement</title>
<path fill="none" stroke="black" d="M240.46,-635.14C230.86,-632.61 220.71,-628.2 214,-620.5 159,-557.32 229.01,-501.94 178,-435.5 177.08,-434.31 176.07,-433.18 174.98,-432.12"/>
<polygon fill="black" stroke="black" points="177.05,-429.3 166.95,-426.08 172.84,-434.89 177.05,-429.3"/>
</g>
<!-- break -->
<g id="node16" class="node">
<title>break</title>
<polygon fill="#b2dfee" stroke="#b2dfee" points="294.5,-611 240.5,-611 240.5,-592 294.5,-592 294.5,-611"/>
<text text-anchor="middle" x="267.5" y="-599" font-family="Times,serif" font-size="10.00">break</text>
</g>
<!-- break&#45;&gt;statement -->
<g id="edge11" class="edge">
<title>break&#45;&gt;statement</title>
<path fill="none" stroke="black" d="M240.37,-597.9C230.88,-595.35 220.82,-590.97 214,-583.5 168.38,-533.49 220.46,-488.22 178,-435.5 177.06,-434.33 176.02,-433.22 174.91,-432.18"/>
<polygon fill="black" stroke="black" points="176.93,-429.32 166.8,-426.2 172.77,-434.95 176.93,-429.32"/>
</g>
<!-- call -->
<g id="node17" class="node">
<title>call</title>
<polygon fill="#b2dfee" stroke="#b2dfee" points="294.5,-1092 240.5,-1092 240.5,-1073 294.5,-1073 294.5,-1092"/>
<text text-anchor="middle" x="267.5" y="-1080" font-family="Times,serif" font-size="10.00">call</text>
</g>
<!-- call&#45;&gt;expression -->
<g id="edge12" class="edge">
<title>call&#45;&gt;expression</title>
<path fill="none" stroke="black" d="M240.47,-1075.34C231.8,-1072.51 222.26,-1068.86 214,-1064.5 193.34,-1053.59 172.23,-1037.27 157.69,-1025.06"/>
<polygon fill="black" stroke="black" points="159.81,-1022.27 149.94,-1018.42 155.26,-1027.58 159.81,-1022.27"/>
</g>
<!-- callStatement -->
<g id="node18" class="node">
<title>callStatement</title>
<polygon fill="#b2dfee" stroke="#b2dfee" points="310.5,-574 224.5,-574 224.5,-555 310.5,-555 310.5,-574"/>
<text text-anchor="middle" x="267.5" y="-562" font-family="Times,serif" font-size="10.00">callStatement</text>
</g>
<!-- callStatement&#45;&gt;statement -->
<g id="edge13" class="edge">
<title>callStatement&#45;&gt;statement</title>
<path fill="none" stroke="black" d="M225.79,-554.96C221.44,-552.71 217.38,-549.93 214,-546.5 177.63,-509.52 212.02,-474.64 178,-435.5 176.98,-434.33 175.87,-433.22 174.7,-432.18"/>
<polygon fill="black" stroke="black" points="176.36,-429.07 166.17,-426.16 172.33,-434.79 176.36,-429.07"/>
</g>
<!-- case -->
<g id="node19" class="node">
<title>case</title>
<polygon fill="#b2dfee" stroke="#b2dfee" points="294.5,-537 240.5,-537 240.5,-518 294.5,-518 294.5,-537"/>
<text text-anchor="middle" x="267.5" y="-525" font-family="Times,serif" font-size="10.00">case</text>
</g>
<!-- case&#45;&gt;statement -->
<g id="edge14" class="edge">
<title>case&#45;&gt;statement</title>
<path fill="none" stroke="black" d="M240.35,-522.86C231.19,-520.19 221.36,-516.01 214,-509.5 186.6,-485.27 203.85,-461.37 178,-435.5 176.6,-434.1 175.08,-432.79 173.48,-431.56"/>
<polygon fill="black" stroke="black" points="175.26,-428.55 164.94,-426.11 171.49,-434.44 175.26,-428.55"/>
</g>
<!-- class -->
<g id="node20" class="node">
<title>class</title>
<polygon fill="#b2dfee" stroke="#b2dfee" points="294.5,-167 240.5,-167 240.5,-148 294.5,-148 294.5,-167"/>
<text text-anchor="middle" x="267.5" y="-155" font-family="Times,serif" font-size="10.00">class</text>
</g>
<!-- type -->
<g id="node21" class="node">
<title>type</title>
<polygon fill="#b2dfee" stroke="#b2dfee" points="165,-366 111,-366 111,-347 165,-347 165,-366"/>
<text text-anchor="middle" x="138" y="-354" font-family="Times,serif" font-size="10.00">type</text>
</g>
<!-- class&#45;&gt;type -->
<g id="edge15" class="edge">
<title>class&#45;&gt;type</title>
<path fill="none" stroke="black" d="M240.26,-161.55C230.76,-164.29 220.72,-168.86 214,-176.5 165.3,-231.9 224.29,-281.08 178,-338.5 176.74,-340.07 175.31,-341.5 173.76,-342.82"/>
<polygon fill="black" stroke="black" points="171.66,-340.01 165.26,-348.45 175.53,-345.85 171.66,-340.01"/>
</g>
<!-- type&#45;&gt;joinpoint -->
<g id="edge45" class="edge">
<title>type&#45;&gt;joinpoint</title>
<path fill="none" stroke="black" d="M110.77,-356.5C99.18,-356.5 85.27,-356.5 72.39,-356.5"/>
<polygon fill="black" stroke="black" points="72.35,-353 62.35,-356.5 72.35,-360 72.35,-353"/>
</g>
<!-- comment -->
<g id="node22" class="node">
<title>comment</title>
<polygon fill="#b2dfee" stroke="#b2dfee" points="299.5,-500 235.5,-500 235.5,-481 299.5,-481 299.5,-500"/>
<text text-anchor="middle" x="267.5" y="-488" font-family="Times,serif" font-size="10.00">comment</text>
</g>
<!-- comment&#45;&gt;statement -->
<g id="edge16" class="edge">
<title>comment&#45;&gt;statement</title>
<path fill="none" stroke="black" d="M235.41,-482.52C228.08,-479.93 220.51,-476.63 214,-472.5 194.62,-460.22 196.59,-448.95 178,-435.5 175.79,-433.9 173.42,-432.37 170.99,-430.93"/>
<polygon fill="black" stroke="black" points="172.49,-427.76 162.03,-426.09 169.16,-433.92 172.49,-427.76"/>
</g>
<!-- constructor -->
<g id="node23" class="node">
<title>constructor</title>
<polygon fill="#b2dfee" stroke="#b2dfee" points="304.5,-796 230.5,-796 230.5,-777 304.5,-777 304.5,-796"/>
<text text-anchor="middle" x="267.5" y="-784" font-family="Times,serif" font-size="10.00">constructor</text>
</g>
<!-- constructor&#45;&gt;executable -->
<g id="edge17" class="edge">
<title>constructor&#45;&gt;executable</title>
<path fill="none" stroke="black" d="M230.3,-781.39C216.07,-779.38 199.56,-777.05 184.53,-774.93"/>
<polygon fill="black" stroke="black" points="184.8,-771.43 174.4,-773.5 183.82,-778.36 184.8,-771.43"/>
</g>
<!-- continue -->
<g id="node24" class="node">
<title>continue</title>
<polygon fill="#b2dfee" stroke="#b2dfee" points="298,-463 237,-463 237,-444 298,-444 298,-463"/>
<text text-anchor="middle" x="267.5" y="-451" font-family="Times,serif" font-size="10.00">continue</text>
</g>
<!-- continue&#45;&gt;statement -->
<g id="edge18" class="edge">
<title>continue&#45;&gt;statement</title>
<path fill="none" stroke="black" d="M236.93,-444.92C220.54,-440.16 199.88,-434.17 181.76,-428.91"/>
<polygon fill="black" stroke="black" points="182.58,-425.5 172,-426.08 180.63,-432.22 182.58,-425.5"/>
</g>
<!-- declaration -->
<g id="node25" class="node">
<title>declaration</title>
<polygon fill="#b2dfee" stroke="#b2dfee" points="175,-329 101,-329 101,-310 175,-310 175,-329"/>
<text text-anchor="middle" x="138" y="-317" font-family="Times,serif" font-size="10.00">declaration</text>
</g>
<!-- declaration&#45;&gt;joinpoint -->
<g id="edge19" class="edge">
<title>declaration&#45;&gt;joinpoint</title>
<path fill="none" stroke="black" d="M109.96,-329.03C97.44,-333.44 82.38,-338.75 68.84,-343.52"/>
<polygon fill="black" stroke="black" points="67.58,-340.25 59.31,-346.88 69.91,-346.85 67.58,-340.25"/>
</g>
<!-- enum -->
<g id="node26" class="node">
<title>enum</title>
<polygon fill="#b2dfee" stroke="#b2dfee" points="429,-167 375,-167 375,-148 429,-148 429,-167"/>
<text text-anchor="middle" x="402" y="-155" font-family="Times,serif" font-size="10.00">enum</text>
</g>
<!-- enum&#45;&gt;class -->
<g id="edge20" class="edge">
<title>enum&#45;&gt;class</title>
<path fill="none" stroke="black" d="M374.82,-157.5C354.77,-157.5 326.87,-157.5 304.68,-157.5"/>
<polygon fill="black" stroke="black" points="304.62,-154 294.62,-157.5 304.62,-161 304.62,-154"/>
</g>
<!-- field -->
<g id="node27" class="node">
<title>field</title>
<polygon fill="#b2dfee" stroke="#b2dfee" points="294.5,-93 240.5,-93 240.5,-74 294.5,-74 294.5,-93"/>
<text text-anchor="middle" x="267.5" y="-81" font-family="Times,serif" font-size="10.00">field</text>
</g>
<!-- field&#45;&gt;declaration -->
<g id="edge23" class="edge">
<title>field&#45;&gt;declaration</title>
<path fill="none" stroke="black" d="M240.4,-86.81C230.8,-89.33 220.65,-93.75 214,-101.5 155.18,-170.03 233.25,-230.05 178,-301.5 177.42,-302.25 176.8,-302.97 176.15,-303.66"/>
<polygon fill="black" stroke="black" points="173.82,-301.04 168.15,-309.99 178.17,-306.53 173.82,-301.04"/>
</g>
<!-- fieldAccess -->
<g id="node28" class="node">
<title>fieldAccess</title>
<polygon fill="#b2dfee" stroke="#b2dfee" points="439,-1055 365,-1055 365,-1036 439,-1036 439,-1055"/>
<text text-anchor="middle" x="402" y="-1043" font-family="Times,serif" font-size="10.00">fieldAccess</text>
</g>
<!-- var -->
<g id="node29" class="node">
<title>var</title>
<polygon fill="#b2dfee" stroke="#b2dfee" points="294.5,-1055 240.5,-1055 240.5,-1036 294.5,-1036 294.5,-1055"/>
<text text-anchor="middle" x="267.5" y="-1043" font-family="Times,serif" font-size="10.00">var</text>
</g>
<!-- fieldAccess&#45;&gt;var -->
<g id="edge24" class="edge">
<title>fieldAccess&#45;&gt;var</title>
<path fill="none" stroke="black" d="M364.79,-1045.5C346.13,-1045.5 323.44,-1045.5 304.76,-1045.5"/>
<polygon fill="black" stroke="black" points="304.58,-1042 294.58,-1045.5 304.58,-1049 304.58,-1042"/>
</g>
<!-- var&#45;&gt;expression -->
<g id="edge48" class="edge">
<title>var&#45;&gt;expression</title>
<path fill="none" stroke="black" d="M240.39,-1037.92C223.52,-1033.03 201.16,-1026.54 181.73,-1020.9"/>
<polygon fill="black" stroke="black" points="182.47,-1017.47 171.89,-1018.04 180.51,-1024.19 182.47,-1017.47"/>
</g>
<!-- file -->
<g id="node30" class="node">
<title>file</title>
<polygon fill="#b2dfee" stroke="#b2dfee" points="165,-292 111,-292 111,-273 165,-273 165,-292"/>
<text text-anchor="middle" x="138" y="-280" font-family="Times,serif" font-size="10.00">file</text>
</g>
<!-- file&#45;&gt;joinpoint -->
<g id="edge25" class="edge">
<title>file&#45;&gt;joinpoint</title>
<path fill="none" stroke="black" d="M115.04,-292.05C109.34,-294.84 103.31,-298.06 98,-301.5 80.53,-312.79 62.51,-328.11 49.72,-339.7"/>
<polygon fill="black" stroke="black" points="47.11,-337.36 42.13,-346.71 51.85,-342.5 47.11,-337.36"/>
</g>
<!-- if -->
<g id="node31" class="node">
<title>if</title>
<polygon fill="#b2dfee" stroke="#b2dfee" points="294.5,-426 240.5,-426 240.5,-407 294.5,-407 294.5,-426"/>
<text text-anchor="middle" x="267.5" y="-414" font-family="Times,serif" font-size="10.00">if</text>
</g>
<!-- if&#45;&gt;statement -->
<g id="edge26" class="edge">
<title>if&#45;&gt;statement</title>
<path fill="none" stroke="black" d="M240.39,-416.5C223.72,-416.5 201.69,-416.5 182.43,-416.5"/>
<polygon fill="black" stroke="black" points="182.36,-413 172.36,-416.5 182.36,-420 182.36,-413"/>
</g>
<!-- interface -->
<g id="node32" class="node">
<title>interface</title>
<polygon fill="#b2dfee" stroke="#b2dfee" points="298.5,-130 236.5,-130 236.5,-111 298.5,-111 298.5,-130"/>
<text text-anchor="middle" x="267.5" y="-118" font-family="Times,serif" font-size="10.00">interface</text>
</g>
<!-- interface&#45;&gt;type -->
<g id="edge27" class="edge">
<title>interface&#45;&gt;type</title>
<path fill="none" stroke="black" d="M236.3,-125C228,-127.65 219.71,-131.85 214,-138.5 155.18,-207.03 233.25,-267.05 178,-338.5 176.77,-340.09 175.36,-341.55 173.83,-342.88"/>
<polygon fill="black" stroke="black" points="171.74,-340.07 165.39,-348.55 175.64,-345.88 171.74,-340.07"/>
</g>
<!-- libClass -->
<g id="node33" class="node">
<title>libClass</title>
<polygon fill="#b2dfee" stroke="#b2dfee" points="295.5,-19 239.5,-19 239.5,0 295.5,0 295.5,-19"/>
<text text-anchor="middle" x="267.5" y="-7" font-family="Times,serif" font-size="10.00">libClass</text>
</g>
<!-- libClass&#45;&gt;NamedType -->
<g id="edge28" class="edge">
<title>libClass&#45;&gt;NamedType</title>
<path fill="none" stroke="black" d="M239.46,-14.59C224.55,-17.4 205.58,-20.97 188.14,-24.25"/>
<polygon fill="black" stroke="black" points="187.28,-20.85 178.1,-26.14 188.57,-27.73 187.28,-20.85"/>
</g>
<!-- libMethod -->
<g id="node34" class="node">
<title>libMethod</title>
<polygon fill="#b2dfee" stroke="#b2dfee" points="172.5,-255 103.5,-255 103.5,-236 172.5,-236 172.5,-255"/>
<text text-anchor="middle" x="138" y="-243" font-family="Times,serif" font-size="10.00">libMethod</text>
</g>
<!-- libMethod&#45;&gt;joinpoint -->
<g id="edge29" class="edge">
<title>libMethod&#45;&gt;joinpoint</title>
<path fill="none" stroke="black" d="M112.35,-255.2C107.32,-257.8 102.26,-260.91 98,-264.5 73.08,-285.53 52.75,-317.93 41.52,-338.13"/>
<polygon fill="black" stroke="black" points="38.42,-336.51 36.76,-346.97 44.58,-339.83 38.42,-336.51"/>
</g>
<!-- literal -->
<g id="node35" class="node">
<title>literal</title>
<polygon fill="#b2dfee" stroke="#b2dfee" points="294.5,-1018 240.5,-1018 240.5,-999 294.5,-999 294.5,-1018"/>
<text text-anchor="middle" x="267.5" y="-1006" font-family="Times,serif" font-size="10.00">literal</text>
</g>
<!-- literal&#45;&gt;expression -->
<g id="edge30" class="edge">
<title>literal&#45;&gt;expression</title>
<path fill="none" stroke="black" d="M240.39,-1008.5C224.29,-1008.5 203.19,-1008.5 184.41,-1008.5"/>
<polygon fill="black" stroke="black" points="184.26,-1005 174.26,-1008.5 184.26,-1012 184.26,-1005"/>
</g>
<!-- localVariable -->
<g id="node36" class="node">
<title>localVariable</title>
<polygon fill="#b2dfee" stroke="#b2dfee" points="308,-389 227,-389 227,-370 308,-370 308,-389"/>
<text text-anchor="middle" x="267.5" y="-377" font-family="Times,serif" font-size="10.00">localVariable</text>
</g>
<!-- localVariable&#45;&gt;statement -->
<g id="edge31" class="edge">
<title>localVariable&#45;&gt;statement</title>
<path fill="none" stroke="black" d="M233.67,-389.03C217.88,-393.61 198.75,-399.16 181.83,-404.07"/>
<polygon fill="black" stroke="black" points="180.79,-400.73 172.17,-406.88 182.75,-407.45 180.79,-400.73"/>
</g>
<!-- loop -->
<g id="node37" class="node">
<title>loop</title>
<polygon fill="#b2dfee" stroke="#b2dfee" points="294.5,-352 240.5,-352 240.5,-333 294.5,-333 294.5,-352"/>
<text text-anchor="middle" x="267.5" y="-340" font-family="Times,serif" font-size="10.00">loop</text>
</g>
<!-- loop&#45;&gt;statement -->
<g id="edge32" class="edge">
<title>loop&#45;&gt;statement</title>
<path fill="none" stroke="black" d="M240.23,-350.36C231.65,-353.35 222.21,-357.12 214,-361.5 193.52,-372.43 172.38,-388.43 157.79,-400.36"/>
<polygon fill="black" stroke="black" points="155.45,-397.75 150.01,-406.84 159.93,-403.13 155.45,-397.75"/>
</g>
<!-- method -->
<g id="node38" class="node">
<title>method</title>
<polygon fill="#b2dfee" stroke="#b2dfee" points="295.5,-759 239.5,-759 239.5,-740 295.5,-740 295.5,-759"/>
<text text-anchor="middle" x="267.5" y="-747" font-family="Times,serif" font-size="10.00">method</text>
</g>
<!-- method&#45;&gt;executable -->
<g id="edge33" class="edge">
<title>method&#45;&gt;executable</title>
<path fill="none" stroke="black" d="M239.46,-753.53C223.42,-755.92 202.69,-759.01 184.22,-761.76"/>
<polygon fill="black" stroke="black" points="183.62,-758.31 174.24,-763.25 184.65,-765.24 183.62,-758.31"/>
</g>
<!-- new -->
<g id="node39" class="node">
<title>new</title>
<polygon fill="#b2dfee" stroke="#b2dfee" points="294.5,-981 240.5,-981 240.5,-962 294.5,-962 294.5,-981"/>
<text text-anchor="middle" x="267.5" y="-969" font-family="Times,serif" font-size="10.00">new</text>
</g>
<!-- new&#45;&gt;expression -->
<g id="edge34" class="edge">
<title>new&#45;&gt;expression</title>
<path fill="none" stroke="black" d="M240.39,-979.08C223.52,-983.97 201.16,-990.46 181.73,-996.1"/>
<polygon fill="black" stroke="black" points="180.51,-992.81 171.89,-998.96 182.47,-999.53 180.51,-992.81"/>
</g>
<!-- opAssignment -->
<g id="node40" class="node">
<title>opAssignment</title>
<polygon fill="#b2dfee" stroke="#b2dfee" points="447,-685 357,-685 357,-666 447,-666 447,-685"/>
<text text-anchor="middle" x="402" y="-673" font-family="Times,serif" font-size="10.00">opAssignment</text>
</g>
<!-- opAssignment&#45;&gt;assignment -->
<g id="edge35" class="edge">
<title>opAssignment&#45;&gt;assignment</title>
<path fill="none" stroke="black" d="M356.88,-675.5C343.81,-675.5 329.44,-675.5 316.16,-675.5"/>
<polygon fill="black" stroke="black" points="315.79,-672 305.79,-675.5 315.79,-679 315.79,-672"/>
</g>
<!-- pragma -->
<g id="node41" class="node">
<title>pragma</title>
<polygon fill="#b2dfee" stroke="#b2dfee" points="430,-500 374,-500 374,-481 430,-481 430,-500"/>
<text text-anchor="middle" x="402" y="-488" font-family="Times,serif" font-size="10.00">pragma</text>
</g>
<!-- pragma&#45;&gt;comment -->
<g id="edge36" class="edge">
<title>pragma&#45;&gt;comment</title>
<path fill="none" stroke="black" d="M373.87,-490.5C355.47,-490.5 330.81,-490.5 309.97,-490.5"/>
<polygon fill="black" stroke="black" points="309.78,-487 299.78,-490.5 309.78,-494 309.78,-487"/>
</g>
<!-- reference -->
<g id="node42" class="node">
<title>reference</title>
<polygon fill="#b2dfee" stroke="#b2dfee" points="170.5,-172 105.5,-172 105.5,-153 170.5,-153 170.5,-172"/>
<text text-anchor="middle" x="138" y="-160" font-family="Times,serif" font-size="10.00">reference</text>
</g>
<!-- reference&#45;&gt;joinpoint -->
<g id="edge37" class="edge">
<title>reference&#45;&gt;joinpoint</title>
<path fill="none" stroke="black" d="M130.98,-172.07C123.14,-184.65 109.11,-207.48 98,-227.5 76.54,-266.17 53.43,-312.55 41.06,-337.83"/>
<polygon fill="black" stroke="black" points="37.83,-336.48 36.59,-347 44.12,-339.54 37.83,-336.48"/>
</g>
<!-- return -->
<g id="node43" class="node">
<title>return</title>
<polygon fill="#b2dfee" stroke="#b2dfee" points="294.5,-315 240.5,-315 240.5,-296 294.5,-296 294.5,-315"/>
<text text-anchor="middle" x="267.5" y="-303" font-family="Times,serif" font-size="10.00">return</text>
</g>
<!-- return&#45;&gt;statement -->
<g id="edge38" class="edge">
<title>return&#45;&gt;statement</title>
<path fill="none" stroke="black" d="M240.36,-311.52C231.4,-314.44 221.71,-318.62 214,-324.5 191.94,-341.33 195.61,-354.06 178,-375.5 171.22,-383.75 163.17,-392.39 156.15,-399.59"/>
<polygon fill="black" stroke="black" points="153.59,-397.2 149.04,-406.77 158.57,-402.13 153.59,-397.2"/>
</g>
<!-- switch -->
<g id="node44" class="node">
<title>switch</title>
<polygon fill="#b2dfee" stroke="#b2dfee" points="294.5,-278 240.5,-278 240.5,-259 294.5,-259 294.5,-278"/>
<text text-anchor="middle" x="267.5" y="-266" font-family="Times,serif" font-size="10.00">switch</text>
</g>
<!-- switch&#45;&gt;statement -->
<g id="edge40" class="edge">
<title>switch&#45;&gt;statement</title>
<path fill="none" stroke="black" d="M240.38,-273.34C231.11,-276.16 221.2,-280.59 214,-287.5 183.51,-316.76 200.96,-340.02 178,-375.5 172.28,-384.34 164.51,-392.97 157.41,-400.01"/>
<polygon fill="black" stroke="black" points="154.93,-397.54 150.1,-406.97 159.76,-402.61 154.93,-397.54"/>
</g>
<!-- ternary -->
<g id="node45" class="node">
<title>ternary</title>
<polygon fill="#b2dfee" stroke="#b2dfee" points="294.5,-944 240.5,-944 240.5,-925 294.5,-925 294.5,-944"/>
<text text-anchor="middle" x="267.5" y="-932" font-family="Times,serif" font-size="10.00">ternary</text>
</g>
<!-- ternary&#45;&gt;expression -->
<g id="edge41" class="edge">
<title>ternary&#45;&gt;expression</title>
<path fill="none" stroke="black" d="M240.23,-942.36C231.65,-945.35 222.21,-949.12 214,-953.5 193.52,-964.43 172.38,-980.43 157.79,-992.36"/>
<polygon fill="black" stroke="black" points="155.45,-989.75 150.01,-998.84 159.93,-995.13 155.45,-989.75"/>
</g>
<!-- this -->
<g id="node46" class="node">
<title>this</title>
<polygon fill="#b2dfee" stroke="#b2dfee" points="294.5,-907 240.5,-907 240.5,-888 294.5,-888 294.5,-907"/>
<text text-anchor="middle" x="267.5" y="-895" font-family="Times,serif" font-size="10.00">this</text>
</g>
<!-- this&#45;&gt;expression -->
<g id="edge42" class="edge">
<title>this&#45;&gt;expression</title>
<path fill="none" stroke="black" d="M240.31,-903.91C231.45,-906.85 221.83,-910.95 214,-916.5 185.85,-936.47 162.43,-969.69 149.6,-990.27"/>
<polygon fill="black" stroke="black" points="146.51,-988.63 144.33,-999 152.5,-992.25 146.51,-988.63"/>
</g>
<!-- throw -->
<g id="node47" class="node">
<title>throw</title>
<polygon fill="#b2dfee" stroke="#b2dfee" points="294.5,-241 240.5,-241 240.5,-222 294.5,-222 294.5,-241"/>
<text text-anchor="middle" x="267.5" y="-229" font-family="Times,serif" font-size="10.00">throw</text>
</g>
<!-- throw&#45;&gt;statement -->
<g id="edge43" class="edge">
<title>throw&#45;&gt;statement</title>
<path fill="none" stroke="black" d="M240.24,-235.85C230.84,-238.62 220.89,-243.14 214,-250.5 174.51,-292.72 206.75,-325.34 178,-375.5 172.83,-384.51 165.28,-393.08 158.2,-400.02"/>
<polygon fill="black" stroke="black" points="155.77,-397.5 150.82,-406.87 160.53,-402.63 155.77,-397.5"/>
</g>
<!-- try -->
<g id="node48" class="node">
<title>try</title>
<polygon fill="#b2dfee" stroke="#b2dfee" points="294.5,-204 240.5,-204 240.5,-185 294.5,-185 294.5,-204"/>
<text text-anchor="middle" x="267.5" y="-192" font-family="Times,serif" font-size="10.00">try</text>
</g>
<!-- try&#45;&gt;statement -->
<g id="edge44" class="edge">
<title>try&#45;&gt;statement</title>
<path fill="none" stroke="black" d="M240.26,-198.55C230.76,-201.29 220.72,-205.86 214,-213.5 165.3,-268.9 212.68,-310.41 178,-375.5 173.11,-384.67 165.61,-393.26 158.49,-400.18"/>
<polygon fill="black" stroke="black" points="156.06,-397.66 151.04,-406.99 160.78,-402.82 156.06,-397.66"/>
</g>
<!-- typeReference -->
<g id="node49" class="node">
<title>typeReference</title>
<polygon fill="#b2dfee" stroke="#b2dfee" points="313,-56 222,-56 222,-37 313,-37 313,-56"/>
<text text-anchor="middle" x="267.5" y="-44" font-family="Times,serif" font-size="10.00">typeReference</text>
</g>
<!-- typeReference&#45;&gt;reference -->
<g id="edge46" class="edge">
<title>typeReference&#45;&gt;reference</title>
<path fill="none" stroke="black" d="M229.55,-56.06C224.07,-58.34 218.69,-61.12 214,-64.5 184.45,-85.77 161.07,-122 148.7,-143.94"/>
<polygon fill="black" stroke="black" points="145.53,-142.46 143.81,-152.92 151.67,-145.81 145.53,-142.46"/>
</g>
<!-- unaryExpression -->
<g id="node50" class="node">
<title>unaryExpression</title>
<polygon fill="#b2dfee" stroke="#b2dfee" points="319.5,-870 215.5,-870 215.5,-851 319.5,-851 319.5,-870"/>
<text text-anchor="middle" x="267.5" y="-858" font-family="Times,serif" font-size="10.00">unaryExpression</text>
</g>
<!-- unaryExpression&#45;&gt;expression -->
<g id="edge47" class="edge">
<title>unaryExpression&#45;&gt;expression</title>
<path fill="none" stroke="black" d="M229.69,-870.06C224.07,-872.55 218.61,-875.65 214,-879.5 178.19,-909.4 155.65,-961.07 145.43,-989.09"/>
<polygon fill="black" stroke="black" points="142,-988.29 142.01,-998.89 148.61,-990.6 142,-988.29"/>
</g>
<!-- xmlElement -->
<g id="node51" class="node">
<title>xmlElement</title>
<polygon fill="#b2dfee" stroke="#b2dfee" points="306.5,-1240 228.5,-1240 228.5,-1221 306.5,-1221 306.5,-1240"/>
<text text-anchor="middle" x="267.5" y="-1228" font-family="Times,serif" font-size="10.00">xmlElement</text>
</g>
<!-- xmlElement&#45;&gt;xmlNode -->
<g id="edge49" class="edge">
<title>xmlElement&#45;&gt;xmlNode</title>
<path fill="none" stroke="black" d="M228.25,-1230.5C212.99,-1230.5 195.4,-1230.5 179.89,-1230.5"/>
<polygon fill="black" stroke="black" points="179.54,-1227 169.54,-1230.5 179.54,-1234 179.54,-1227"/>
</g>
</g>
</svg>
