<?xml version="1.0" encoding="UTF-8" standalone="no"?>
<!DOCTYPE svg PUBLIC "-//W3C//DTD SVG 1.1//EN"
 "http://www.w3.org/Graphics/SVG/1.1/DTD/svg11.dtd">
<!-- Generated by graphviz version 2.48.0 (20210717.1556)
 -->
<!-- Title: JavaWeaver_join_point_hierarchy_join_point_hierarchy Pages: 1 -->
<svg width="397pt" height="1359pt"
 viewBox="0.00 0.00 397.00 1359.00" xmlns="http://www.w3.org/2000/svg" xmlns:xlink="http://www.w3.org/1999/xlink">
<g id="graph0" class="graph" transform="scale(1 1) rotate(0) translate(4 1355)">
<title>JavaWeaver_join_point_hierarchy_join_point_hierarchy</title>
<polygon fill="white" stroke="transparent" points="-4,4 -4,-1355 393,-1355 393,4 -4,4"/>
<!-- NamedType -->
<g id="node1" class="node">
<title>NamedType</title>
<polygon fill="#b2dfee" stroke="#b2dfee" points="155,-31 90,-31 90,-12 155,-12 155,-31"/>
<text text-anchor="middle" x="122.5" y="-19" font-family="Times New Roman,serif" font-size="10.00">NamedType</text>
</g>
<!-- joinpoint -->
<g id="node2" class="node">
<title>joinpoint</title>
<polygon fill="#b2dfee" stroke="#b2dfee" points="54,-372 0,-372 0,-353 54,-353 54,-372"/>
<text text-anchor="middle" x="27" y="-360" font-family="Times New Roman,serif" font-size="10.00">joinpoint</text>
</g>
<!-- NamedType&#45;&gt;joinpoint -->
<g id="edge1" class="edge">
<title>NamedType&#45;&gt;joinpoint</title>
<path fill="none" stroke="black" d="M118.68,-31.29C113.11,-50.61 100.36,-95.05 90,-132.5 68.43,-210.47 43.62,-303.57 33.12,-343.16"/>
<polygon fill="black" stroke="black" points="29.73,-342.28 30.55,-352.85 36.5,-344.08 29.73,-342.28"/>
</g>
<!-- androidManifest -->
<g id="node3" class="node">
<title>androidManifest</title>
<polygon fill="#b2dfee" stroke="#b2dfee" points="275.5,-1351 192.5,-1351 192.5,-1332 275.5,-1332 275.5,-1351"/>
<text text-anchor="middle" x="234" y="-1339" font-family="Times New Roman,serif" font-size="10.00">androidManifest</text>
</g>
<!-- xmlNode -->
<g id="node4" class="node">
<title>xmlNode</title>
<polygon fill="#b2dfee" stroke="#b2dfee" points="149.5,-1314 95.5,-1314 95.5,-1295 149.5,-1295 149.5,-1314"/>
<text text-anchor="middle" x="122.5" y="-1302" font-family="Times New Roman,serif" font-size="10.00">xmlNode</text>
</g>
<!-- androidManifest&#45;&gt;xmlNode -->
<g id="edge2" class="edge">
<title>androidManifest&#45;&gt;xmlNode</title>
<path fill="none" stroke="black" d="M204.8,-1331.97C191,-1327.31 174.24,-1321.64 159.52,-1316.67"/>
<polygon fill="black" stroke="black" points="160.32,-1313.25 149.72,-1313.36 158.08,-1319.88 160.32,-1313.25"/>
</g>
<!-- xmlNode&#45;&gt;joinpoint -->
<g id="edge54" class="edge">
<title>xmlNode&#45;&gt;joinpoint</title>
<path fill="none" stroke="black" d="M119.92,-1294.83C114.95,-1264.05 99.36,-1165.52 90,-1083.5 58.32,-806.04 34.91,-466.83 29.29,-382.29"/>
<polygon fill="black" stroke="black" points="32.78,-382.02 28.63,-372.27 25.8,-382.48 32.78,-382.02"/>
</g>
<!-- annotation -->
<g id="node5" class="node">
<title>annotation</title>
<polygon fill="#b2dfee" stroke="#b2dfee" points="264,-1277 204,-1277 204,-1258 264,-1258 264,-1277"/>
<text text-anchor="middle" x="234" y="-1265" font-family="Times New Roman,serif" font-size="10.00">annotation</text>
</g>
<!-- expression -->
<g id="node6" class="node">
<title>expression</title>
<polygon fill="#b2dfee" stroke="#b2dfee" points="152,-1074 93,-1074 93,-1055 152,-1055 152,-1074"/>
<text text-anchor="middle" x="122.5" y="-1062" font-family="Times New Roman,serif" font-size="10.00">expression</text>
</g>
<!-- annotation&#45;&gt;expression -->
<g id="edge3" class="edge">
<title>annotation&#45;&gt;expression</title>
<path fill="none" stroke="black" d="M203.88,-1258.76C199.13,-1256.34 194.6,-1253.3 191,-1249.5 145.85,-1201.79 130.45,-1121.49 125.58,-1084.39"/>
<polygon fill="black" stroke="black" points="129.04,-1083.87 124.38,-1074.35 122.09,-1084.69 129.04,-1083.87"/>
</g>
<!-- expression&#45;&gt;joinpoint -->
<g id="edge24" class="edge">
<title>expression&#45;&gt;joinpoint</title>
<path fill="none" stroke="black" d="M120.21,-1054.84C110.19,-979.61 44.63,-487.36 30.63,-382.23"/>
<polygon fill="black" stroke="black" points="34.07,-381.54 29.28,-372.09 27.13,-382.46 34.07,-381.54"/>
</g>
<!-- anonymousExec -->
<g id="node7" class="node">
<title>anonymousExec</title>
<polygon fill="#b2dfee" stroke="#b2dfee" points="275,-870 193,-870 193,-851 275,-851 275,-870"/>
<text text-anchor="middle" x="234" y="-858" font-family="Times New Roman,serif" font-size="10.00">anonymousExec</text>
</g>
<!-- executable -->
<g id="node8" class="node">
<title>executable</title>
<polygon fill="#b2dfee" stroke="#b2dfee" points="152,-815 93,-815 93,-796 152,-796 152,-815"/>
<text text-anchor="middle" x="122.5" y="-803" font-family="Times New Roman,serif" font-size="10.00">executable</text>
</g>
<!-- anonymousExec&#45;&gt;executable -->
<g id="edge4" class="edge">
<title>anonymousExec&#45;&gt;executable</title>
<path fill="none" stroke="black" d="M209.71,-850.99C203.57,-848.36 196.99,-845.42 191,-842.5 176.83,-835.6 161.39,-827.2 148.86,-820.16"/>
<polygon fill="black" stroke="black" points="150.33,-816.97 139.91,-815.08 146.88,-823.06 150.33,-816.97"/>
</g>
<!-- executable&#45;&gt;joinpoint -->
<g id="edge23" class="edge">
<title>executable&#45;&gt;joinpoint</title>
<path fill="none" stroke="black" d="M119.46,-795.84C107.7,-740.11 48.5,-459.65 32.18,-382.29"/>
<polygon fill="black" stroke="black" points="35.5,-381.1 30.01,-372.04 28.65,-382.54 35.5,-381.1"/>
</g>
<!-- app -->
<g id="node9" class="node">
<title>app</title>
<polygon fill="#b2dfee" stroke="#b2dfee" points="149.5,-488 95.5,-488 95.5,-469 149.5,-469 149.5,-488"/>
<text text-anchor="middle" x="122.5" y="-476" font-family="Times New Roman,serif" font-size="10.00">app</text>
</g>
<!-- app&#45;&gt;joinpoint -->
<g id="edge5" class="edge">
<title>app&#45;&gt;joinpoint</title>
<path fill="none" stroke="black" d="M101.15,-468.83C97.2,-466.43 93.28,-463.63 90,-460.5 65.74,-437.3 46.78,-402.76 36.51,-381.48"/>
<polygon fill="black" stroke="black" points="39.58,-379.79 32.18,-372.21 33.24,-382.75 39.58,-379.79"/>
</g>
<!-- arrayAccess -->
<g id="node10" class="node">
<title>arrayAccess</title>
<polygon fill="#b2dfee" stroke="#b2dfee" points="267.5,-1240 200.5,-1240 200.5,-1221 267.5,-1221 267.5,-1240"/>
<text text-anchor="middle" x="234" y="-1228" font-family="Times New Roman,serif" font-size="10.00">arrayAccess</text>
</g>
<!-- arrayAccess&#45;&gt;expression -->
<g id="edge6" class="edge">
<title>arrayAccess&#45;&gt;expression</title>
<path fill="none" stroke="black" d="M202.83,-1220.85C198.52,-1218.58 194.4,-1215.83 191,-1212.5 153.76,-1176.11 135.15,-1115.38 127.65,-1084.23"/>
<polygon fill="black" stroke="black" points="131,-1083.18 125.38,-1074.2 124.17,-1084.73 131,-1083.18"/>
</g>
<!-- assert -->
<g id="node11" class="node">
<title>assert</title>
<polygon fill="#b2dfee" stroke="#b2dfee" points="261,-759 207,-759 207,-740 261,-740 261,-759"/>
<text text-anchor="middle" x="234" y="-747" font-family="Times New Roman,serif" font-size="10.00">assert</text>
</g>
<!-- statement -->
<g id="node12" class="node">
<title>statement</title>
<polygon fill="#b2dfee" stroke="#b2dfee" points="150.5,-451 94.5,-451 94.5,-432 150.5,-432 150.5,-451"/>
<text text-anchor="middle" x="122.5" y="-439" font-family="Times New Roman,serif" font-size="10.00">statement</text>
</g>
<!-- assert&#45;&gt;statement -->
<g id="edge7" class="edge">
<title>assert&#45;&gt;statement</title>
<path fill="none" stroke="black" d="M206.62,-743.04C200.65,-740.39 194.93,-736.68 191,-731.5 117.57,-634.7 221.59,-562.13 155,-460.5 154.39,-459.57 153.71,-458.67 152.98,-457.81"/>
<polygon fill="black" stroke="black" points="155.16,-455.07 145.34,-451.09 150.54,-460.32 155.16,-455.07"/>
</g>
<!-- statement&#45;&gt;joinpoint -->
<g id="edge43" class="edge">
<title>statement&#45;&gt;joinpoint</title>
<path fill="none" stroke="black" d="M110.04,-431.81C94.32,-418.53 65.88,-394.51 46.97,-378.52"/>
<polygon fill="black" stroke="black" points="49.16,-375.8 39.27,-372.02 44.65,-381.15 49.16,-375.8"/>
</g>
<!-- assignment -->
<g id="node13" class="node">
<title>assignment</title>
<polygon fill="#b2dfee" stroke="#b2dfee" points="265,-722 203,-722 203,-703 265,-703 265,-722"/>
<text text-anchor="middle" x="234" y="-710" font-family="Times New Roman,serif" font-size="10.00">assignment</text>
</g>
<!-- assignment&#45;&gt;statement -->
<g id="edge8" class="edge">
<title>assignment&#45;&gt;statement</title>
<path fill="none" stroke="black" d="M202.81,-704.08C198.29,-701.64 194.11,-698.51 191,-694.5 126.55,-611.33 213.57,-547.91 155,-460.5 154.38,-459.57 153.69,-458.68 152.96,-457.83"/>
<polygon fill="black" stroke="black" points="155.12,-455.07 145.28,-451.13 150.52,-460.34 155.12,-455.07"/>
</g>
<!-- binaryExpression -->
<g id="node14" class="node">
<title>binaryExpression</title>
<polygon fill="#b2dfee" stroke="#b2dfee" points="277,-1203 191,-1203 191,-1184 277,-1184 277,-1203"/>
<text text-anchor="middle" x="234" y="-1191" font-family="Times New Roman,serif" font-size="10.00">binaryExpression</text>
</g>
<!-- binaryExpression&#45;&gt;expression -->
<g id="edge9" class="edge">
<title>binaryExpression&#45;&gt;expression</title>
<path fill="none" stroke="black" d="M204.03,-1183.93C199.38,-1181.62 194.83,-1178.83 191,-1175.5 161.47,-1149.88 140.98,-1108.06 130.83,-1083.73"/>
<polygon fill="black" stroke="black" points="133.97,-1082.16 127.01,-1074.18 127.48,-1084.77 133.97,-1082.16"/>
</g>
<!-- body -->
<g id="node15" class="node">
<title>body</title>
<polygon fill="#b2dfee" stroke="#b2dfee" points="261,-685 207,-685 207,-666 261,-666 261,-685"/>
<text text-anchor="middle" x="234" y="-673" font-family="Times New Roman,serif" font-size="10.00">body</text>
</g>
<!-- body&#45;&gt;statement -->
<g id="edge10" class="edge">
<title>body&#45;&gt;statement</title>
<path fill="none" stroke="black" d="M206.79,-668.91C200.82,-666.26 195.06,-662.59 191,-657.5 135.5,-587.92 205.58,-533.74 155,-460.5 154.36,-459.58 153.67,-458.7 152.92,-457.85"/>
<polygon fill="black" stroke="black" points="155.06,-455.07 145.2,-451.19 150.49,-460.37 155.06,-455.07"/>
</g>
<!-- break -->
<g id="node16" class="node">
<title>break</title>
<polygon fill="#b2dfee" stroke="#b2dfee" points="261,-648 207,-648 207,-629 261,-629 261,-648"/>
<text text-anchor="middle" x="234" y="-636" font-family="Times New Roman,serif" font-size="10.00">break</text>
</g>
<!-- break&#45;&gt;statement -->
<g id="edge11" class="edge">
<title>break&#45;&gt;statement</title>
<path fill="none" stroke="black" d="M206.93,-631.79C200.96,-629.15 195.16,-625.5 191,-620.5 144.4,-564.45 197.63,-519.62 155,-460.5 154.24,-459.45 153.41,-458.45 152.52,-457.49"/>
<polygon fill="black" stroke="black" points="154.69,-454.75 144.76,-451.06 150.22,-460.14 154.69,-454.75"/>
</g>
<!-- call -->
<g id="node17" class="node">
<title>call</title>
<polygon fill="#b2dfee" stroke="#b2dfee" points="261,-1166 207,-1166 207,-1147 261,-1147 261,-1166"/>
<text text-anchor="middle" x="234" y="-1154" font-family="Times New Roman,serif" font-size="10.00">call</text>
</g>
<!-- call&#45;&gt;expression -->
<g id="edge12" class="edge">
<title>call&#45;&gt;expression</title>
<path fill="none" stroke="black" d="M206.75,-1147.3C201.31,-1144.84 195.78,-1141.9 191,-1138.5 169,-1122.86 148.86,-1098.97 136.41,-1082.59"/>
<polygon fill="black" stroke="black" points="139.09,-1080.33 130.33,-1074.37 133.46,-1084.49 139.09,-1080.33"/>
</g>
<!-- callStatement -->
<g id="node18" class="node">
<title>callStatement</title>
<polygon fill="#b2dfee" stroke="#b2dfee" points="269,-611 199,-611 199,-592 269,-592 269,-611"/>
<text text-anchor="middle" x="234" y="-599" font-family="Times New Roman,serif" font-size="10.00">callStatement</text>
</g>
<!-- callStatement&#45;&gt;statement -->
<g id="edge13" class="edge">
<title>callStatement&#45;&gt;statement</title>
<path fill="none" stroke="black" d="M201.55,-591.79C197.61,-589.56 193.95,-586.82 191,-583.5 153.21,-540.88 189.76,-505.62 155,-460.5 154.21,-459.48 153.35,-458.49 152.43,-457.56"/>
<polygon fill="black" stroke="black" points="154.55,-454.77 144.58,-451.19 150.14,-460.21 154.55,-454.77"/>
</g>
<!-- case -->
<g id="node19" class="node">
<title>case</title>
<polygon fill="#b2dfee" stroke="#b2dfee" points="261,-574 207,-574 207,-555 261,-555 261,-574"/>
<text text-anchor="middle" x="234" y="-562" font-family="Times New Roman,serif" font-size="10.00">case</text>
</g>
<!-- case&#45;&gt;statement -->
<g id="edge14" class="edge">
<title>case&#45;&gt;statement</title>
<path fill="none" stroke="black" d="M206.64,-556.87C200.96,-554.28 195.36,-550.89 191,-546.5 161.82,-517.08 182.08,-491.86 155,-460.5 154.01,-459.35 152.93,-458.25 151.79,-457.2"/>
<polygon fill="black" stroke="black" points="153.7,-454.26 143.61,-451.02 149.48,-459.85 153.7,-454.26"/>
</g>
<!-- catch -->
<g id="node20" class="node">
<title>catch</title>
<polygon fill="#b2dfee" stroke="#b2dfee" points="149.5,-391 95.5,-391 95.5,-372 149.5,-372 149.5,-391"/>
<text text-anchor="middle" x="122.5" y="-379" font-family="Times New Roman,serif" font-size="10.00">catch</text>
</g>
<!-- catch&#45;&gt;joinpoint -->
<g id="edge15" class="edge">
<title>catch&#45;&gt;joinpoint</title>
<path fill="none" stroke="black" d="M95.46,-376.21C85.81,-374.25 74.69,-371.99 64.3,-369.88"/>
<polygon fill="black" stroke="black" points="64.73,-366.39 54.23,-367.83 63.33,-373.25 64.73,-366.39"/>
</g>
<!-- class -->
<g id="node21" class="node">
<title>class</title>
<polygon fill="#b2dfee" stroke="#b2dfee" points="261,-167 207,-167 207,-148 261,-148 261,-167"/>
<text text-anchor="middle" x="234" y="-155" font-family="Times New Roman,serif" font-size="10.00">class</text>
</g>
<!-- type -->
<g id="node22" class="node">
<title>type</title>
<polygon fill="#b2dfee" stroke="#b2dfee" points="149.5,-354 95.5,-354 95.5,-335 149.5,-335 149.5,-354"/>
<text text-anchor="middle" x="122.5" y="-342" font-family="Times New Roman,serif" font-size="10.00">type</text>
</g>
<!-- class&#45;&gt;type -->
<g id="edge16" class="edge">
<title>class&#45;&gt;type</title>
<path fill="none" stroke="black" d="M206.96,-164.89C200.99,-167.67 195.18,-171.44 191,-176.5 147.32,-229.34 196.14,-271.66 155,-326.5 154.53,-327.12 154.04,-327.73 153.52,-328.32"/>
<polygon fill="black" stroke="black" points="151.04,-325.83 145.68,-334.97 155.57,-331.17 151.04,-325.83"/>
</g>
<!-- type&#45;&gt;joinpoint -->
<g id="edge49" class="edge">
<title>type&#45;&gt;joinpoint</title>
<path fill="none" stroke="black" d="M95.46,-349.51C85.81,-351.37 74.69,-353.51 64.3,-355.51"/>
<polygon fill="black" stroke="black" points="63.39,-352.12 54.23,-357.45 64.71,-359 63.39,-352.12"/>
</g>
<!-- comment -->
<g id="node23" class="node">
<title>comment</title>
<polygon fill="#b2dfee" stroke="#b2dfee" points="261,-537 207,-537 207,-518 261,-518 261,-537"/>
<text text-anchor="middle" x="234" y="-525" font-family="Times New Roman,serif" font-size="10.00">comment</text>
</g>
<!-- comment&#45;&gt;statement -->
<g id="edge17" class="edge">
<title>comment&#45;&gt;statement</title>
<path fill="none" stroke="black" d="M206.91,-518.88C201.34,-516.36 195.72,-513.25 191,-509.5 169.84,-492.7 174.96,-478.72 155,-460.5 153.55,-459.18 151.99,-457.9 150.38,-456.67"/>
<polygon fill="black" stroke="black" points="152.26,-453.71 142.01,-451.01 148.33,-459.51 152.26,-453.71"/>
</g>
<!-- constructor -->
<g id="node24" class="node">
<title>constructor</title>
<polygon fill="#b2dfee" stroke="#b2dfee" points="265.5,-833 202.5,-833 202.5,-814 265.5,-814 265.5,-833"/>
<text text-anchor="middle" x="234" y="-821" font-family="Times New Roman,serif" font-size="10.00">constructor</text>
</g>
<!-- constructor&#45;&gt;executable -->
<g id="edge18" class="edge">
<title>constructor&#45;&gt;executable</title>
<path fill="none" stroke="black" d="M202.5,-818.49C190.11,-816.45 175.66,-814.07 162.52,-811.91"/>
<polygon fill="black" stroke="black" points="162.77,-808.41 152.33,-810.24 161.63,-815.32 162.77,-808.41"/>
</g>
<!-- continue -->
<g id="node25" class="node">
<title>continue</title>
<polygon fill="#b2dfee" stroke="#b2dfee" points="261,-500 207,-500 207,-481 261,-481 261,-500"/>
<text text-anchor="middle" x="234" y="-488" font-family="Times New Roman,serif" font-size="10.00">continue</text>
</g>
<!-- continue&#45;&gt;statement -->
<g id="edge19" class="edge">
<title>continue&#45;&gt;statement</title>
<path fill="none" stroke="black" d="M210.28,-480.89C204.02,-478.21 197.24,-475.27 191,-472.5 178.66,-467.02 165.13,-460.84 153.44,-455.45"/>
<polygon fill="black" stroke="black" points="154.66,-452.16 144.12,-451.13 151.72,-458.51 154.66,-452.16"/>
</g>
<!-- declaration -->
<g id="node26" class="node">
<title>declaration</title>
<polygon fill="#b2dfee" stroke="#b2dfee" points="153,-317 92,-317 92,-298 153,-298 153,-317"/>
<text text-anchor="middle" x="122.5" y="-305" font-family="Times New Roman,serif" font-size="10.00">declaration</text>
</g>
<!-- declaration&#45;&gt;joinpoint -->
<g id="edge20" class="edge">
<title>declaration&#45;&gt;joinpoint</title>
<path fill="none" stroke="black" d="M105.21,-317.08C90.82,-325.55 69.61,-338.02 53.06,-347.76"/>
<polygon fill="black" stroke="black" points="51.26,-344.76 44.41,-352.84 54.81,-350.79 51.26,-344.76"/>
</g>
<!-- enum -->
<g id="node27" class="node">
<title>enum</title>
<polygon fill="#b2dfee" stroke="#b2dfee" points="378,-167 324,-167 324,-148 378,-148 378,-167"/>
<text text-anchor="middle" x="351" y="-155" font-family="Times New Roman,serif" font-size="10.00">enum</text>
</g>
<!-- enum&#45;&gt;class -->
<g id="edge21" class="edge">
<title>enum&#45;&gt;class</title>
<path fill="none" stroke="black" d="M323.9,-157.5C308.43,-157.5 288.57,-157.5 271.56,-157.5"/>
<polygon fill="black" stroke="black" points="271.39,-154 261.39,-157.5 271.39,-161 271.39,-154"/>
</g>
<!-- enumValue -->
<g id="node28" class="node">
<title>enumValue</title>
<polygon fill="#b2dfee" stroke="#b2dfee" points="381.5,-93 320.5,-93 320.5,-74 381.5,-74 381.5,-93"/>
<text text-anchor="middle" x="351" y="-81" font-family="Times New Roman,serif" font-size="10.00">enumValue</text>
</g>
<!-- field -->
<g id="node29" class="node">
<title>field</title>
<polygon fill="#b2dfee" stroke="#b2dfee" points="261,-93 207,-93 207,-74 261,-74 261,-93"/>
<text text-anchor="middle" x="234" y="-81" font-family="Times New Roman,serif" font-size="10.00">field</text>
</g>
<!-- enumValue&#45;&gt;field -->
<g id="edge22" class="edge">
<title>enumValue&#45;&gt;field</title>
<path fill="none" stroke="black" d="M320.38,-83.5C305.57,-83.5 287.49,-83.5 271.8,-83.5"/>
<polygon fill="black" stroke="black" points="271.38,-80 261.38,-83.5 271.38,-87 271.38,-80"/>
</g>
<!-- field&#45;&gt;declaration -->
<g id="edge25" class="edge">
<title>field&#45;&gt;declaration</title>
<path fill="none" stroke="black" d="M206.8,-90.76C200.84,-93.55 195.07,-97.35 191,-102.5 138.57,-168.94 204.24,-220.66 155,-289.5 154.63,-290.01 154.25,-290.51 153.84,-291"/>
<polygon fill="black" stroke="black" points="151.28,-288.59 146.12,-297.85 155.93,-293.83 151.28,-288.59"/>
</g>
<!-- fieldAccess -->
<g id="node30" class="node">
<title>fieldAccess</title>
<polygon fill="#b2dfee" stroke="#b2dfee" points="383,-1129 319,-1129 319,-1110 383,-1110 383,-1129"/>
<text text-anchor="middle" x="351" y="-1117" font-family="Times New Roman,serif" font-size="10.00">fieldAccess</text>
</g>
<!-- var -->
<g id="node31" class="node">
<title>var</title>
<polygon fill="#b2dfee" stroke="#b2dfee" points="261,-1129 207,-1129 207,-1110 261,-1110 261,-1129"/>
<text text-anchor="middle" x="234" y="-1117" font-family="Times New Roman,serif" font-size="10.00">var</text>
</g>
<!-- fieldAccess&#45;&gt;var -->
<g id="edge26" class="edge">
<title>fieldAccess&#45;&gt;var</title>
<path fill="none" stroke="black" d="M318.88,-1119.5C304.18,-1119.5 286.54,-1119.5 271.24,-1119.5"/>
<polygon fill="black" stroke="black" points="271.09,-1116 261.09,-1119.5 271.09,-1123 271.09,-1116"/>
</g>
<!-- var&#45;&gt;expression -->
<g id="edge52" class="edge">
<title>var&#45;&gt;expression</title>
<path fill="none" stroke="black" d="M209.71,-1109.99C203.57,-1107.36 196.99,-1104.42 191,-1101.5 176.83,-1094.6 161.39,-1086.2 148.86,-1079.16"/>
<polygon fill="black" stroke="black" points="150.33,-1075.97 139.91,-1074.08 146.88,-1082.06 150.33,-1075.97"/>
</g>
<!-- file -->
<g id="node32" class="node">
<title>file</title>
<polygon fill="#b2dfee" stroke="#b2dfee" points="149.5,-280 95.5,-280 95.5,-261 149.5,-261 149.5,-280"/>
<text text-anchor="middle" x="122.5" y="-268" font-family="Times New Roman,serif" font-size="10.00">file</text>
</g>
<!-- file&#45;&gt;joinpoint -->
<g id="edge27" class="edge">
<title>file&#45;&gt;joinpoint</title>
<path fill="none" stroke="black" d="M103.15,-280.2C98.66,-282.94 93.99,-286.11 90,-289.5 70.73,-305.89 52.47,-328.58 40.82,-344.3"/>
<polygon fill="black" stroke="black" points="37.8,-342.49 34.77,-352.64 43.47,-346.6 37.8,-342.49"/>
</g>
<!-- if -->
<g id="node33" class="node">
<title>if</title>
<polygon fill="#b2dfee" stroke="#b2dfee" points="261,-463 207,-463 207,-444 261,-444 261,-463"/>
<text text-anchor="middle" x="234" y="-451" font-family="Times New Roman,serif" font-size="10.00">if</text>
</g>
<!-- if&#45;&gt;statement -->
<g id="edge28" class="edge">
<title>if&#45;&gt;statement</title>
<path fill="none" stroke="black" d="M206.77,-450.63C192.99,-449.12 175.87,-447.24 160.75,-445.58"/>
<polygon fill="black" stroke="black" points="160.98,-442.09 150.66,-444.48 160.22,-449.04 160.98,-442.09"/>
</g>
<!-- interfaceType -->
<g id="node34" class="node">
<title>interfaceType</title>
<polygon fill="#b2dfee" stroke="#b2dfee" points="270,-130 198,-130 198,-111 270,-111 270,-130"/>
<text text-anchor="middle" x="234" y="-118" font-family="Times New Roman,serif" font-size="10.00">interfaceType</text>
</g>
<!-- interfaceType&#45;&gt;type -->
<g id="edge29" class="edge">
<title>interfaceType&#45;&gt;type</title>
<path fill="none" stroke="black" d="M202.07,-130.23C197.86,-132.68 193.97,-135.73 191,-139.5 138.57,-205.94 204.24,-257.66 155,-326.5 154.63,-327.01 154.25,-327.51 153.84,-328"/>
<polygon fill="black" stroke="black" points="151.28,-325.59 146.12,-334.85 155.93,-330.83 151.28,-325.59"/>
</g>
<!-- libClass -->
<g id="node35" class="node">
<title>libClass</title>
<polygon fill="#b2dfee" stroke="#b2dfee" points="261,-19 207,-19 207,0 261,0 261,-19"/>
<text text-anchor="middle" x="234" y="-7" font-family="Times New Roman,serif" font-size="10.00">libClass</text>
</g>
<!-- libClass&#45;&gt;NamedType -->
<g id="edge30" class="edge">
<title>libClass&#45;&gt;NamedType</title>
<path fill="none" stroke="black" d="M206.77,-12.37C194.47,-13.72 179.5,-15.36 165.67,-16.88"/>
<polygon fill="black" stroke="black" points="164.93,-13.44 155.37,-18.01 165.69,-20.4 164.93,-13.44"/>
</g>
<!-- libMethod -->
<g id="node36" class="node">
<title>libMethod</title>
<polygon fill="#b2dfee" stroke="#b2dfee" points="152,-243 93,-243 93,-224 152,-224 152,-243"/>
<text text-anchor="middle" x="122.5" y="-231" font-family="Times New Roman,serif" font-size="10.00">libMethod</text>
</g>
<!-- libMethod&#45;&gt;joinpoint -->
<g id="edge31" class="edge">
<title>libMethod&#45;&gt;joinpoint</title>
<path fill="none" stroke="black" d="M102.02,-243.1C97.75,-245.77 93.47,-248.93 90,-252.5 63.78,-279.51 44.84,-319.77 35.21,-343.36"/>
<polygon fill="black" stroke="black" points="31.86,-342.33 31.45,-352.91 38.37,-344.89 31.86,-342.33"/>
</g>
<!-- literal -->
<g id="node37" class="node">
<title>literal</title>
<polygon fill="#b2dfee" stroke="#b2dfee" points="261,-1092 207,-1092 207,-1073 261,-1073 261,-1092"/>
<text text-anchor="middle" x="234" y="-1080" font-family="Times New Roman,serif" font-size="10.00">literal</text>
</g>
<!-- literal&#45;&gt;expression -->
<g id="edge32" class="edge">
<title>literal&#45;&gt;expression</title>
<path fill="none" stroke="black" d="M206.77,-1078.19C193.41,-1075.99 176.89,-1073.28 162.11,-1070.85"/>
<polygon fill="black" stroke="black" points="162.64,-1067.39 152.21,-1069.22 161.5,-1074.29 162.64,-1067.39"/>
</g>
<!-- localVariable -->
<g id="node38" class="node">
<title>localVariable</title>
<polygon fill="#b2dfee" stroke="#b2dfee" points="268,-426 200,-426 200,-407 268,-407 268,-426"/>
<text text-anchor="middle" x="234" y="-414" font-family="Times New Roman,serif" font-size="10.00">localVariable</text>
</g>
<!-- localVariable&#45;&gt;statement -->
<g id="edge33" class="edge">
<title>localVariable&#45;&gt;statement</title>
<path fill="none" stroke="black" d="M199.85,-424.07C187.43,-426.9 173.25,-430.14 160.51,-433.05"/>
<polygon fill="black" stroke="black" points="159.62,-429.66 150.65,-435.3 161.18,-436.49 159.62,-429.66"/>
</g>
<!-- loop -->
<g id="node39" class="node">
<title>loop</title>
<polygon fill="#b2dfee" stroke="#b2dfee" points="261,-389 207,-389 207,-370 261,-370 261,-389"/>
<text text-anchor="middle" x="234" y="-377" font-family="Times New Roman,serif" font-size="10.00">loop</text>
</g>
<!-- loop&#45;&gt;statement -->
<g id="edge34" class="edge">
<title>loop&#45;&gt;statement</title>
<path fill="none" stroke="black" d="M210.04,-389.17C203.78,-392.01 197.05,-395.22 191,-398.5 175.56,-406.85 158.92,-417.44 146.03,-426.01"/>
<polygon fill="black" stroke="black" points="143.71,-423.35 137.37,-431.84 147.62,-429.16 143.71,-423.35"/>
</g>
<!-- method -->
<g id="node40" class="node">
<title>method</title>
<polygon fill="#b2dfee" stroke="#b2dfee" points="261,-796 207,-796 207,-777 261,-777 261,-796"/>
<text text-anchor="middle" x="234" y="-784" font-family="Times New Roman,serif" font-size="10.00">method</text>
</g>
<!-- method&#45;&gt;executable -->
<g id="edge35" class="edge">
<title>method&#45;&gt;executable</title>
<path fill="none" stroke="black" d="M206.77,-791.05C193.41,-793.37 176.89,-796.24 162.11,-798.8"/>
<polygon fill="black" stroke="black" points="161.46,-795.36 152.21,-800.52 162.66,-802.26 161.46,-795.36"/>
</g>
<!-- new -->
<g id="node41" class="node">
<title>new</title>
<polygon fill="#b2dfee" stroke="#b2dfee" points="261,-1055 207,-1055 207,-1036 261,-1036 261,-1055"/>
<text text-anchor="middle" x="234" y="-1043" font-family="Times New Roman,serif" font-size="10.00">new</text>
</g>
<!-- new&#45;&gt;expression -->
<g id="edge36" class="edge">
<title>new&#45;&gt;expression</title>
<path fill="none" stroke="black" d="M206.77,-1050.05C193.41,-1052.37 176.89,-1055.24 162.11,-1057.8"/>
<polygon fill="black" stroke="black" points="161.46,-1054.36 152.21,-1059.52 162.66,-1061.26 161.46,-1054.36"/>
</g>
<!-- opAssignment -->
<g id="node42" class="node">
<title>opAssignment</title>
<polygon fill="#b2dfee" stroke="#b2dfee" points="389,-722 313,-722 313,-703 389,-703 389,-722"/>
<text text-anchor="middle" x="351" y="-710" font-family="Times New Roman,serif" font-size="10.00">opAssignment</text>
</g>
<!-- opAssignment&#45;&gt;assignment -->
<g id="edge37" class="edge">
<title>opAssignment&#45;&gt;assignment</title>
<path fill="none" stroke="black" d="M312.98,-712.5C300.87,-712.5 287.37,-712.5 275.06,-712.5"/>
<polygon fill="black" stroke="black" points="275.04,-709 265.04,-712.5 275.04,-716 275.04,-709"/>
</g>
<!-- pragma -->
<g id="node43" class="node">
<title>pragma</title>
<polygon fill="#b2dfee" stroke="#b2dfee" points="378,-537 324,-537 324,-518 378,-518 378,-537"/>
<text text-anchor="middle" x="351" y="-525" font-family="Times New Roman,serif" font-size="10.00">pragma</text>
</g>
<!-- pragma&#45;&gt;comment -->
<g id="edge38" class="edge">
<title>pragma&#45;&gt;comment</title>
<path fill="none" stroke="black" d="M323.9,-527.5C308.43,-527.5 288.57,-527.5 271.56,-527.5"/>
<polygon fill="black" stroke="black" points="271.39,-524 261.39,-527.5 271.39,-531 271.39,-524"/>
</g>
<!-- reference -->
<g id="node44" class="node">
<title>reference</title>
<polygon fill="#b2dfee" stroke="#b2dfee" points="149.5,-160 95.5,-160 95.5,-141 149.5,-141 149.5,-160"/>
<text text-anchor="middle" x="122.5" y="-148" font-family="Times New Roman,serif" font-size="10.00">reference</text>
</g>
<!-- reference&#45;&gt;joinpoint -->
<g id="edge39" class="edge">
<title>reference&#45;&gt;joinpoint</title>
<path fill="none" stroke="black" d="M116.65,-160.12C110.32,-172.74 99,-195.62 90,-215.5 69.43,-260.92 47.14,-315.14 35.71,-343.34"/>
<polygon fill="black" stroke="black" points="32.39,-342.21 31.89,-352.79 38.88,-344.83 32.39,-342.21"/>
</g>
<!-- return -->
<g id="node45" class="node">
<title>return</title>
<polygon fill="#b2dfee" stroke="#b2dfee" points="261,-352 207,-352 207,-333 261,-333 261,-352"/>
<text text-anchor="middle" x="234" y="-340" font-family="Times New Roman,serif" font-size="10.00">return</text>
</g>
<!-- return&#45;&gt;statement -->
<g id="edge40" class="edge">
<title>return&#45;&gt;statement</title>
<path fill="none" stroke="black" d="M207.1,-352.03C201.52,-354.67 195.85,-357.83 191,-361.5 178.63,-370.85 152.77,-403.27 136.89,-423.86"/>
<polygon fill="black" stroke="black" points="134.07,-421.79 130.76,-431.86 139.62,-426.05 134.07,-421.79"/>
</g>
<!-- snippetExpr -->
<g id="node46" class="node">
<title>snippetExpr</title>
<polygon fill="#b2dfee" stroke="#b2dfee" points="266,-1018 202,-1018 202,-999 266,-999 266,-1018"/>
<text text-anchor="middle" x="234" y="-1006" font-family="Times New Roman,serif" font-size="10.00">snippetExpr</text>
</g>
<!-- snippetExpr&#45;&gt;expression -->
<g id="edge41" class="edge">
<title>snippetExpr&#45;&gt;expression</title>
<path fill="none" stroke="black" d="M211.05,-1018.05C204.55,-1020.98 197.44,-1024.28 191,-1027.5 176.99,-1034.49 161.67,-1042.83 149.17,-1049.82"/>
<polygon fill="black" stroke="black" points="147.23,-1046.9 140.23,-1054.86 150.66,-1053 147.23,-1046.9"/>
</g>
<!-- snippetStmt -->
<g id="node47" class="node">
<title>snippetStmt</title>
<polygon fill="#b2dfee" stroke="#b2dfee" points="266.5,-315 201.5,-315 201.5,-296 266.5,-296 266.5,-315"/>
<text text-anchor="middle" x="234" y="-303" font-family="Times New Roman,serif" font-size="10.00">snippetStmt</text>
</g>
<!-- snippetStmt&#45;&gt;statement -->
<g id="edge42" class="edge">
<title>snippetStmt&#45;&gt;statement</title>
<path fill="none" stroke="black" d="M204.6,-315.02C199.66,-317.56 194.88,-320.69 191,-324.5 164.34,-350.7 174.5,-368.61 155,-400.5 150.13,-408.47 144.01,-416.73 138.47,-423.74"/>
<polygon fill="black" stroke="black" points="135.49,-421.85 131.89,-431.82 140.92,-426.27 135.49,-421.85"/>
</g>
<!-- switch -->
<g id="node48" class="node">
<title>switch</title>
<polygon fill="#b2dfee" stroke="#b2dfee" points="261,-278 207,-278 207,-259 261,-259 261,-278"/>
<text text-anchor="middle" x="234" y="-266" font-family="Times New Roman,serif" font-size="10.00">switch</text>
</g>
<!-- switch&#45;&gt;statement -->
<g id="edge44" class="edge">
<title>switch&#45;&gt;statement</title>
<path fill="none" stroke="black" d="M206.78,-276.31C200.95,-279.07 195.26,-282.72 191,-287.5 155.96,-326.88 179.42,-353.79 155,-400.5 150.73,-408.67 144.82,-416.88 139.27,-423.78"/>
<polygon fill="black" stroke="black" points="136.34,-421.82 132.59,-431.73 141.7,-426.33 136.34,-421.82"/>
</g>
<!-- ternary -->
<g id="node49" class="node">
<title>ternary</title>
<polygon fill="#b2dfee" stroke="#b2dfee" points="261,-981 207,-981 207,-962 261,-962 261,-981"/>
<text text-anchor="middle" x="234" y="-969" font-family="Times New Roman,serif" font-size="10.00">ternary</text>
</g>
<!-- ternary&#45;&gt;expression -->
<g id="edge45" class="edge">
<title>ternary&#45;&gt;expression</title>
<path fill="none" stroke="black" d="M207.21,-981.17C201.62,-983.8 195.92,-986.93 191,-990.5 169.16,-1006.36 148.98,-1030.2 136.48,-1046.51"/>
<polygon fill="black" stroke="black" points="133.55,-1044.59 130.37,-1054.69 139.16,-1048.78 133.55,-1044.59"/>
</g>
<!-- this -->
<g id="node50" class="node">
<title>this</title>
<polygon fill="#b2dfee" stroke="#b2dfee" points="261,-944 207,-944 207,-925 261,-925 261,-944"/>
<text text-anchor="middle" x="234" y="-932" font-family="Times New Roman,serif" font-size="10.00">this</text>
</g>
<!-- this&#45;&gt;expression -->
<g id="edge46" class="edge">
<title>this&#45;&gt;expression</title>
<path fill="none" stroke="black" d="M206.66,-943.49C201.11,-946.16 195.55,-949.47 191,-953.5 161.73,-979.42 141.15,-1021.13 130.91,-1045.36"/>
<polygon fill="black" stroke="black" points="127.57,-1044.28 127.05,-1054.87 134.06,-1046.92 127.57,-1044.28"/>
</g>
<!-- throw -->
<g id="node51" class="node">
<title>throw</title>
<polygon fill="#b2dfee" stroke="#b2dfee" points="261,-241 207,-241 207,-222 261,-222 261,-241"/>
<text text-anchor="middle" x="234" y="-229" font-family="Times New Roman,serif" font-size="10.00">throw</text>
</g>
<!-- throw&#45;&gt;statement -->
<g id="edge47" class="edge">
<title>throw&#45;&gt;statement</title>
<path fill="none" stroke="black" d="M206.96,-238.89C200.99,-241.67 195.18,-245.44 191,-250.5 147.32,-303.34 184.53,-338.63 155,-400.5 151.03,-408.82 145.18,-417.06 139.59,-423.94"/>
<polygon fill="black" stroke="black" points="136.67,-421.98 132.82,-431.85 141.99,-426.53 136.67,-421.98"/>
</g>
<!-- try -->
<g id="node52" class="node">
<title>try</title>
<polygon fill="#b2dfee" stroke="#b2dfee" points="261,-204 207,-204 207,-185 261,-185 261,-204"/>
<text text-anchor="middle" x="234" y="-192" font-family="Times New Roman,serif" font-size="10.00">try</text>
</g>
<!-- try&#45;&gt;statement -->
<g id="edge48" class="edge">
<title>try&#45;&gt;statement</title>
<path fill="none" stroke="black" d="M206.8,-201.76C200.84,-204.55 195.07,-208.35 191,-213.5 138.57,-279.94 189.72,-323.31 155,-400.5 151.22,-408.9 145.41,-417.16 139.8,-424.04"/>
<polygon fill="black" stroke="black" points="136.87,-422.07 132.97,-431.92 142.17,-426.65 136.87,-422.07"/>
</g>
<!-- typeReference -->
<g id="node53" class="node">
<title>typeReference</title>
<polygon fill="#b2dfee" stroke="#b2dfee" points="271,-56 197,-56 197,-37 271,-37 271,-56"/>
<text text-anchor="middle" x="234" y="-44" font-family="Times New Roman,serif" font-size="10.00">typeReference</text>
</g>
<!-- typeReference&#45;&gt;reference -->
<g id="edge50" class="edge">
<title>typeReference&#45;&gt;reference</title>
<path fill="none" stroke="black" d="M205.24,-56.05C200.25,-58.4 195.28,-61.21 191,-64.5 166.41,-83.39 145.71,-113.2 133.95,-132.3"/>
<polygon fill="black" stroke="black" points="130.91,-130.57 128.79,-140.95 136.92,-134.16 130.91,-130.57"/>
</g>
<!-- unaryExpression -->
<g id="node54" class="node">
<title>unaryExpression</title>
<polygon fill="#b2dfee" stroke="#b2dfee" points="275.5,-907 192.5,-907 192.5,-888 275.5,-888 275.5,-907"/>
<text text-anchor="middle" x="234" y="-895" font-family="Times New Roman,serif" font-size="10.00">unaryExpression</text>
</g>
<!-- unaryExpression&#45;&gt;expression -->
<g id="edge51" class="edge">
<title>unaryExpression&#45;&gt;expression</title>
<path fill="none" stroke="black" d="M204.12,-907.2C199.34,-909.7 194.74,-912.77 191,-916.5 154.13,-953.26 135.36,-1013.83 127.74,-1044.85"/>
<polygon fill="black" stroke="black" points="124.27,-1044.31 125.42,-1054.85 131.09,-1045.89 124.27,-1044.31"/>
</g>
<!-- xmlElement -->
<g id="node55" class="node">
<title>xmlElement</title>
<polygon fill="#b2dfee" stroke="#b2dfee" points="264.5,-1314 203.5,-1314 203.5,-1295 264.5,-1295 264.5,-1314"/>
<text text-anchor="middle" x="234" y="-1302" font-family="Times New Roman,serif" font-size="10.00">xmlElement</text>
</g>
<!-- xmlElement&#45;&gt;xmlNode -->
<g id="edge53" class="edge">
<title>xmlElement&#45;&gt;xmlNode</title>
<path fill="none" stroke="black" d="M203.37,-1304.5C190.04,-1304.5 174.18,-1304.5 160.12,-1304.5"/>
<polygon fill="black" stroke="black" points="159.79,-1301 149.79,-1304.5 159.79,-1308 159.79,-1301"/>
</g>
</g>
</svg>
