<?xml version="1.0" encoding="UTF-8" standalone="no"?>
<!DOCTYPE svg PUBLIC "-//W3C//DTD SVG 1.1//EN"
 "http://www.w3.org/Graphics/SVG/1.1/DTD/svg11.dtd">
<!-- Generated by graphviz version 2.40.1 (20161225.0304)
 -->
<!-- Title: JavaWeaver_join_point_hierarchy_join_point_hierarchy Pages: 1 -->
<svg width="380pt" height="1322pt"
 viewBox="0.00 0.00 380.00 1322.00" xmlns="http://www.w3.org/2000/svg" xmlns:xlink="http://www.w3.org/1999/xlink">
<g id="graph0" class="graph" transform="scale(1 1) rotate(0) translate(4 1318)">
<title>JavaWeaver_join_point_hierarchy_join_point_hierarchy</title>
<polygon fill="#ffffff" stroke="transparent" points="-4,4 -4,-1318 376,-1318 376,4 -4,4"/>
<!-- NamedType -->
<g id="node1" class="node">
<title>NamedType</title>
<polygon fill="#b2dfee" stroke="#b2dfee" points="158,-43 91,-43 91,-24 158,-24 158,-43"/>
<text text-anchor="middle" x="124.5" y="-31" font-family="Times,serif" font-size="10.00" fill="#000000">NamedType</text>
</g>
<!-- joinpoint -->
<g id="node2" class="node">
<title>joinpoint</title>
<polygon fill="#b2dfee" stroke="#b2dfee" points="55,-366 0,-366 0,-347 55,-347 55,-366"/>
<text text-anchor="middle" x="27.5" y="-354" font-family="Times,serif" font-size="10.00" fill="#000000">joinpoint</text>
</g>
<!-- NamedType&#45;&gt;joinpoint -->
<g id="edge1" class="edge">
<title>NamedType&#45;&gt;joinpoint</title>
<path fill="none" stroke="#000000" d="M121.5232,-43.2058C115.6507,-62.3678 102.1739,-106.4183 91,-143.5 69.5183,-214.7895 44.3448,-299.6189 33.2485,-337.0781"/>
<polygon fill="#000000" stroke="#000000" points="29.8744,-336.1456 30.391,-346.7278 36.5864,-338.1331 29.8744,-336.1456"/>
</g>
<!-- androidManifest -->
<g id="node3" class="node">
<title>androidManifest</title>
<polygon fill="#b2dfee" stroke="#b2dfee" points="280,-1314 196,-1314 196,-1295 280,-1295 280,-1314"/>
<text text-anchor="middle" x="238" y="-1302" font-family="Times,serif" font-size="10.00" fill="#000000">androidManifest</text>
</g>
<!-- xmlNode -->
<g id="node4" class="node">
<title>xmlNode</title>
<polygon fill="#b2dfee" stroke="#b2dfee" points="152,-1277 97,-1277 97,-1258 152,-1258 152,-1277"/>
<text text-anchor="middle" x="124.5" y="-1265" font-family="Times,serif" font-size="10.00" fill="#000000">xmlNode</text>
</g>
<!-- androidManifest&#45;&gt;xmlNode -->
<g id="edge2" class="edge">
<title>androidManifest&#45;&gt;xmlNode</title>
<path fill="none" stroke="#000000" d="M208.7709,-1294.9716C194.4389,-1290.2995 177.0169,-1284.6201 161.7418,-1279.6405"/>
<polygon fill="#000000" stroke="#000000" points="162.6604,-1276.2587 152.068,-1276.4869 160.4907,-1282.914 162.6604,-1276.2587"/>
</g>
<!-- xmlNode&#45;&gt;joinpoint -->
<g id="edge49" class="edge">
<title>xmlNode&#45;&gt;joinpoint</title>
<path fill="none" stroke="#000000" d="M122.8273,-1257.834C117.5458,-1227.0574 100.9857,-1128.5521 91,-1046.5 58.8309,-782.1691 34.8178,-459.0851 28.9069,-376.4713"/>
<polygon fill="#000000" stroke="#000000" points="32.3808,-375.978 28.1807,-366.2513 25.3984,-376.4743 32.3808,-375.978"/>
</g>
<!-- annotation -->
<g id="node5" class="node">
<title>annotation</title>
<polygon fill="#b2dfee" stroke="#b2dfee" points="268.5,-1240 207.5,-1240 207.5,-1221 268.5,-1221 268.5,-1240"/>
<text text-anchor="middle" x="238" y="-1228" font-family="Times,serif" font-size="10.00" fill="#000000">annotation</text>
</g>
<!-- expression -->
<g id="node6" class="node">
<title>expression</title>
<polygon fill="#b2dfee" stroke="#b2dfee" points="154.5,-1037 94.5,-1037 94.5,-1018 154.5,-1018 154.5,-1037"/>
<text text-anchor="middle" x="124.5" y="-1025" font-family="Times,serif" font-size="10.00" fill="#000000">expression</text>
</g>
<!-- annotation&#45;&gt;expression -->
<g id="edge3" class="edge">
<title>annotation&#45;&gt;expression</title>
<path fill="none" stroke="#000000" d="M207.086,-1221.706C202.2709,-1219.3081 197.6806,-1216.2887 194,-1212.5 148.0689,-1165.2193 131.9347,-1084.7078 126.7428,-1047.4742"/>
<polygon fill="#000000" stroke="#000000" points="130.1945,-1046.8721 125.4619,-1037.393 123.2503,-1047.7544 130.1945,-1046.8721"/>
</g>
<!-- expression&#45;&gt;joinpoint -->
<g id="edge23" class="edge">
<title>expression&#45;&gt;joinpoint</title>
<path fill="none" stroke="#000000" d="M123.0914,-1017.7559C112.4804,-944.3544 45.1067,-478.2949 30.3527,-376.2337"/>
<polygon fill="#000000" stroke="#000000" points="33.7824,-375.4951 28.8876,-366.0987 26.8544,-376.4966 33.7824,-375.4951"/>
</g>
<!-- anonymousExec -->
<g id="node7" class="node">
<title>anonymousExec</title>
<polygon fill="#b2dfee" stroke="#b2dfee" points="280,-833 196,-833 196,-814 280,-814 280,-833"/>
<text text-anchor="middle" x="238" y="-821" font-family="Times,serif" font-size="10.00" fill="#000000">anonymousExec</text>
</g>
<!-- executable -->
<g id="node8" class="node">
<title>executable</title>
<polygon fill="#b2dfee" stroke="#b2dfee" points="155,-778 94,-778 94,-759 155,-759 155,-778"/>
<text text-anchor="middle" x="124.5" y="-766" font-family="Times,serif" font-size="10.00" fill="#000000">executable</text>
</g>
<!-- anonymousExec&#45;&gt;executable -->
<g id="edge4" class="edge">
<title>anonymousExec&#45;&gt;executable</title>
<path fill="none" stroke="#000000" d="M213.1423,-813.842C206.8429,-811.2551 200.1267,-808.3751 194,-805.5 179.2627,-798.5842 163.1961,-790.0954 150.2264,-782.994"/>
<polygon fill="#000000" stroke="#000000" points="151.8381,-779.8858 141.3931,-778.1105 148.4513,-786.0119 151.8381,-779.8858"/>
</g>
<!-- executable&#45;&gt;joinpoint -->
<g id="edge22" class="edge">
<title>executable&#45;&gt;joinpoint</title>
<path fill="none" stroke="#000000" d="M122.1979,-758.722C109.6436,-705.3986 49.3761,-449.417 32.1236,-376.1384"/>
<polygon fill="#000000" stroke="#000000" points="35.4366,-374.9371 29.7379,-366.0054 28.6228,-376.5414 35.4366,-374.9371"/>
</g>
<!-- app -->
<g id="node9" class="node">
<title>app</title>
<polygon fill="#b2dfee" stroke="#b2dfee" points="151.5,-463 97.5,-463 97.5,-444 151.5,-444 151.5,-463"/>
<text text-anchor="middle" x="124.5" y="-451" font-family="Times,serif" font-size="10.00" fill="#000000">app</text>
</g>
<!-- app&#45;&gt;joinpoint -->
<g id="edge5" class="edge">
<title>app&#45;&gt;joinpoint</title>
<path fill="none" stroke="#000000" d="M103.4767,-443.8776C99.1419,-441.4442 94.7575,-438.6227 91,-435.5 69.6471,-417.7543 50.4936,-391.8737 38.9397,-374.6268"/>
<polygon fill="#000000" stroke="#000000" points="41.7328,-372.5023 33.337,-366.0399 35.8703,-376.3274 41.7328,-372.5023"/>
</g>
<!-- argument -->
<g id="node10" class="node">
<title>argument</title>
<polygon fill="#b2dfee" stroke="#b2dfee" points="265.5,-1203 210.5,-1203 210.5,-1184 265.5,-1184 265.5,-1203"/>
<text text-anchor="middle" x="238" y="-1191" font-family="Times,serif" font-size="10.00" fill="#000000">argument</text>
</g>
<!-- argument&#45;&gt;expression -->
<g id="edge6" class="edge">
<title>argument&#45;&gt;expression</title>
<path fill="none" stroke="#000000" d="M210.0743,-1185.7268C204.2713,-1183.1635 198.5464,-1179.8215 194,-1175.5 156.0686,-1139.4449 136.7259,-1078.5643 128.8705,-1047.3134"/>
<polygon fill="#000000" stroke="#000000" points="132.1952,-1046.1645 126.483,-1037.2414 125.3839,-1047.7791 132.1952,-1046.1645"/>
</g>
<!-- arrayAccess -->
<g id="node11" class="node">
<title>arrayAccess</title>
<polygon fill="#b2dfee" stroke="#b2dfee" points="270.5,-1166 205.5,-1166 205.5,-1147 270.5,-1147 270.5,-1166"/>
<text text-anchor="middle" x="238" y="-1154" font-family="Times,serif" font-size="10.00" fill="#000000">arrayAccess</text>
</g>
<!-- arrayAccess&#45;&gt;expression -->
<g id="edge7" class="edge">
<title>arrayAccess&#45;&gt;expression</title>
<path fill="none" stroke="#000000" d="M207.236,-1146.8344C202.5134,-1144.5512 197.9143,-1141.7959 194,-1138.5 163.7161,-1112.9998 142.4755,-1070.8359 131.9867,-1046.4742"/>
<polygon fill="#000000" stroke="#000000" points="135.2155,-1045.123 128.1547,-1037.2239 128.7484,-1047.802 135.2155,-1045.123"/>
</g>
<!-- assert -->
<g id="node12" class="node">
<title>assert</title>
<polygon fill="#b2dfee" stroke="#b2dfee" points="265,-722 211,-722 211,-703 265,-703 265,-722"/>
<text text-anchor="middle" x="238" y="-710" font-family="Times,serif" font-size="10.00" fill="#000000">assert</text>
</g>
<!-- statement -->
<g id="node13" class="node">
<title>statement</title>
<polygon fill="#b2dfee" stroke="#b2dfee" points="152.5,-426 96.5,-426 96.5,-407 152.5,-407 152.5,-426"/>
<text text-anchor="middle" x="124.5" y="-414" font-family="Times,serif" font-size="10.00" fill="#000000">statement</text>
</g>
<!-- assert&#45;&gt;statement -->
<g id="edge8" class="edge">
<title>assert&#45;&gt;statement</title>
<path fill="none" stroke="#000000" d="M210.8617,-706.4575C204.4513,-703.7959 198.2523,-699.9756 194,-694.5 122.7179,-602.7099 223.2845,-531.6483 158,-435.5 157.3615,-434.5596 156.66,-433.6604 155.9069,-432.8009"/>
<polygon fill="#000000" stroke="#000000" points="157.9178,-429.9166 148.0325,-426.1046 153.3831,-435.2491 157.9178,-429.9166"/>
</g>
<!-- statement&#45;&gt;joinpoint -->
<g id="edge38" class="edge">
<title>statement&#45;&gt;joinpoint</title>
<path fill="none" stroke="#000000" d="M108.9153,-406.86C93.5009,-397.3253 69.6878,-382.5955 51.7903,-371.5249"/>
<polygon fill="#000000" stroke="#000000" points="53.3918,-368.4001 43.0461,-366.1161 49.7094,-374.3533 53.3918,-368.4001"/>
</g>
<!-- assignment -->
<g id="node14" class="node">
<title>assignment</title>
<polygon fill="#b2dfee" stroke="#b2dfee" points="269,-685 207,-685 207,-666 269,-666 269,-685"/>
<text text-anchor="middle" x="238" y="-673" font-family="Times,serif" font-size="10.00" fill="#000000">assignment</text>
</g>
<!-- assignment&#45;&gt;statement -->
<g id="edge9" class="edge">
<title>assignment&#45;&gt;statement</title>
<path fill="none" stroke="#000000" d="M206.8671,-667.519C201.9559,-665.026 197.3896,-661.7642 194,-657.5 131.8022,-579.2533 215.0823,-517.5532 158,-435.5 157.3509,-434.5669 156.6402,-433.674 155.8791,-432.8199"/>
<polygon fill="#000000" stroke="#000000" points="157.8667,-429.9179 147.9638,-426.1518 153.3567,-435.2714 157.8667,-429.9179"/>
</g>
<!-- binaryExpression -->
<g id="node15" class="node">
<title>binaryExpression</title>
<polygon fill="#b2dfee" stroke="#b2dfee" points="282,-1129 194,-1129 194,-1110 282,-1110 282,-1129"/>
<text text-anchor="middle" x="238" y="-1117" font-family="Times,serif" font-size="10.00" fill="#000000">binaryExpression</text>
</g>
<!-- binaryExpression&#45;&gt;expression -->
<g id="edge10" class="edge">
<title>binaryExpression&#45;&gt;expression</title>
<path fill="none" stroke="#000000" d="M209.6086,-1109.9868C204.2067,-1107.6037 198.76,-1104.7742 194,-1101.5 171.4558,-1085.9927 150.6948,-1062.0786 137.8454,-1045.6575"/>
<polygon fill="#000000" stroke="#000000" points="140.4039,-1043.2402 131.5597,-1037.4065 134.8356,-1047.4822 140.4039,-1043.2402"/>
</g>
<!-- body -->
<g id="node16" class="node">
<title>body</title>
<polygon fill="#b2dfee" stroke="#b2dfee" points="265,-648 211,-648 211,-629 265,-629 265,-648"/>
<text text-anchor="middle" x="238" y="-636" font-family="Times,serif" font-size="10.00" fill="#000000">body</text>
</g>
<!-- body&#45;&gt;statement -->
<g id="edge11" class="edge">
<title>body&#45;&gt;statement</title>
<path fill="none" stroke="#000000" d="M210.6024,-632.1072C204.3516,-629.4578 198.294,-625.7311 194,-620.5 140.8531,-555.7551 206.9106,-503.5018 158,-435.5 157.3363,-434.5772 156.613,-433.6932 155.841,-432.8469"/>
<polygon fill="#000000" stroke="#000000" points="157.7963,-429.9209 147.8694,-426.2186 153.3209,-435.3033 157.7963,-429.9209"/>
</g>
<!-- break -->
<g id="node17" class="node">
<title>break</title>
<polygon fill="#b2dfee" stroke="#b2dfee" points="265,-611 211,-611 211,-592 265,-592 265,-611"/>
<text text-anchor="middle" x="238" y="-599" font-family="Times,serif" font-size="10.00" fill="#000000">break</text>
</g>
<!-- break&#45;&gt;statement -->
<g id="edge12" class="edge">
<title>break&#45;&gt;statement</title>
<path fill="none" stroke="#000000" d="M210.769,-594.9671C204.515,-592.3204 198.4142,-588.63 194,-583.5 149.8457,-532.1861 198.7927,-489.5248 158,-435.5 157.2068,-434.4495 156.3374,-433.4482 155.4084,-432.4947"/>
<polygon fill="#000000" stroke="#000000" points="157.3897,-429.5981 147.3891,-426.0997 153.0253,-435.071 157.3897,-429.5981"/>
</g>
<!-- call -->
<g id="node18" class="node">
<title>call</title>
<polygon fill="#b2dfee" stroke="#b2dfee" points="265,-1092 211,-1092 211,-1073 265,-1073 265,-1092"/>
<text text-anchor="middle" x="238" y="-1080" font-family="Times,serif" font-size="10.00" fill="#000000">call</text>
</g>
<!-- call&#45;&gt;expression -->
<g id="edge13" class="edge">
<title>call&#45;&gt;expression</title>
<path fill="none" stroke="#000000" d="M213.1423,-1072.842C206.8429,-1070.2551 200.1267,-1067.3751 194,-1064.5 179.2627,-1057.5842 163.1961,-1049.0954 150.2264,-1041.994"/>
<polygon fill="#000000" stroke="#000000" points="151.8381,-1038.8858 141.3931,-1037.1105 148.4513,-1045.0119 151.8381,-1038.8858"/>
</g>
<!-- callStatement -->
<g id="node19" class="node">
<title>callStatement</title>
<polygon fill="#b2dfee" stroke="#b2dfee" points="274,-574 202,-574 202,-555 274,-555 274,-574"/>
<text text-anchor="middle" x="238" y="-562" font-family="Times,serif" font-size="10.00" fill="#000000">callStatement</text>
</g>
<!-- callStatement&#45;&gt;statement -->
<g id="edge14" class="edge">
<title>callStatement&#45;&gt;statement</title>
<path fill="none" stroke="#000000" d="M205.1518,-554.9106C201.0177,-552.655 197.1439,-549.8879 194,-546.5 158.7222,-508.4835 190.7821,-475.6885 158,-435.5 157.0491,-434.3342 156.0065,-433.2266 154.8958,-432.1759"/>
<polygon fill="#000000" stroke="#000000" points="156.9077,-429.3091 146.8249,-426.0551 152.6778,-434.8866 156.9077,-429.3091"/>
</g>
<!-- case -->
<g id="node20" class="node">
<title>case</title>
<polygon fill="#b2dfee" stroke="#b2dfee" points="265,-537 211,-537 211,-518 265,-518 265,-537"/>
<text text-anchor="middle" x="238" y="-525" font-family="Times,serif" font-size="10.00" fill="#000000">case</text>
</g>
<!-- case&#45;&gt;statement -->
<g id="edge15" class="edge">
<title>case&#45;&gt;statement</title>
<path fill="none" stroke="#000000" d="M210.5766,-519.8809C204.6157,-517.294 198.6964,-513.903 194,-509.5 167.3181,-484.4849 183.0326,-462.1655 158,-435.5 156.9417,-434.3727 155.8013,-433.294 154.6022,-432.2644"/>
<polygon fill="#000000" stroke="#000000" points="156.2585,-429.1465 146.0859,-426.1852 152.1915,-434.8439 156.2585,-429.1465"/>
</g>
<!-- class -->
<g id="node21" class="node">
<title>class</title>
<polygon fill="#b2dfee" stroke="#b2dfee" points="265,-167 211,-167 211,-148 265,-148 265,-167"/>
<text text-anchor="middle" x="238" y="-155" font-family="Times,serif" font-size="10.00" fill="#000000">class</text>
</g>
<!-- type -->
<g id="node22" class="node">
<title>type</title>
<polygon fill="#b2dfee" stroke="#b2dfee" points="151.5,-366 97.5,-366 97.5,-347 151.5,-347 151.5,-366"/>
<text text-anchor="middle" x="124.5" y="-354" font-family="Times,serif" font-size="10.00" fill="#000000">type</text>
</g>
<!-- class&#45;&gt;type -->
<g id="edge16" class="edge">
<title>class&#45;&gt;type</title>
<path fill="none" stroke="#000000" d="M210.677,-164.6132C204.4248,-167.4028 198.3479,-171.2418 194,-176.5 146.9992,-233.3412 202.531,-279.7038 158,-338.5 157.4419,-339.2368 156.8447,-339.9469 156.2143,-340.631"/>
<polygon fill="#000000" stroke="#000000" points="153.9686,-337.9462 148.4605,-346.9967 158.4103,-343.3565 153.9686,-337.9462"/>
</g>
<!-- type&#45;&gt;joinpoint -->
<g id="edge44" class="edge">
<title>type&#45;&gt;joinpoint</title>
<path fill="none" stroke="#000000" d="M97.4801,-356.5C87.4545,-356.5 75.8944,-356.5 65.095,-356.5"/>
<polygon fill="#000000" stroke="#000000" points="65.049,-353.0001 55.049,-356.5 65.049,-360.0001 65.049,-353.0001"/>
</g>
<!-- comment -->
<g id="node23" class="node">
<title>comment</title>
<polygon fill="#b2dfee" stroke="#b2dfee" points="265,-500 211,-500 211,-481 265,-481 265,-500"/>
<text text-anchor="middle" x="238" y="-488" font-family="Times,serif" font-size="10.00" fill="#000000">comment</text>
</g>
<!-- comment&#45;&gt;statement -->
<g id="edge17" class="edge">
<title>comment&#45;&gt;statement</title>
<path fill="none" stroke="#000000" d="M210.5801,-481.3234C204.8745,-478.8622 199.0623,-475.9168 194,-472.5 174.9825,-459.6644 176.1604,-449.5221 158,-435.5 156.194,-434.1055 154.2742,-432.7452 152.3031,-431.4348"/>
<polygon fill="#000000" stroke="#000000" points="153.8815,-428.2972 143.5262,-426.057 150.2244,-434.2659 153.8815,-428.2972"/>
</g>
<!-- constructor -->
<g id="node24" class="node">
<title>constructor</title>
<polygon fill="#b2dfee" stroke="#b2dfee" points="269,-796 207,-796 207,-777 269,-777 269,-796"/>
<text text-anchor="middle" x="238" y="-784" font-family="Times,serif" font-size="10.00" fill="#000000">constructor</text>
</g>
<!-- constructor&#45;&gt;executable -->
<g id="edge18" class="edge">
<title>constructor&#45;&gt;executable</title>
<path fill="none" stroke="#000000" d="M206.9856,-781.5814C194.1191,-779.5409 179.0133,-777.1453 165.2691,-774.9656"/>
<polygon fill="#000000" stroke="#000000" points="165.5087,-771.4599 155.0839,-773.3503 164.4122,-778.3735 165.5087,-771.4599"/>
</g>
<!-- continue -->
<g id="node25" class="node">
<title>continue</title>
<polygon fill="#b2dfee" stroke="#b2dfee" points="265,-463 211,-463 211,-444 265,-444 265,-463"/>
<text text-anchor="middle" x="238" y="-451" font-family="Times,serif" font-size="10.00" fill="#000000">continue</text>
</g>
<!-- continue&#45;&gt;statement -->
<g id="edge19" class="edge">
<title>continue&#45;&gt;statement</title>
<path fill="none" stroke="#000000" d="M210.8139,-444.6376C196.2588,-439.8927 178.104,-433.9744 162.205,-428.7915"/>
<polygon fill="#000000" stroke="#000000" points="163.242,-425.4483 152.6496,-425.6765 161.0723,-432.1036 163.242,-425.4483"/>
</g>
<!-- declaration -->
<g id="node26" class="node">
<title>declaration</title>
<polygon fill="#b2dfee" stroke="#b2dfee" points="155.5,-329 93.5,-329 93.5,-310 155.5,-310 155.5,-329"/>
<text text-anchor="middle" x="124.5" y="-317" font-family="Times,serif" font-size="10.00" fill="#000000">declaration</text>
</g>
<!-- declaration&#45;&gt;joinpoint -->
<g id="edge20" class="edge">
<title>declaration&#45;&gt;joinpoint</title>
<path fill="none" stroke="#000000" d="M99.5201,-329.0284C88.1811,-333.3536 74.579,-338.542 62.2645,-343.2393"/>
<polygon fill="#000000" stroke="#000000" points="60.8283,-340.0411 52.7324,-346.8753 63.3232,-346.5814 60.8283,-340.0411"/>
</g>
<!-- enum -->
<g id="node27" class="node">
<title>enum</title>
<polygon fill="#b2dfee" stroke="#b2dfee" points="372,-167 318,-167 318,-148 372,-148 372,-167"/>
<text text-anchor="middle" x="345" y="-155" font-family="Times,serif" font-size="10.00" fill="#000000">enum</text>
</g>
<!-- enum&#45;&gt;class -->
<g id="edge21" class="edge">
<title>enum&#45;&gt;class</title>
<path fill="none" stroke="#000000" d="M317.9994,-157.5C305.1724,-157.5 289.6266,-157.5 275.6628,-157.5"/>
<polygon fill="#000000" stroke="#000000" points="275.3642,-154.0001 265.3642,-157.5 275.3641,-161.0001 275.3642,-154.0001"/>
</g>
<!-- field -->
<g id="node28" class="node">
<title>field</title>
<polygon fill="#b2dfee" stroke="#b2dfee" points="265,-93 211,-93 211,-74 265,-74 265,-93"/>
<text text-anchor="middle" x="238" y="-81" font-family="Times,serif" font-size="10.00" fill="#000000">field</text>
</g>
<!-- field&#45;&gt;declaration -->
<g id="edge24" class="edge">
<title>field&#45;&gt;declaration</title>
<path fill="none" stroke="#000000" d="M210.5511,-89.851C204.3013,-92.5012 198.257,-96.2388 194,-101.5 137.189,-171.7122 211.0581,-228.4105 158,-301.5 157.5491,-302.1211 157.0701,-302.7229 156.5664,-303.306"/>
<polygon fill="#000000" stroke="#000000" points="154.2302,-300.6986 148.914,-309.8631 158.7849,-306.0141 154.2302,-300.6986"/>
</g>
<!-- file -->
<g id="node29" class="node">
<title>file</title>
<polygon fill="#b2dfee" stroke="#b2dfee" points="151.5,-292 97.5,-292 97.5,-273 151.5,-273 151.5,-292"/>
<text text-anchor="middle" x="124.5" y="-280" font-family="Times,serif" font-size="10.00" fill="#000000">file</text>
</g>
<!-- file&#45;&gt;joinpoint -->
<g id="edge25" class="edge">
<title>file&#45;&gt;joinpoint</title>
<path fill="none" stroke="#000000" d="M106.0157,-292.1198C101.0189,-294.9504 95.6971,-298.183 91,-301.5 74.3862,-313.2322 57.0298,-328.5032 44.6697,-339.9761"/>
<polygon fill="#000000" stroke="#000000" points="42.2071,-337.4875 37.327,-346.8916 47.0063,-342.5833 42.2071,-337.4875"/>
</g>
<!-- if -->
<g id="node30" class="node">
<title>if</title>
<polygon fill="#b2dfee" stroke="#b2dfee" points="265,-426 211,-426 211,-407 265,-407 265,-426"/>
<text text-anchor="middle" x="238" y="-414" font-family="Times,serif" font-size="10.00" fill="#000000">if</text>
</g>
<!-- if&#45;&gt;statement -->
<g id="edge26" class="edge">
<title>if&#45;&gt;statement</title>
<path fill="none" stroke="#000000" d="M210.8139,-416.5C196.3961,-416.5 178.4462,-416.5 162.6556,-416.5"/>
<polygon fill="#000000" stroke="#000000" points="162.6496,-413.0001 152.6496,-416.5 162.6495,-420.0001 162.6496,-413.0001"/>
</g>
<!-- interface -->
<g id="node31" class="node">
<title>interface</title>
<polygon fill="#b2dfee" stroke="#b2dfee" points="265,-130 211,-130 211,-111 265,-111 265,-130"/>
<text text-anchor="middle" x="238" y="-118" font-family="Times,serif" font-size="10.00" fill="#000000">interface</text>
</g>
<!-- interface&#45;&gt;type -->
<g id="edge27" class="edge">
<title>interface&#45;&gt;type</title>
<path fill="none" stroke="#000000" d="M210.5511,-126.851C204.3013,-129.5012 198.257,-133.2388 194,-138.5 137.189,-208.7122 211.0581,-265.4105 158,-338.5 157.5491,-339.1211 157.0701,-339.7229 156.5664,-340.306"/>
<polygon fill="#000000" stroke="#000000" points="154.2302,-337.6986 148.914,-346.8631 158.7849,-343.0141 154.2302,-337.6986"/>
</g>
<!-- libClass -->
<g id="node32" class="node">
<title>libClass</title>
<polygon fill="#b2dfee" stroke="#b2dfee" points="265,-19 211,-19 211,0 265,0 265,-19"/>
<text text-anchor="middle" x="238" y="-7" font-family="Times,serif" font-size="10.00" fill="#000000">libClass</text>
</g>
<!-- libClass&#45;&gt;NamedType -->
<g id="edge28" class="edge">
<title>libClass&#45;&gt;NamedType</title>
<path fill="none" stroke="#000000" d="M210.8139,-15.2486C198.1484,-17.9268 182.7571,-21.1813 168.4984,-24.1964"/>
<polygon fill="#000000" stroke="#000000" points="167.4308,-20.8447 158.3712,-26.3378 168.879,-27.6932 167.4308,-20.8447"/>
</g>
<!-- libMethod -->
<g id="node33" class="node">
<title>libMethod</title>
<polygon fill="#b2dfee" stroke="#b2dfee" points="154.5,-255 94.5,-255 94.5,-236 154.5,-236 154.5,-255"/>
<text text-anchor="middle" x="124.5" y="-243" font-family="Times,serif" font-size="10.00" fill="#000000">libMethod</text>
</g>
<!-- libMethod&#45;&gt;joinpoint -->
<g id="edge29" class="edge">
<title>libMethod&#45;&gt;joinpoint</title>
<path fill="none" stroke="#000000" d="M104.014,-255.1756C99.4594,-257.8389 94.8468,-260.9784 91,-264.5 67.488,-286.0245 48.0067,-317.8008 37.0627,-337.813"/>
<polygon fill="#000000" stroke="#000000" points="33.8667,-336.3691 32.2686,-346.8427 40.0493,-339.6517 33.8667,-336.3691"/>
</g>
<!-- literal -->
<g id="node34" class="node">
<title>literal</title>
<polygon fill="#b2dfee" stroke="#b2dfee" points="265,-1055 211,-1055 211,-1036 265,-1036 265,-1055"/>
<text text-anchor="middle" x="238" y="-1043" font-family="Times,serif" font-size="10.00" fill="#000000">literal</text>
</g>
<!-- literal&#45;&gt;expression -->
<g id="edge30" class="edge">
<title>literal&#45;&gt;expression</title>
<path fill="none" stroke="#000000" d="M210.8139,-1041.1886C197.0663,-1039.0083 180.1073,-1036.3188 164.871,-1033.9024"/>
<polygon fill="#000000" stroke="#000000" points="165.0834,-1030.3925 154.6586,-1032.2829 163.9869,-1037.3061 165.0834,-1030.3925"/>
</g>
<!-- localVariable -->
<g id="node35" class="node">
<title>localVariable</title>
<polygon fill="#b2dfee" stroke="#b2dfee" points="274,-389 202,-389 202,-370 274,-370 274,-389"/>
<text text-anchor="middle" x="238" y="-377" font-family="Times,serif" font-size="10.00" fill="#000000">localVariable</text>
</g>
<!-- localVariable&#45;&gt;statement -->
<g id="edge31" class="edge">
<title>localVariable&#45;&gt;statement</title>
<path fill="none" stroke="#000000" d="M208.7709,-389.0284C194.6544,-393.6303 177.5402,-399.2094 162.4324,-404.1344"/>
<polygon fill="#000000" stroke="#000000" points="161.2685,-400.8324 152.8458,-407.2595 163.4382,-407.4877 161.2685,-400.8324"/>
</g>
<!-- loop -->
<g id="node36" class="node">
<title>loop</title>
<polygon fill="#b2dfee" stroke="#b2dfee" points="265,-352 211,-352 211,-333 265,-333 265,-352"/>
<text text-anchor="middle" x="238" y="-340" font-family="Times,serif" font-size="10.00" fill="#000000">loop</text>
</g>
<!-- loop&#45;&gt;statement -->
<g id="edge32" class="edge">
<title>loop&#45;&gt;statement</title>
<path fill="none" stroke="#000000" d="M212.7688,-352.0507C206.4765,-354.7936 199.8572,-358.0006 194,-361.5 175.4039,-372.6102 156.2427,-388.1339 142.7617,-399.8569"/>
<polygon fill="#000000" stroke="#000000" points="140.3232,-397.3412 135.1577,-406.5916 144.9643,-402.5815 140.3232,-397.3412"/>
</g>
<!-- method -->
<g id="node37" class="node">
<title>method</title>
<polygon fill="#b2dfee" stroke="#b2dfee" points="265,-759 211,-759 211,-740 265,-740 265,-759"/>
<text text-anchor="middle" x="238" y="-747" font-family="Times,serif" font-size="10.00" fill="#000000">method</text>
</g>
<!-- method&#45;&gt;executable -->
<g id="edge33" class="edge">
<title>method&#45;&gt;executable</title>
<path fill="none" stroke="#000000" d="M210.8139,-754.051C197.1729,-756.3345 180.37,-759.1473 165.2256,-761.6825"/>
<polygon fill="#000000" stroke="#000000" points="164.3501,-758.2803 155.0652,-763.3834 165.5059,-765.1842 164.3501,-758.2803"/>
</g>
<!-- new -->
<g id="node38" class="node">
<title>new</title>
<polygon fill="#b2dfee" stroke="#b2dfee" points="265,-1018 211,-1018 211,-999 265,-999 265,-1018"/>
<text text-anchor="middle" x="238" y="-1006" font-family="Times,serif" font-size="10.00" fill="#000000">new</text>
</g>
<!-- new&#45;&gt;expression -->
<g id="edge34" class="edge">
<title>new&#45;&gt;expression</title>
<path fill="none" stroke="#000000" d="M210.8139,-1013.051C197.0663,-1015.3523 180.1073,-1018.1913 164.871,-1020.7419"/>
<polygon fill="#000000" stroke="#000000" points="163.9435,-1017.3483 154.6586,-1022.4514 165.0993,-1024.2523 163.9435,-1017.3483"/>
</g>
<!-- pragma -->
<g id="node39" class="node">
<title>pragma</title>
<polygon fill="#b2dfee" stroke="#b2dfee" points="372,-500 318,-500 318,-481 372,-481 372,-500"/>
<text text-anchor="middle" x="345" y="-488" font-family="Times,serif" font-size="10.00" fill="#000000">pragma</text>
</g>
<!-- pragma&#45;&gt;comment -->
<g id="edge35" class="edge">
<title>pragma&#45;&gt;comment</title>
<path fill="none" stroke="#000000" d="M317.9994,-490.5C305.1724,-490.5 289.6266,-490.5 275.6628,-490.5"/>
<polygon fill="#000000" stroke="#000000" points="275.3642,-487.0001 265.3642,-490.5 275.3641,-494.0001 275.3642,-487.0001"/>
</g>
<!-- reference -->
<g id="node40" class="node">
<title>reference</title>
<polygon fill="#b2dfee" stroke="#b2dfee" points="151.5,-172 97.5,-172 97.5,-153 151.5,-153 151.5,-172"/>
<text text-anchor="middle" x="124.5" y="-160" font-family="Times,serif" font-size="10.00" fill="#000000">reference</text>
</g>
<!-- reference&#45;&gt;joinpoint -->
<g id="edge36" class="edge">
<title>reference&#45;&gt;joinpoint</title>
<path fill="none" stroke="#000000" d="M119.4496,-172.1624C112.8428,-184.8334 100.9382,-207.7721 91,-227.5 71.3577,-266.4913 48.9146,-312.4184 36.6665,-337.6038"/>
<polygon fill="#000000" stroke="#000000" points="33.4399,-336.2359 32.2185,-346.7601 39.7363,-339.2946 33.4399,-336.2359"/>
</g>
<!-- return -->
<g id="node41" class="node">
<title>return</title>
<polygon fill="#b2dfee" stroke="#b2dfee" points="265,-315 211,-315 211,-296 265,-296 265,-315"/>
<text text-anchor="middle" x="238" y="-303" font-family="Times,serif" font-size="10.00" fill="#000000">return</text>
</g>
<!-- return&#45;&gt;statement -->
<g id="edge37" class="edge">
<title>return&#45;&gt;statement</title>
<path fill="none" stroke="#000000" d="M210.613,-314.5594C204.7821,-317.2208 198.9096,-320.5144 194,-324.5 172.4592,-341.9864 174.7878,-353.4105 158,-375.5 152.0036,-383.3901 145.1163,-391.9063 139.152,-399.1218"/>
<polygon fill="#000000" stroke="#000000" points="136.3995,-396.9576 132.6831,-406.8793 141.7756,-401.4407 136.3995,-396.9576"/>
</g>
<!-- switch -->
<g id="node42" class="node">
<title>switch</title>
<polygon fill="#b2dfee" stroke="#b2dfee" points="265,-278 211,-278 211,-259 265,-259 265,-278"/>
<text text-anchor="middle" x="238" y="-266" font-family="Times,serif" font-size="10.00" fill="#000000">switch</text>
</g>
<!-- switch&#45;&gt;statement -->
<g id="edge39" class="edge">
<title>switch&#45;&gt;statement</title>
<path fill="none" stroke="#000000" d="M210.8145,-276.3549C204.706,-279.1104 198.6612,-282.7479 194,-287.5 164.4095,-317.6676 179.606,-339.1839 158,-375.5 153.0681,-383.7897 146.5506,-392.1724 140.576,-399.179"/>
<polygon fill="#000000" stroke="#000000" points="137.9419,-396.8743 133.9394,-406.684 143.1858,-401.5114 137.9419,-396.8743"/>
</g>
<!-- ternary -->
<g id="node43" class="node">
<title>ternary</title>
<polygon fill="#b2dfee" stroke="#b2dfee" points="265,-981 211,-981 211,-962 265,-962 265,-981"/>
<text text-anchor="middle" x="238" y="-969" font-family="Times,serif" font-size="10.00" fill="#000000">ternary</text>
</g>
<!-- ternary&#45;&gt;expression -->
<g id="edge40" class="edge">
<title>ternary&#45;&gt;expression</title>
<path fill="none" stroke="#000000" d="M215.0032,-981.0108C208.1898,-983.9412 200.7482,-987.2534 194,-990.5 179.3302,-997.5578 163.2682,-1006.0564 150.2843,-1013.1279"/>
<polygon fill="#000000" stroke="#000000" points="148.5199,-1010.1037 141.4379,-1017.9837 151.8882,-1016.24 148.5199,-1010.1037"/>
</g>
<!-- this -->
<g id="node44" class="node">
<title>this</title>
<polygon fill="#b2dfee" stroke="#b2dfee" points="265,-944 211,-944 211,-925 265,-925 265,-944"/>
<text text-anchor="middle" x="238" y="-932" font-family="Times,serif" font-size="10.00" fill="#000000">this</text>
</g>
<!-- this&#45;&gt;expression -->
<g id="edge41" class="edge">
<title>this&#45;&gt;expression</title>
<path fill="none" stroke="#000000" d="M211.007,-944.0808C205.1557,-946.7152 199.1753,-949.866 194,-953.5 171.6066,-969.2243 150.8135,-993.0921 137.9155,-1009.4433"/>
<polygon fill="#000000" stroke="#000000" points="134.9228,-1007.5935 131.6021,-1017.6545 140.4722,-1011.8602 134.9228,-1007.5935"/>
</g>
<!-- throw -->
<g id="node45" class="node">
<title>throw</title>
<polygon fill="#b2dfee" stroke="#b2dfee" points="265,-241 211,-241 211,-222 265,-222 265,-241"/>
<text text-anchor="middle" x="238" y="-229" font-family="Times,serif" font-size="10.00" fill="#000000">throw</text>
</g>
<!-- throw&#45;&gt;statement -->
<g id="edge42" class="edge">
<title>throw&#45;&gt;statement</title>
<path fill="none" stroke="#000000" d="M210.8991,-238.8026C204.6426,-241.5886 198.5081,-245.3785 194,-250.5 155.8009,-293.8964 184.8375,-324.2929 158,-375.5 153.5223,-384.0436 147.0866,-392.4721 141.0505,-399.4443"/>
<polygon fill="#000000" stroke="#000000" points="138.4276,-397.1264 134.2895,-406.8797 143.6066,-401.8357 138.4276,-397.1264"/>
</g>
<!-- try -->
<g id="node46" class="node">
<title>try</title>
<polygon fill="#b2dfee" stroke="#b2dfee" points="265,-204 211,-204 211,-185 265,-185 265,-204"/>
<text text-anchor="middle" x="238" y="-192" font-family="Times,serif" font-size="10.00" fill="#000000">try</text>
</g>
<!-- try&#45;&gt;statement -->
<g id="edge43" class="edge">
<title>try&#45;&gt;statement</title>
<path fill="none" stroke="#000000" d="M210.677,-201.6132C204.4248,-204.4028 198.3479,-208.2418 194,-213.5 146.9992,-270.3412 190.2054,-309.1463 158,-375.5 153.7882,-384.1777 147.4004,-392.6304 141.3282,-399.5844"/>
<polygon fill="#000000" stroke="#000000" points="138.7084,-397.2623 134.4943,-406.9831 143.8506,-402.012 138.7084,-397.2623"/>
</g>
<!-- typeReference -->
<g id="node47" class="node">
<title>typeReference</title>
<polygon fill="#b2dfee" stroke="#b2dfee" points="275.5,-56 200.5,-56 200.5,-37 275.5,-37 275.5,-56"/>
<text text-anchor="middle" x="238" y="-44" font-family="Times,serif" font-size="10.00" fill="#000000">typeReference</text>
</g>
<!-- typeReference&#45;&gt;reference -->
<g id="edge45" class="edge">
<title>typeReference&#45;&gt;reference</title>
<path fill="none" stroke="#000000" d="M207.8555,-56.1444C202.9549,-58.4478 198.1366,-61.2152 194,-64.5 166.5026,-86.3353 145.1162,-121.8298 133.694,-143.5778"/>
<polygon fill="#000000" stroke="#000000" points="130.435,-142.2658 129.0322,-152.7673 136.6777,-145.4327 130.435,-142.2658"/>
</g>
<!-- unaryExpression -->
<g id="node48" class="node">
<title>unaryExpression</title>
<polygon fill="#b2dfee" stroke="#b2dfee" points="280.5,-907 195.5,-907 195.5,-888 280.5,-888 280.5,-907"/>
<text text-anchor="middle" x="238" y="-895" font-family="Times,serif" font-size="10.00" fill="#000000">unaryExpression</text>
</g>
<!-- unaryExpression&#45;&gt;expression -->
<g id="edge46" class="edge">
<title>unaryExpression&#45;&gt;expression</title>
<path fill="none" stroke="#000000" d="M209.0684,-907.006C203.711,-909.5656 198.4189,-912.7056 194,-916.5 164.0978,-942.1763 142.8245,-983.9752 132.2049,-1008.2892"/>
<polygon fill="#000000" stroke="#000000" points="128.8449,-1007.2506 128.1968,-1017.8257 135.2981,-1009.9629 128.8449,-1007.2506"/>
</g>
<!-- var -->
<g id="node49" class="node">
<title>var</title>
<polygon fill="#b2dfee" stroke="#b2dfee" points="265,-870 211,-870 211,-851 265,-851 265,-870"/>
<text text-anchor="middle" x="238" y="-858" font-family="Times,serif" font-size="10.00" fill="#000000">var</text>
</g>
<!-- var&#45;&gt;expression -->
<g id="edge47" class="edge">
<title>var&#45;&gt;expression</title>
<path fill="none" stroke="#000000" d="M210.9832,-868.5246C204.8696,-871.275 198.7802,-874.8676 194,-879.5 156.4185,-915.9196 136.9217,-976.6398 128.9527,-1007.7722"/>
<polygon fill="#000000" stroke="#000000" points="125.4755,-1007.261 126.5261,-1017.8036 132.2793,-1008.9068 125.4755,-1007.261"/>
</g>
<!-- xmlElement -->
<g id="node50" class="node">
<title>xmlElement</title>
<polygon fill="#b2dfee" stroke="#b2dfee" points="271,-1277 205,-1277 205,-1258 271,-1258 271,-1277"/>
<text text-anchor="middle" x="238" y="-1265" font-family="Times,serif" font-size="10.00" fill="#000000">xmlElement</text>
</g>
<!-- xmlElement&#45;&gt;xmlNode -->
<g id="edge48" class="edge">
<title>xmlElement&#45;&gt;xmlNode</title>
<path fill="none" stroke="#000000" d="M204.866,-1267.5C191.5179,-1267.5 176.0483,-1267.5 162.2667,-1267.5"/>
<polygon fill="#000000" stroke="#000000" points="162.1201,-1264.0001 152.1201,-1267.5 162.1201,-1271.0001 162.1201,-1264.0001"/>
</g>
</g>
</svg>
