<?xml version="1.0" encoding="UTF-8" standalone="no"?>
<!DOCTYPE svg PUBLIC "-//W3C//DTD SVG 1.1//EN"
 "http://www.w3.org/Graphics/SVG/1.1/DTD/svg11.dtd">
<!-- Generated by graphviz version 2.43.0 (0)
 -->
<!-- Title: JavaWeaver_join_point_hierarchy_join_point_hierarchy Pages: 1 -->
<svg width="455pt" height="1359pt"
 viewBox="0.00 0.00 455.00 1359.00" xmlns="http://www.w3.org/2000/svg" xmlns:xlink="http://www.w3.org/1999/xlink">
<g id="graph0" class="graph" transform="scale(1 1) rotate(0) translate(4 1355)">
<title>JavaWeaver_join_point_hierarchy_join_point_hierarchy</title>
<polygon fill="white" stroke="transparent" points="-4,4 -4,-1355 451,-1355 451,4 -4,4"/>
<!-- NamedType -->
<g id="node1" class="node">
<title>NamedType</title>
<polygon fill="#b2dfee" stroke="#b2dfee" points="178,-31 98,-31 98,-12 178,-12 178,-31"/>
<text text-anchor="middle" x="138" y="-19" font-family="Times,serif" font-size="10.00">NamedType</text>
</g>
<!-- joinpoint -->
<g id="node2" class="node">
<title>joinpoint</title>
<polygon fill="#b2dfee" stroke="#b2dfee" points="62,-372 0,-372 0,-353 62,-353 62,-372"/>
<text text-anchor="middle" x="31" y="-360" font-family="Times,serif" font-size="10.00">joinpoint</text>
</g>
<!-- NamedType&#45;&gt;joinpoint -->
<g id="edge1" class="edge">
<title>NamedType&#45;&gt;joinpoint</title>
<path fill="none" stroke="black" d="M133.36,-31.24C126.23,-50.47 110.04,-94.75 98,-132.5 73.31,-209.92 47.82,-303.31 37.16,-343.07"/>
<polygon fill="black" stroke="black" points="33.76,-342.23 34.57,-352.8 40.53,-344.04 33.76,-342.23"/>
</g>
<!-- androidManifest -->
<g id="node3" class="node">
<title>androidManifest</title>
<polygon fill="#b2dfee" stroke="#b2dfee" points="318,-1351 217,-1351 217,-1332 318,-1332 318,-1351"/>
<text text-anchor="middle" x="267.5" y="-1339" font-family="Times,serif" font-size="10.00">androidManifest</text>
</g>
<!-- xmlNode -->
<g id="node4" class="node">
<title>xmlNode</title>
<polygon fill="#b2dfee" stroke="#b2dfee" points="169.5,-1314 106.5,-1314 106.5,-1295 169.5,-1295 169.5,-1314"/>
<text text-anchor="middle" x="138" y="-1302" font-family="Times,serif" font-size="10.00">xmlNode</text>
</g>
<!-- androidManifest&#45;&gt;xmlNode -->
<g id="edge2" class="edge">
<title>androidManifest&#45;&gt;xmlNode</title>
<path fill="none" stroke="black" d="M233.67,-1331.97C217.14,-1327.17 196.95,-1321.32 179.47,-1316.24"/>
<polygon fill="black" stroke="black" points="180.11,-1312.79 169.53,-1313.36 178.16,-1319.51 180.11,-1312.79"/>
</g>
<!-- xmlNode&#45;&gt;joinpoint -->
<g id="edge54" class="edge">
<title>xmlNode&#45;&gt;joinpoint</title>
<path fill="none" stroke="black" d="M135,-1294.85C128.7,-1264.13 109,-1165.75 98,-1083.5 60.95,-806.56 38.48,-466.97 33.21,-382.31"/>
<polygon fill="black" stroke="black" points="36.7,-382.05 32.59,-372.29 29.71,-382.49 36.7,-382.05"/>
</g>
<!-- annotation -->
<g id="node5" class="node">
<title>annotation</title>
<polygon fill="#b2dfee" stroke="#b2dfee" points="303,-1277 232,-1277 232,-1258 303,-1258 303,-1277"/>
<text text-anchor="middle" x="267.5" y="-1265" font-family="Times,serif" font-size="10.00">annotation</text>
</g>
<!-- expression -->
<g id="node6" class="node">
<title>expression</title>
<polygon fill="#b2dfee" stroke="#b2dfee" points="174,-1074 102,-1074 102,-1055 174,-1055 174,-1074"/>
<text text-anchor="middle" x="138" y="-1062" font-family="Times,serif" font-size="10.00">expression</text>
</g>
<!-- annotation&#45;&gt;expression -->
<g id="edge3" class="edge">
<title>annotation&#45;&gt;expression</title>
<path fill="none" stroke="black" d="M231.93,-1260.36C225.4,-1257.78 219.04,-1254.27 214,-1249.5 165.42,-1203.51 147.46,-1121.69 141.56,-1084.23"/>
<polygon fill="black" stroke="black" points="144.99,-1083.51 140.1,-1074.11 138.07,-1084.51 144.99,-1083.51"/>
</g>
<!-- expression&#45;&gt;joinpoint -->
<g id="edge24" class="edge">
<title>expression&#45;&gt;joinpoint</title>
<path fill="none" stroke="black" d="M135.37,-1054.91C129.9,-1022.52 111.7,-914.22 98,-824.5 71.87,-653.36 43.38,-446.06 34.67,-382.18"/>
<polygon fill="black" stroke="black" points="38.14,-381.7 33.32,-372.26 31.2,-382.64 38.14,-381.7"/>
</g>
<!-- anonymousExec -->
<g id="node7" class="node">
<title>anonymousExec</title>
<polygon fill="#b2dfee" stroke="#b2dfee" points="318,-870 217,-870 217,-851 318,-851 318,-870"/>
<text text-anchor="middle" x="267.5" y="-858" font-family="Times,serif" font-size="10.00">anonymousExec</text>
</g>
<!-- executable -->
<g id="node8" class="node">
<title>executable</title>
<polygon fill="#b2dfee" stroke="#b2dfee" points="174,-815 102,-815 102,-796 174,-796 174,-815"/>
<text text-anchor="middle" x="138" y="-803" font-family="Times,serif" font-size="10.00">executable</text>
</g>
<!-- anonymousExec&#45;&gt;executable -->
<g id="edge4" class="edge">
<title>anonymousExec&#45;&gt;executable</title>
<path fill="none" stroke="black" d="M236.54,-850.97C229.11,-848.4 221.21,-845.5 214,-842.5 197.77,-835.75 180.12,-827.11 166.02,-819.87"/>
<polygon fill="black" stroke="black" points="167.37,-816.63 156.89,-815.13 164.15,-822.85 167.37,-816.63"/>
</g>
<!-- executable&#45;&gt;joinpoint -->
<g id="edge23" class="edge">
<title>executable&#45;&gt;joinpoint</title>
<path fill="none" stroke="black" d="M134.71,-795.84C121.47,-740 54.75,-458.5 36.58,-381.81"/>
<polygon fill="black" stroke="black" points="39.97,-380.96 34.26,-372.04 33.16,-382.58 39.97,-380.96"/>
</g>
<!-- app -->
<g id="node9" class="node">
<title>app</title>
<polygon fill="#b2dfee" stroke="#b2dfee" points="165,-488 111,-488 111,-469 165,-469 165,-488"/>
<text text-anchor="middle" x="138" y="-476" font-family="Times,serif" font-size="10.00">app</text>
</g>
<!-- app&#45;&gt;joinpoint -->
<g id="edge5" class="edge">
<title>app&#45;&gt;joinpoint</title>
<path fill="none" stroke="black" d="M111.04,-468.95C106.42,-466.6 101.86,-463.79 98,-460.5 71.71,-438.12 51.45,-402.79 40.67,-381.23"/>
<polygon fill="black" stroke="black" points="43.77,-379.61 36.27,-372.12 37.47,-382.65 43.77,-379.61"/>
</g>
<!-- arrayAccess -->
<g id="node10" class="node">
<title>arrayAccess</title>
<polygon fill="#b2dfee" stroke="#b2dfee" points="306.5,-1240 228.5,-1240 228.5,-1221 306.5,-1221 306.5,-1240"/>
<text text-anchor="middle" x="267.5" y="-1228" font-family="Times,serif" font-size="10.00">arrayAccess</text>
</g>
<!-- arrayAccess&#45;&gt;expression -->
<g id="edge6" class="edge">
<title>arrayAccess&#45;&gt;expression</title>
<path fill="none" stroke="black" d="M228.43,-1221.44C223.22,-1219.1 218.22,-1216.17 214,-1212.5 173.57,-1177.32 152.29,-1115.1 143.68,-1083.73"/>
<polygon fill="black" stroke="black" points="147.06,-1082.81 141.15,-1074.01 140.28,-1084.57 147.06,-1082.81"/>
</g>
<!-- assert -->
<g id="node11" class="node">
<title>assert</title>
<polygon fill="#b2dfee" stroke="#b2dfee" points="294.5,-759 240.5,-759 240.5,-740 294.5,-740 294.5,-759"/>
<text text-anchor="middle" x="267.5" y="-747" font-family="Times,serif" font-size="10.00">assert</text>
</g>
<!-- statement -->
<g id="node12" class="node">
<title>statement</title>
<polygon fill="#b2dfee" stroke="#b2dfee" points="172,-451 104,-451 104,-432 172,-432 172,-451"/>
<text text-anchor="middle" x="138" y="-439" font-family="Times,serif" font-size="10.00">statement</text>
</g>
<!-- assert&#45;&gt;statement -->
<g id="edge7" class="edge">
<title>assert&#45;&gt;statement</title>
<path fill="none" stroke="black" d="M240.49,-746.41C230.78,-743.93 220.53,-739.48 214,-731.5 137.01,-637.5 249.07,-559.05 178,-460.5 177.23,-459.43 176.39,-458.43 175.48,-457.47"/>
<polygon fill="black" stroke="black" points="177.55,-454.65 167.54,-451.17 173.2,-460.13 177.55,-454.65"/>
</g>
<!-- statement&#45;&gt;joinpoint -->
<g id="edge43" class="edge">
<title>statement&#45;&gt;joinpoint</title>
<path fill="none" stroke="black" d="M124.12,-431.81C106.32,-418.41 73.97,-394.07 52.73,-378.1"/>
<polygon fill="black" stroke="black" points="54.75,-375.23 44.65,-372.02 50.54,-380.83 54.75,-375.23"/>
</g>
<!-- assignment -->
<g id="node13" class="node">
<title>assignment</title>
<polygon fill="#b2dfee" stroke="#b2dfee" points="305.5,-722 229.5,-722 229.5,-703 305.5,-703 305.5,-722"/>
<text text-anchor="middle" x="267.5" y="-710" font-family="Times,serif" font-size="10.00">assignment</text>
</g>
<!-- assignment&#45;&gt;statement -->
<g id="edge8" class="edge">
<title>assignment&#45;&gt;statement</title>
<path fill="none" stroke="black" d="M229.41,-705.53C223.55,-702.94 218.08,-699.38 214,-694.5 146.49,-613.79 240.42,-545.21 178,-460.5 177.22,-459.44 176.37,-458.44 175.45,-457.49"/>
<polygon fill="black" stroke="black" points="177.5,-454.65 167.47,-451.22 173.17,-460.15 177.5,-454.65"/>
</g>
<!-- binaryExpression -->
<g id="node14" class="node">
<title>binaryExpression</title>
<polygon fill="#b2dfee" stroke="#b2dfee" points="321,-1203 214,-1203 214,-1184 321,-1184 321,-1203"/>
<text text-anchor="middle" x="267.5" y="-1191" font-family="Times,serif" font-size="10.00">binaryExpression</text>
</g>
<!-- binaryExpression&#45;&gt;expression -->
<g id="edge9" class="edge">
<title>binaryExpression&#45;&gt;expression</title>
<path fill="none" stroke="black" d="M228.83,-1183.95C223.56,-1181.68 218.44,-1178.9 214,-1175.5 181.68,-1150.76 158.5,-1107.97 147.07,-1083.37"/>
<polygon fill="black" stroke="black" points="150.18,-1081.75 142.89,-1074.05 143.79,-1084.61 150.18,-1081.75"/>
</g>
<!-- body -->
<g id="node15" class="node">
<title>body</title>
<polygon fill="#b2dfee" stroke="#b2dfee" points="294.5,-685 240.5,-685 240.5,-666 294.5,-666 294.5,-685"/>
<text text-anchor="middle" x="267.5" y="-673" font-family="Times,serif" font-size="10.00">body</text>
</g>
<!-- body&#45;&gt;statement -->
<g id="edge10" class="edge">
<title>body&#45;&gt;statement</title>
<path fill="none" stroke="black" d="M240.41,-672.18C230.81,-669.66 220.66,-665.24 214,-657.5 155.94,-590.04 231.8,-531.4 178,-460.5 177.09,-459.3 176.08,-458.17 175,-457.11"/>
<polygon fill="black" stroke="black" points="177.08,-454.29 166.99,-451.05 172.85,-459.87 177.08,-454.29"/>
</g>
<!-- break -->
<g id="node16" class="node">
<title>break</title>
<polygon fill="#b2dfee" stroke="#b2dfee" points="294.5,-648 240.5,-648 240.5,-629 294.5,-629 294.5,-648"/>
<text text-anchor="middle" x="267.5" y="-636" font-family="Times,serif" font-size="10.00">break</text>
</g>
<!-- break&#45;&gt;statement -->
<g id="edge11" class="edge">
<title>break&#45;&gt;statement</title>
<path fill="none" stroke="black" d="M240.3,-634.96C230.8,-632.41 220.75,-628.03 214,-620.5 165.34,-566.23 223.23,-517.66 178,-460.5 177.07,-459.32 176.04,-458.21 174.94,-457.16"/>
<polygon fill="black" stroke="black" points="176.97,-454.31 166.86,-451.15 172.8,-459.93 176.97,-454.31"/>
</g>
<!-- call -->
<g id="node17" class="node">
<title>call</title>
<polygon fill="#b2dfee" stroke="#b2dfee" points="294.5,-1166 240.5,-1166 240.5,-1147 294.5,-1147 294.5,-1166"/>
<text text-anchor="middle" x="267.5" y="-1154" font-family="Times,serif" font-size="10.00">call</text>
</g>
<!-- call&#45;&gt;expression -->
<g id="edge12" class="edge">
<title>call&#45;&gt;expression</title>
<path fill="none" stroke="black" d="M240.36,-1150.08C231.6,-1147.27 222.03,-1143.47 214,-1138.5 189.37,-1123.25 166.51,-1098.54 152.65,-1081.92"/>
<polygon fill="black" stroke="black" points="155.29,-1079.61 146.27,-1074.05 149.85,-1084.02 155.29,-1079.61"/>
</g>
<!-- callStatement -->
<g id="node18" class="node">
<title>callStatement</title>
<polygon fill="#b2dfee" stroke="#b2dfee" points="310.5,-611 224.5,-611 224.5,-592 310.5,-592 310.5,-611"/>
<text text-anchor="middle" x="267.5" y="-599" font-family="Times,serif" font-size="10.00">callStatement</text>
</g>
<!-- callStatement&#45;&gt;statement -->
<g id="edge13" class="edge">
<title>callStatement&#45;&gt;statement</title>
<path fill="none" stroke="black" d="M225.43,-591.92C221.2,-589.68 217.26,-586.91 214,-583.5 174.65,-542.32 214.74,-504.03 178,-460.5 177,-459.31 175.9,-458.19 174.74,-457.14"/>
<polygon fill="black" stroke="black" points="176.43,-454.05 166.26,-451.09 172.37,-459.74 176.43,-454.05"/>
</g>
<!-- case -->
<g id="node19" class="node">
<title>case</title>
<polygon fill="#b2dfee" stroke="#b2dfee" points="294.5,-574 240.5,-574 240.5,-555 294.5,-555 294.5,-574"/>
<text text-anchor="middle" x="267.5" y="-562" font-family="Times,serif" font-size="10.00">case</text>
</g>
<!-- case&#45;&gt;statement -->
<g id="edge14" class="edge">
<title>case&#45;&gt;statement</title>
<path fill="none" stroke="black" d="M240.42,-560.16C231.16,-557.52 221.25,-553.28 214,-546.5 183.75,-518.19 206.45,-490.62 178,-460.5 176.79,-459.22 175.48,-458.02 174.09,-456.88"/>
<polygon fill="black" stroke="black" points="175.78,-453.8 165.52,-451.17 171.89,-459.63 175.78,-453.8"/>
</g>
<!-- catch -->
<g id="node20" class="node">
<title>catch</title>
<polygon fill="#b2dfee" stroke="#b2dfee" points="165,-391 111,-391 111,-372 165,-372 165,-391"/>
<text text-anchor="middle" x="138" y="-379" font-family="Times,serif" font-size="10.00">catch</text>
</g>
<!-- catch&#45;&gt;joinpoint -->
<g id="edge15" class="edge">
<title>catch&#45;&gt;joinpoint</title>
<path fill="none" stroke="black" d="M110.77,-376.75C99.18,-374.66 85.27,-372.14 72.39,-369.81"/>
<polygon fill="black" stroke="black" points="72.82,-366.33 62.35,-367.99 71.57,-373.22 72.82,-366.33"/>
</g>
<!-- class -->
<g id="node21" class="node">
<title>class</title>
<polygon fill="#b2dfee" stroke="#b2dfee" points="294.5,-167 240.5,-167 240.5,-148 294.5,-148 294.5,-167"/>
<text text-anchor="middle" x="267.5" y="-155" font-family="Times,serif" font-size="10.00">class</text>
</g>
<!-- type -->
<g id="node22" class="node">
<title>type</title>
<polygon fill="#b2dfee" stroke="#b2dfee" points="165,-354 111,-354 111,-335 165,-335 165,-354"/>
<text text-anchor="middle" x="138" y="-342" font-family="Times,serif" font-size="10.00">type</text>
</g>
<!-- class&#45;&gt;type -->
<g id="edge16" class="edge">
<title>class&#45;&gt;type</title>
<path fill="none" stroke="black" d="M240.33,-161.61C230.83,-164.35 220.78,-168.91 214,-176.5 168.3,-227.61 221.48,-273.49 178,-326.5 176.72,-328.06 175.28,-329.49 173.72,-330.8"/>
<polygon fill="black" stroke="black" points="171.63,-327.98 165.2,-336.4 175.48,-333.83 171.63,-327.98"/>
</g>
<!-- type&#45;&gt;joinpoint -->
<g id="edge49" class="edge">
<title>type&#45;&gt;joinpoint</title>
<path fill="none" stroke="black" d="M110.77,-349C99.18,-350.98 85.27,-353.37 72.39,-355.58"/>
<polygon fill="black" stroke="black" points="71.62,-352.16 62.35,-357.3 72.8,-359.06 71.62,-352.16"/>
</g>
<!-- comment -->
<g id="node23" class="node">
<title>comment</title>
<polygon fill="#b2dfee" stroke="#b2dfee" points="299.5,-537 235.5,-537 235.5,-518 299.5,-518 299.5,-537"/>
<text text-anchor="middle" x="267.5" y="-525" font-family="Times,serif" font-size="10.00">comment</text>
</g>
<!-- comment&#45;&gt;statement -->
<g id="edge17" class="edge">
<title>comment&#45;&gt;statement</title>
<path fill="none" stroke="black" d="M235.26,-520.24C227.85,-517.62 220.29,-514.12 214,-509.5 192.22,-493.5 198.75,-477.81 178,-460.5 176.21,-459.01 174.29,-457.6 172.29,-456.28"/>
<polygon fill="black" stroke="black" points="173.62,-453.01 163.21,-451.03 170.12,-459.07 173.62,-453.01"/>
</g>
<!-- constructor -->
<g id="node24" class="node">
<title>constructor</title>
<polygon fill="#b2dfee" stroke="#b2dfee" points="304.5,-833 230.5,-833 230.5,-814 304.5,-814 304.5,-833"/>
<text text-anchor="middle" x="267.5" y="-821" font-family="Times,serif" font-size="10.00">constructor</text>
</g>
<!-- constructor&#45;&gt;executable -->
<g id="edge18" class="edge">
<title>constructor&#45;&gt;executable</title>
<path fill="none" stroke="black" d="M230.3,-818.39C216.07,-816.38 199.56,-814.05 184.53,-811.93"/>
<polygon fill="black" stroke="black" points="184.8,-808.43 174.4,-810.5 183.82,-815.36 184.8,-808.43"/>
</g>
<!-- continue -->
<g id="node25" class="node">
<title>continue</title>
<polygon fill="#b2dfee" stroke="#b2dfee" points="298,-500 237,-500 237,-481 298,-481 298,-500"/>
<text text-anchor="middle" x="267.5" y="-488" font-family="Times,serif" font-size="10.00">continue</text>
</g>
<!-- continue&#45;&gt;statement -->
<g id="edge19" class="edge">
<title>continue&#45;&gt;statement</title>
<path fill="none" stroke="black" d="M237.5,-480.91C229.83,-478.28 221.57,-475.36 214,-472.5 199.58,-467.05 183.78,-460.6 170.42,-454.99"/>
<polygon fill="black" stroke="black" points="171.75,-451.75 161.17,-451.09 169.02,-458.2 171.75,-451.75"/>
</g>
<!-- declaration -->
<g id="node26" class="node">
<title>declaration</title>
<polygon fill="#b2dfee" stroke="#b2dfee" points="175,-317 101,-317 101,-298 175,-298 175,-317"/>
<text text-anchor="middle" x="138" y="-305" font-family="Times,serif" font-size="10.00">declaration</text>
</g>
<!-- declaration&#45;&gt;joinpoint -->
<g id="edge20" class="edge">
<title>declaration&#45;&gt;joinpoint</title>
<path fill="none" stroke="black" d="M116.67,-317.19C110.63,-320.12 104.02,-323.39 98,-326.5 84.73,-333.35 70.14,-341.27 58.06,-347.93"/>
<polygon fill="black" stroke="black" points="56.03,-345.05 48.98,-352.96 59.42,-351.17 56.03,-345.05"/>
</g>
<!-- enum -->
<g id="node27" class="node">
<title>enum</title>
<polygon fill="#b2dfee" stroke="#b2dfee" points="429,-167 375,-167 375,-148 429,-148 429,-167"/>
<text text-anchor="middle" x="402" y="-155" font-family="Times,serif" font-size="10.00">enum</text>
</g>
<!-- enum&#45;&gt;class -->
<g id="edge21" class="edge">
<title>enum&#45;&gt;class</title>
<path fill="none" stroke="black" d="M374.82,-157.5C354.77,-157.5 326.87,-157.5 304.68,-157.5"/>
<polygon fill="black" stroke="black" points="304.62,-154 294.62,-157.5 304.62,-161 304.62,-154"/>
</g>
<!-- enumValue -->
<g id="node28" class="node">
<title>enumValue</title>
<polygon fill="#b2dfee" stroke="#b2dfee" points="439,-93 365,-93 365,-74 439,-74 439,-93"/>
<text text-anchor="middle" x="402" y="-81" font-family="Times,serif" font-size="10.00">enumValue</text>
</g>
<!-- field -->
<g id="node29" class="node">
<title>field</title>
<polygon fill="#b2dfee" stroke="#b2dfee" points="294.5,-93 240.5,-93 240.5,-74 294.5,-74 294.5,-93"/>
<text text-anchor="middle" x="267.5" y="-81" font-family="Times,serif" font-size="10.00">field</text>
</g>
<!-- enumValue&#45;&gt;field -->
<g id="edge22" class="edge">
<title>enumValue&#45;&gt;field</title>
<path fill="none" stroke="black" d="M364.79,-83.5C346.13,-83.5 323.44,-83.5 304.76,-83.5"/>
<polygon fill="black" stroke="black" points="304.58,-80 294.58,-83.5 304.58,-87 304.58,-80"/>
</g>
<!-- field&#45;&gt;declaration -->
<g id="edge25" class="edge">
<title>field&#45;&gt;declaration</title>
<path fill="none" stroke="black" d="M240.42,-87.38C230.82,-90.09 220.67,-94.69 214,-102.5 159.03,-166.86 230.18,-222.86 178,-289.5 177.42,-290.24 176.8,-290.96 176.14,-291.65"/>
<polygon fill="black" stroke="black" points="173.81,-289.03 168.12,-297.96 178.14,-294.53 173.81,-289.03"/>
</g>
<!-- fieldAccess -->
<g id="node30" class="node">
<title>fieldAccess</title>
<polygon fill="#b2dfee" stroke="#b2dfee" points="439,-1129 365,-1129 365,-1110 439,-1110 439,-1129"/>
<text text-anchor="middle" x="402" y="-1117" font-family="Times,serif" font-size="10.00">fieldAccess</text>
</g>
<!-- var -->
<g id="node31" class="node">
<title>var</title>
<polygon fill="#b2dfee" stroke="#b2dfee" points="294.5,-1129 240.5,-1129 240.5,-1110 294.5,-1110 294.5,-1129"/>
<text text-anchor="middle" x="267.5" y="-1117" font-family="Times,serif" font-size="10.00">var</text>
</g>
<!-- fieldAccess&#45;&gt;var -->
<g id="edge26" class="edge">
<title>fieldAccess&#45;&gt;var</title>
<path fill="none" stroke="black" d="M364.79,-1119.5C346.13,-1119.5 323.44,-1119.5 304.76,-1119.5"/>
<polygon fill="black" stroke="black" points="304.58,-1116 294.58,-1119.5 304.58,-1123 304.58,-1116"/>
</g>
<!-- var&#45;&gt;expression -->
<g id="edge52" class="edge">
<title>var&#45;&gt;expression</title>
<path fill="none" stroke="black" d="M240.35,-1111.27C231.86,-1108.4 222.45,-1105.02 214,-1101.5 197.77,-1094.75 180.12,-1086.11 166.02,-1078.87"/>
<polygon fill="black" stroke="black" points="167.37,-1075.63 156.89,-1074.13 164.15,-1081.85 167.37,-1075.63"/>
</g>
<!-- file -->
<g id="node32" class="node">
<title>file</title>
<polygon fill="#b2dfee" stroke="#b2dfee" points="165,-280 111,-280 111,-261 165,-261 165,-280"/>
<text text-anchor="middle" x="138" y="-268" font-family="Times,serif" font-size="10.00">file</text>
</g>
<!-- file&#45;&gt;joinpoint -->
<g id="edge27" class="edge">
<title>file&#45;&gt;joinpoint</title>
<path fill="none" stroke="black" d="M113.47,-280.16C108.15,-282.83 102.7,-285.97 98,-289.5 76.8,-305.44 57.04,-328.89 44.77,-344.88"/>
<polygon fill="black" stroke="black" points="41.95,-342.8 38.76,-352.91 47.56,-347 41.95,-342.8"/>
</g>
<!-- if -->
<g id="node33" class="node">
<title>if</title>
<polygon fill="#b2dfee" stroke="#b2dfee" points="294.5,-463 240.5,-463 240.5,-444 294.5,-444 294.5,-463"/>
<text text-anchor="middle" x="267.5" y="-451" font-family="Times,serif" font-size="10.00">if</text>
</g>
<!-- if&#45;&gt;statement -->
<g id="edge28" class="edge">
<title>if&#45;&gt;statement</title>
<path fill="none" stroke="black" d="M240.39,-451.04C223.72,-449.47 201.69,-447.4 182.43,-445.59"/>
<polygon fill="black" stroke="black" points="182.64,-442.09 172.36,-444.64 181.99,-449.06 182.64,-442.09"/>
</g>
<!-- interface -->
<g id="node34" class="node">
<title>interface</title>
<polygon fill="#b2dfee" stroke="#b2dfee" points="298.5,-130 236.5,-130 236.5,-111 298.5,-111 298.5,-130"/>
<text text-anchor="middle" x="267.5" y="-118" font-family="Times,serif" font-size="10.00">interface</text>
</g>
<!-- interface&#45;&gt;type -->
<g id="edge29" class="edge">
<title>interface&#45;&gt;type</title>
<path fill="none" stroke="black" d="M236.32,-125.65C228.02,-128.45 219.73,-132.79 214,-139.5 159.03,-203.86 230.18,-259.86 178,-326.5 176.76,-328.09 175.35,-329.54 173.81,-330.86"/>
<polygon fill="black" stroke="black" points="171.72,-328.05 165.35,-336.52 175.61,-333.87 171.72,-328.05"/>
</g>
<!-- libClass -->
<g id="node35" class="node">
<title>libClass</title>
<polygon fill="#b2dfee" stroke="#b2dfee" points="295.5,-19 239.5,-19 239.5,0 295.5,0 295.5,-19"/>
<text text-anchor="middle" x="267.5" y="-7" font-family="Times,serif" font-size="10.00">libClass</text>
</g>
<!-- libClass&#45;&gt;NamedType -->
<g id="edge30" class="edge">
<title>libClass&#45;&gt;NamedType</title>
<path fill="none" stroke="black" d="M239.46,-12.04C224.55,-13.45 205.58,-15.23 188.14,-16.87"/>
<polygon fill="black" stroke="black" points="187.73,-13.4 178.1,-17.82 188.38,-20.37 187.73,-13.4"/>
</g>
<!-- libMethod -->
<g id="node36" class="node">
<title>libMethod</title>
<polygon fill="#b2dfee" stroke="#b2dfee" points="172.5,-243 103.5,-243 103.5,-224 172.5,-224 172.5,-243"/>
<text text-anchor="middle" x="138" y="-231" font-family="Times,serif" font-size="10.00">libMethod</text>
</g>
<!-- libMethod&#45;&gt;joinpoint -->
<g id="edge31" class="edge">
<title>libMethod&#45;&gt;joinpoint</title>
<path fill="none" stroke="black" d="M111.72,-243.16C106.83,-245.73 102,-248.84 98,-252.5 69.68,-278.45 49.56,-319.37 39.45,-343.3"/>
<polygon fill="black" stroke="black" points="36.15,-342.13 35.62,-352.71 42.63,-344.76 36.15,-342.13"/>
</g>
<!-- literal -->
<g id="node37" class="node">
<title>literal</title>
<polygon fill="#b2dfee" stroke="#b2dfee" points="294.5,-1092 240.5,-1092 240.5,-1073 294.5,-1073 294.5,-1092"/>
<text text-anchor="middle" x="267.5" y="-1080" font-family="Times,serif" font-size="10.00">literal</text>
</g>
<!-- literal&#45;&gt;expression -->
<g id="edge32" class="edge">
<title>literal&#45;&gt;expression</title>
<path fill="none" stroke="black" d="M240.39,-1078.81C224.29,-1076.54 203.19,-1073.56 184.41,-1070.91"/>
<polygon fill="black" stroke="black" points="184.65,-1067.41 174.26,-1069.48 183.67,-1074.34 184.65,-1067.41"/>
</g>
<!-- localVariable -->
<g id="node38" class="node">
<title>localVariable</title>
<polygon fill="#b2dfee" stroke="#b2dfee" points="308,-426 227,-426 227,-407 308,-407 308,-426"/>
<text text-anchor="middle" x="267.5" y="-414" font-family="Times,serif" font-size="10.00">localVariable</text>
</g>
<!-- localVariable&#45;&gt;statement -->
<g id="edge33" class="edge">
<title>localVariable&#45;&gt;statement</title>
<path fill="none" stroke="black" d="M226.86,-424.27C212.74,-427.04 196.77,-430.17 182.36,-433"/>
<polygon fill="black" stroke="black" points="181.33,-429.63 172.19,-434.99 182.67,-436.5 181.33,-429.63"/>
</g>
<!-- loop -->
<g id="node39" class="node">
<title>loop</title>
<polygon fill="#b2dfee" stroke="#b2dfee" points="294.5,-389 240.5,-389 240.5,-370 294.5,-370 294.5,-389"/>
<text text-anchor="middle" x="267.5" y="-377" font-family="Times,serif" font-size="10.00">loop</text>
</g>
<!-- loop&#45;&gt;statement -->
<g id="edge34" class="edge">
<title>loop&#45;&gt;statement</title>
<path fill="none" stroke="black" d="M240.24,-388C231.74,-391.01 222.36,-394.63 214,-398.5 196.24,-406.73 177.11,-417.74 162.61,-426.55"/>
<polygon fill="black" stroke="black" points="160.49,-423.75 153.82,-431.98 164.17,-429.71 160.49,-423.75"/>
</g>
<!-- method -->
<g id="node40" class="node">
<title>method</title>
<polygon fill="#b2dfee" stroke="#b2dfee" points="295.5,-796 239.5,-796 239.5,-777 295.5,-777 295.5,-796"/>
<text text-anchor="middle" x="267.5" y="-784" font-family="Times,serif" font-size="10.00">method</text>
</g>
<!-- method&#45;&gt;executable -->
<g id="edge35" class="edge">
<title>method&#45;&gt;executable</title>
<path fill="none" stroke="black" d="M239.46,-790.53C223.42,-792.92 202.69,-796.01 184.22,-798.76"/>
<polygon fill="black" stroke="black" points="183.62,-795.31 174.24,-800.25 184.65,-802.24 183.62,-795.31"/>
</g>
<!-- new -->
<g id="node41" class="node">
<title>new</title>
<polygon fill="#b2dfee" stroke="#b2dfee" points="294.5,-1055 240.5,-1055 240.5,-1036 294.5,-1036 294.5,-1055"/>
<text text-anchor="middle" x="267.5" y="-1043" font-family="Times,serif" font-size="10.00">new</text>
</g>
<!-- new&#45;&gt;expression -->
<g id="edge36" class="edge">
<title>new&#45;&gt;expression</title>
<path fill="none" stroke="black" d="M240.39,-1049.39C224.29,-1051.79 203.19,-1054.94 184.41,-1057.73"/>
<polygon fill="black" stroke="black" points="183.64,-1054.31 174.26,-1059.25 184.67,-1061.23 183.64,-1054.31"/>
</g>
<!-- opAssignment -->
<g id="node42" class="node">
<title>opAssignment</title>
<polygon fill="#b2dfee" stroke="#b2dfee" points="447,-722 357,-722 357,-703 447,-703 447,-722"/>
<text text-anchor="middle" x="402" y="-710" font-family="Times,serif" font-size="10.00">opAssignment</text>
</g>
<!-- opAssignment&#45;&gt;assignment -->
<g id="edge37" class="edge">
<title>opAssignment&#45;&gt;assignment</title>
<path fill="none" stroke="black" d="M356.88,-712.5C343.81,-712.5 329.44,-712.5 316.16,-712.5"/>
<polygon fill="black" stroke="black" points="315.79,-709 305.79,-712.5 315.79,-716 315.79,-709"/>
</g>
<!-- pragma -->
<g id="node43" class="node">
<title>pragma</title>
<polygon fill="#b2dfee" stroke="#b2dfee" points="430,-537 374,-537 374,-518 430,-518 430,-537"/>
<text text-anchor="middle" x="402" y="-525" font-family="Times,serif" font-size="10.00">pragma</text>
</g>
<!-- pragma&#45;&gt;comment -->
<g id="edge38" class="edge">
<title>pragma&#45;&gt;comment</title>
<path fill="none" stroke="black" d="M373.87,-527.5C355.47,-527.5 330.81,-527.5 309.97,-527.5"/>
<polygon fill="black" stroke="black" points="309.78,-524 299.78,-527.5 309.78,-531 309.78,-524"/>
</g>
<!-- reference -->
<g id="node44" class="node">
<title>reference</title>
<polygon fill="#b2dfee" stroke="#b2dfee" points="170.5,-160 105.5,-160 105.5,-141 170.5,-141 170.5,-160"/>
<text text-anchor="middle" x="138" y="-148" font-family="Times,serif" font-size="10.00">reference</text>
</g>
<!-- reference&#45;&gt;joinpoint -->
<g id="edge39" class="edge">
<title>reference&#45;&gt;joinpoint</title>
<path fill="none" stroke="black" d="M130.54,-160.42C122.48,-172.99 108.48,-195.44 98,-215.5 74.69,-260.14 51.53,-314.68 39.83,-343.13"/>
<polygon fill="black" stroke="black" points="36.47,-342.1 35.94,-352.68 42.95,-344.74 36.47,-342.1"/>
</g>
<!-- return -->
<g id="node45" class="node">
<title>return</title>
<polygon fill="#b2dfee" stroke="#b2dfee" points="294.5,-352 240.5,-352 240.5,-333 294.5,-333 294.5,-352"/>
<text text-anchor="middle" x="267.5" y="-340" font-family="Times,serif" font-size="10.00">return</text>
</g>
<!-- return&#45;&gt;statement -->
<g id="edge40" class="edge">
<title>return&#45;&gt;statement</title>
<path fill="none" stroke="black" d="M240.23,-349.27C231.46,-352.23 221.91,-356.24 214,-361.5 194.35,-374.55 194.13,-383.29 178,-400.5 170.6,-408.4 162.35,-417.09 155.35,-424.43"/>
<polygon fill="black" stroke="black" points="152.72,-422.12 148.34,-431.76 157.78,-426.95 152.72,-422.12"/>
</g>
<!-- snippetExpr -->
<g id="node46" class="node">
<title>snippetExpr</title>
<polygon fill="#b2dfee" stroke="#b2dfee" points="307.5,-1018 227.5,-1018 227.5,-999 307.5,-999 307.5,-1018"/>
<text text-anchor="middle" x="267.5" y="-1006" font-family="Times,serif" font-size="10.00">snippetExpr</text>
</g>
<!-- snippetExpr&#45;&gt;expression -->
<g id="edge41" class="edge">
<title>snippetExpr&#45;&gt;expression</title>
<path fill="none" stroke="black" d="M238.21,-1018.09C230.31,-1020.94 221.76,-1024.19 214,-1027.5 197.83,-1034.39 180.18,-1043.04 166.07,-1050.24"/>
<polygon fill="black" stroke="black" points="164.21,-1047.26 156.92,-1054.96 167.42,-1053.48 164.21,-1047.26"/>
</g>
<!-- snippetStmt -->
<g id="node47" class="node">
<title>snippetStmt</title>
<polygon fill="#b2dfee" stroke="#b2dfee" points="307,-315 228,-315 228,-296 307,-296 307,-315"/>
<text text-anchor="middle" x="267.5" y="-303" font-family="Times,serif" font-size="10.00">snippetStmt</text>
</g>
<!-- snippetStmt&#45;&gt;statement -->
<g id="edge42" class="edge">
<title>snippetStmt&#45;&gt;statement</title>
<path fill="none" stroke="black" d="M228.6,-315.1C223.3,-317.57 218.23,-320.65 214,-324.5 186.34,-349.64 199.15,-369.68 178,-400.5 172.04,-409.19 164.23,-417.79 157.17,-424.85"/>
<polygon fill="black" stroke="black" points="154.69,-422.38 149.92,-431.85 159.55,-427.42 154.69,-422.38"/>
</g>
<!-- switch -->
<g id="node48" class="node">
<title>switch</title>
<polygon fill="#b2dfee" stroke="#b2dfee" points="294.5,-278 240.5,-278 240.5,-259 294.5,-259 294.5,-278"/>
<text text-anchor="middle" x="267.5" y="-266" font-family="Times,serif" font-size="10.00">switch</text>
</g>
<!-- switch&#45;&gt;statement -->
<g id="edge44" class="edge">
<title>switch&#45;&gt;statement</title>
<path fill="none" stroke="black" d="M240.34,-272.96C230.96,-275.74 220.99,-280.23 214,-287.5 177.46,-325.49 204.85,-355.14 178,-400.5 172.71,-409.44 165.13,-417.99 158.07,-424.95"/>
<polygon fill="black" stroke="black" points="155.64,-422.43 150.73,-431.81 160.42,-427.54 155.64,-422.43"/>
</g>
<!-- ternary -->
<g id="node49" class="node">
<title>ternary</title>
<polygon fill="#b2dfee" stroke="#b2dfee" points="294.5,-981 240.5,-981 240.5,-962 294.5,-962 294.5,-981"/>
<text text-anchor="middle" x="267.5" y="-969" font-family="Times,serif" font-size="10.00">ternary</text>
</g>
<!-- ternary&#45;&gt;expression -->
<g id="edge45" class="edge">
<title>ternary&#45;&gt;expression</title>
<path fill="none" stroke="black" d="M240.37,-978.49C231.61,-981.46 222.03,-985.43 214,-990.5 189.76,-1005.8 167.1,-1030.09 153.16,-1046.64"/>
<polygon fill="black" stroke="black" points="150.35,-1044.55 146.71,-1054.49 155.76,-1048.99 150.35,-1044.55"/>
</g>
<!-- this -->
<g id="node50" class="node">
<title>this</title>
<polygon fill="#b2dfee" stroke="#b2dfee" points="294.5,-944 240.5,-944 240.5,-925 294.5,-925 294.5,-944"/>
<text text-anchor="middle" x="267.5" y="-932" font-family="Times,serif" font-size="10.00">this</text>
</g>
<!-- this&#45;&gt;expression -->
<g id="edge46" class="edge">
<title>this&#45;&gt;expression</title>
<path fill="none" stroke="black" d="M240.29,-940.43C231.33,-943.34 221.65,-947.54 214,-953.5 181.89,-978.52 158.64,-1021.2 147.13,-1045.71"/>
<polygon fill="black" stroke="black" points="143.86,-1044.44 142.93,-1054.99 150.24,-1047.33 143.86,-1044.44"/>
</g>
<!-- throw -->
<g id="node51" class="node">
<title>throw</title>
<polygon fill="#b2dfee" stroke="#b2dfee" points="294.5,-241 240.5,-241 240.5,-222 294.5,-222 294.5,-241"/>
<text text-anchor="middle" x="267.5" y="-229" font-family="Times,serif" font-size="10.00">throw</text>
</g>
<!-- throw&#45;&gt;statement -->
<g id="edge47" class="edge">
<title>throw&#45;&gt;statement</title>
<path fill="none" stroke="black" d="M240.33,-235.61C230.83,-238.35 220.78,-242.91 214,-250.5 168.3,-301.61 210.75,-340.27 178,-400.5 173.04,-409.63 165.52,-418.21 158.41,-425.14"/>
<polygon fill="black" stroke="black" points="155.98,-422.62 150.98,-431.96 160.71,-427.77 155.98,-422.62"/>
</g>
<!-- try -->
<g id="node52" class="node">
<title>try</title>
<polygon fill="#b2dfee" stroke="#b2dfee" points="294.5,-204 240.5,-204 240.5,-185 294.5,-185 294.5,-204"/>
<text text-anchor="middle" x="267.5" y="-192" font-family="Times,serif" font-size="10.00">try</text>
</g>
<!-- try&#45;&gt;statement -->
<g id="edge48" class="edge">
<title>try&#45;&gt;statement</title>
<path fill="none" stroke="black" d="M240.42,-198.38C230.82,-201.09 220.67,-205.69 214,-213.5 159.03,-277.86 216.73,-325.24 178,-400.5 173.31,-409.61 165.97,-418.1 158.92,-424.97"/>
<polygon fill="black" stroke="black" points="156.54,-422.4 151.52,-431.73 161.26,-427.57 156.54,-422.4"/>
</g>
<!-- typeReference -->
<g id="node53" class="node">
<title>typeReference</title>
<polygon fill="#b2dfee" stroke="#b2dfee" points="313,-56 222,-56 222,-37 313,-37 313,-56"/>
<text text-anchor="middle" x="267.5" y="-44" font-family="Times,serif" font-size="10.00">typeReference</text>
</g>
<!-- typeReference&#45;&gt;reference -->
<g id="edge50" class="edge">
<title>typeReference&#45;&gt;reference</title>
<path fill="none" stroke="black" d="M230.29,-56.1C224.59,-58.39 218.96,-61.17 214,-64.5 187.02,-82.64 163.8,-112.88 150.62,-132.24"/>
<polygon fill="black" stroke="black" points="147.57,-130.49 144.98,-140.77 153.41,-134.35 147.57,-130.49"/>
</g>
<!-- unaryExpression -->
<g id="node54" class="node">
<title>unaryExpression</title>
<polygon fill="#b2dfee" stroke="#b2dfee" points="319.5,-907 215.5,-907 215.5,-888 319.5,-888 319.5,-907"/>
<text text-anchor="middle" x="267.5" y="-895" font-family="Times,serif" font-size="10.00">unaryExpression</text>
</g>
<!-- unaryExpression&#45;&gt;expression -->
<g id="edge51" class="edge">
<title>unaryExpression&#45;&gt;expression</title>
<path fill="none" stroke="black" d="M228.96,-907.08C223.55,-909.55 218.36,-912.65 214,-916.5 174.06,-951.85 152.66,-1013.49 143.87,-1044.9"/>
<polygon fill="black" stroke="black" points="140.47,-1044.09 141.28,-1054.65 147.23,-1045.89 140.47,-1044.09"/>
</g>
<!-- xmlElement -->
<g id="node55" class="node">
<title>xmlElement</title>
<polygon fill="#b2dfee" stroke="#b2dfee" points="306.5,-1314 228.5,-1314 228.5,-1295 306.5,-1295 306.5,-1314"/>
<text text-anchor="middle" x="267.5" y="-1302" font-family="Times,serif" font-size="10.00">xmlElement</text>
</g>
<!-- xmlElement&#45;&gt;xmlNode -->
<g id="edge53" class="edge">
<title>xmlElement&#45;&gt;xmlNode</title>
<path fill="none" stroke="black" d="M228.25,-1304.5C212.99,-1304.5 195.4,-1304.5 179.89,-1304.5"/>
<polygon fill="black" stroke="black" points="179.54,-1301 169.54,-1304.5 179.54,-1308 179.54,-1301"/>
</g>
</g>
</svg>
