<?xml version="1.0" encoding="UTF-8" standalone="no"?>
<!DOCTYPE svg PUBLIC "-//W3C//DTD SVG 1.1//EN"
 "http://www.w3.org/Graphics/SVG/1.1/DTD/svg11.dtd">
<!-- Generated by graphviz version 2.48.0 (20210717.1556)
 -->
<!-- Title: JavaWeaver_join_point_hierarchy_join_point_hierarchy Pages: 1 -->
<svg width="397pt" height="1285pt"
 viewBox="0.00 0.00 397.00 1285.00" xmlns="http://www.w3.org/2000/svg" xmlns:xlink="http://www.w3.org/1999/xlink">
<g id="graph0" class="graph" transform="scale(1 1) rotate(0) translate(4 1281)">
<title>JavaWeaver_join_point_hierarchy_join_point_hierarchy</title>
<polygon fill="white" stroke="transparent" points="-4,4 -4,-1281 393,-1281 393,4 -4,4"/>
<!-- NamedType -->
<g id="node1" class="node">
<title>NamedType</title>
<polygon fill="#b2dfee" stroke="#b2dfee" points="155,-43 90,-43 90,-24 155,-24 155,-43"/>
<text text-anchor="middle" x="122.5" y="-31" font-family="Times New Roman,serif" font-size="10.00">NamedType</text>
</g>
<!-- joinpoint -->
<g id="node2" class="node">
<title>joinpoint</title>
<polygon fill="#b2dfee" stroke="#b2dfee" points="54,-366 0,-366 0,-347 54,-347 54,-366"/>
<text text-anchor="middle" x="27" y="-354" font-family="Times New Roman,serif" font-size="10.00">joinpoint</text>
</g>
<!-- NamedType&#45;&gt;joinpoint -->
<g id="edge1" class="edge">
<title>NamedType&#45;&gt;joinpoint</title>
<path fill="none" stroke="black" d="M118.7,-43.17C105.74,-87.93 51.45,-275.5 33.66,-336.93"/>
<polygon fill="black" stroke="black" points="30.21,-336.29 30.79,-346.87 36.93,-338.24 30.21,-336.29"/>
</g>
<!-- androidManifest -->
<g id="node3" class="node">
<title>androidManifest</title>
<polygon fill="#b2dfee" stroke="#b2dfee" points="275.5,-1277 192.5,-1277 192.5,-1258 275.5,-1258 275.5,-1277"/>
<text text-anchor="middle" x="234" y="-1265" font-family="Times New Roman,serif" font-size="10.00">androidManifest</text>
</g>
<!-- xmlNode -->
<g id="node4" class="node">
<title>xmlNode</title>
<polygon fill="#b2dfee" stroke="#b2dfee" points="149.5,-1240 95.5,-1240 95.5,-1221 149.5,-1221 149.5,-1240"/>
<text text-anchor="middle" x="122.5" y="-1228" font-family="Times New Roman,serif" font-size="10.00">xmlNode</text>
</g>
<!-- androidManifest&#45;&gt;xmlNode -->
<g id="edge2" class="edge">
<title>androidManifest&#45;&gt;xmlNode</title>
<path fill="none" stroke="black" d="M204.8,-1257.97C191,-1253.31 174.24,-1247.64 159.52,-1242.67"/>
<polygon fill="black" stroke="black" points="160.32,-1239.25 149.72,-1239.36 158.08,-1245.88 160.32,-1239.25"/>
</g>
<!-- xmlNode&#45;&gt;joinpoint -->
<g id="edge49" class="edge">
<title>xmlNode&#45;&gt;joinpoint</title>
<path fill="none" stroke="black" d="M119.78,-1220.81C114.65,-1191.66 99.24,-1102.18 90,-1027.5 58.32,-771.32 35.19,-458.27 29.41,-376.7"/>
<polygon fill="black" stroke="black" points="32.88,-376.11 28.68,-366.38 25.89,-376.6 32.88,-376.11"/>
</g>
<!-- annotation -->
<g id="node5" class="node">
<title>annotation</title>
<polygon fill="#b2dfee" stroke="#b2dfee" points="264,-1203 204,-1203 204,-1184 264,-1184 264,-1203"/>
<text text-anchor="middle" x="234" y="-1191" font-family="Times New Roman,serif" font-size="10.00">annotation</text>
</g>
<!-- expression -->
<g id="node6" class="node">
<title>expression</title>
<polygon fill="#b2dfee" stroke="#b2dfee" points="152,-1018 93,-1018 93,-999 152,-999 152,-1018"/>
<text text-anchor="middle" x="122.5" y="-1006" font-family="Times New Roman,serif" font-size="10.00">expression</text>
</g>
<!-- annotation&#45;&gt;expression -->
<g id="edge3" class="edge">
<title>annotation&#45;&gt;expression</title>
<path fill="none" stroke="black" d="M203.99,-1184.65C199.23,-1182.25 194.66,-1179.24 191,-1175.5 149.72,-1133.35 132.62,-1062.62 126.48,-1028.33"/>
<polygon fill="black" stroke="black" points="129.89,-1027.49 124.8,-1018.19 122.99,-1028.63 129.89,-1027.49"/>
</g>
<!-- expression&#45;&gt;joinpoint -->
<g id="edge22" class="edge">
<title>expression&#45;&gt;joinpoint</title>
<path fill="none" stroke="black" d="M120.11,-998.78C109.78,-926.78 45.21,-476.52 30.83,-376.27"/>
<polygon fill="black" stroke="black" points="34.29,-375.68 29.4,-366.28 27.36,-376.67 34.29,-375.68"/>
</g>
<!-- anonymousExec -->
<g id="node7" class="node">
<title>anonymousExec</title>
<polygon fill="#b2dfee" stroke="#b2dfee" points="275,-833 193,-833 193,-814 275,-814 275,-833"/>
<text text-anchor="middle" x="234" y="-821" font-family="Times New Roman,serif" font-size="10.00">anonymousExec</text>
</g>
<!-- executable -->
<g id="node8" class="node">
<title>executable</title>
<polygon fill="#b2dfee" stroke="#b2dfee" points="152,-778 93,-778 93,-759 152,-759 152,-778"/>
<text text-anchor="middle" x="122.5" y="-766" font-family="Times New Roman,serif" font-size="10.00">executable</text>
</g>
<!-- anonymousExec&#45;&gt;executable -->
<g id="edge4" class="edge">
<title>anonymousExec&#45;&gt;executable</title>
<path fill="none" stroke="black" d="M209.71,-813.99C203.57,-811.36 196.99,-808.42 191,-805.5 176.83,-798.6 161.39,-790.2 148.86,-783.16"/>
<polygon fill="black" stroke="black" points="150.33,-779.97 139.91,-778.08 146.88,-786.06 150.33,-779.97"/>
</g>
<!-- executable&#45;&gt;joinpoint -->
<g id="edge21" class="edge">
<title>executable&#45;&gt;joinpoint</title>
<path fill="none" stroke="black" d="M119.28,-758.72C107.18,-705.4 49.09,-449.42 32.46,-376.14"/>
<polygon fill="black" stroke="black" points="35.78,-374.98 30.16,-366.01 28.96,-376.53 35.78,-374.98"/>
</g>
<!-- app -->
<g id="node9" class="node">
<title>app</title>
<polygon fill="#b2dfee" stroke="#b2dfee" points="149.5,-463 95.5,-463 95.5,-444 149.5,-444 149.5,-463"/>
<text text-anchor="middle" x="122.5" y="-451" font-family="Times New Roman,serif" font-size="10.00">app</text>
</g>
<!-- app&#45;&gt;joinpoint -->
<g id="edge5" class="edge">
<title>app&#45;&gt;joinpoint</title>
<path fill="none" stroke="black" d="M102.05,-443.96C97.87,-441.49 93.62,-438.63 90,-435.5 69.29,-417.62 50.67,-391.97 39.36,-374.8"/>
<polygon fill="black" stroke="black" points="42.21,-372.76 33.87,-366.24 36.32,-376.54 42.21,-372.76"/>
</g>
<!-- arrayAccess -->
<g id="node10" class="node">
<title>arrayAccess</title>
<polygon fill="#b2dfee" stroke="#b2dfee" points="267.5,-1166 200.5,-1166 200.5,-1147 267.5,-1147 267.5,-1166"/>
<text text-anchor="middle" x="234" y="-1154" font-family="Times New Roman,serif" font-size="10.00">arrayAccess</text>
</g>
<!-- arrayAccess&#45;&gt;expression -->
<g id="edge6" class="edge">
<title>arrayAccess&#45;&gt;expression</title>
<path fill="none" stroke="black" d="M203.41,-1146.92C198.93,-1144.63 194.6,-1141.85 191,-1138.5 157.44,-1107.34 137.69,-1055.68 128.93,-1027.79"/>
<polygon fill="black" stroke="black" points="132.24,-1026.62 126.02,-1018.04 125.53,-1028.63 132.24,-1026.62"/>
</g>
<!-- assert -->
<g id="node11" class="node">
<title>assert</title>
<polygon fill="#b2dfee" stroke="#b2dfee" points="261,-722 207,-722 207,-703 261,-703 261,-722"/>
<text text-anchor="middle" x="234" y="-710" font-family="Times New Roman,serif" font-size="10.00">assert</text>
</g>
<!-- statement -->
<g id="node12" class="node">
<title>statement</title>
<polygon fill="#b2dfee" stroke="#b2dfee" points="150.5,-426 94.5,-426 94.5,-407 150.5,-407 150.5,-426"/>
<text text-anchor="middle" x="122.5" y="-414" font-family="Times New Roman,serif" font-size="10.00">statement</text>
</g>
<!-- assert&#45;&gt;statement -->
<g id="edge7" class="edge">
<title>assert&#45;&gt;statement</title>
<path fill="none" stroke="black" d="M206.64,-706.02C200.67,-703.38 194.95,-699.67 191,-694.5 120.48,-602.12 218.99,-532.52 155,-435.5 154.38,-434.57 153.71,-433.67 152.98,-432.82"/>
<polygon fill="black" stroke="black" points="155.15,-430.07 145.32,-426.1 150.53,-435.33 155.15,-430.07"/>
</g>
<!-- statement&#45;&gt;joinpoint -->
<g id="edge38" class="edge">
<title>statement&#45;&gt;joinpoint</title>
<path fill="none" stroke="black" d="M106.48,-406.86C91.62,-397.33 68.67,-382.6 51.41,-371.52"/>
<polygon fill="black" stroke="black" points="53.29,-368.57 42.99,-366.12 49.51,-374.46 53.29,-368.57"/>
</g>
<!-- assignment -->
<g id="node13" class="node">
<title>assignment</title>
<polygon fill="#b2dfee" stroke="#b2dfee" points="265,-685 203,-685 203,-666 265,-666 265,-685"/>
<text text-anchor="middle" x="234" y="-673" font-family="Times New Roman,serif" font-size="10.00">assignment</text>
</g>
<!-- assignment&#45;&gt;statement -->
<g id="edge8" class="edge">
<title>assignment&#45;&gt;statement</title>
<path fill="none" stroke="black" d="M202.84,-667.06C198.31,-664.63 194.13,-661.5 191,-657.5 129.45,-578.74 210.98,-518.31 155,-435.5 154.37,-434.57 153.69,-433.69 152.95,-432.83"/>
<polygon fill="black" stroke="black" points="155.1,-430.07 145.26,-426.15 150.51,-435.35 155.1,-430.07"/>
</g>
<!-- binaryExpression -->
<g id="node14" class="node">
<title>binaryExpression</title>
<polygon fill="#b2dfee" stroke="#b2dfee" points="277,-1129 191,-1129 191,-1110 277,-1110 277,-1129"/>
<text text-anchor="middle" x="234" y="-1117" font-family="Times New Roman,serif" font-size="10.00">binaryExpression</text>
</g>
<!-- binaryExpression&#45;&gt;expression -->
<g id="edge9" class="edge">
<title>binaryExpression&#45;&gt;expression</title>
<path fill="none" stroke="black" d="M204.7,-1109.87C199.86,-1107.55 195.09,-1104.77 191,-1101.5 165.14,-1080.85 144.46,-1047.92 133.1,-1027.29"/>
<polygon fill="black" stroke="black" points="136.08,-1025.44 128.29,-1018.26 129.9,-1028.73 136.08,-1025.44"/>
</g>
<!-- body -->
<g id="node15" class="node">
<title>body</title>
<polygon fill="#b2dfee" stroke="#b2dfee" points="261,-648 207,-648 207,-629 261,-629 261,-648"/>
<text text-anchor="middle" x="234" y="-636" font-family="Times New Roman,serif" font-size="10.00">body</text>
</g>
<!-- body&#45;&gt;statement -->
<g id="edge10" class="edge">
<title>body&#45;&gt;statement</title>
<path fill="none" stroke="black" d="M206.83,-631.87C200.86,-629.23 195.09,-625.56 191,-620.5 138.39,-555.32 202.99,-504.15 155,-435.5 154.36,-434.58 153.66,-433.7 152.91,-432.86"/>
<polygon fill="black" stroke="black" points="155.03,-430.07 145.17,-426.21 150.47,-435.38 155.03,-430.07"/>
</g>
<!-- break -->
<g id="node16" class="node">
<title>break</title>
<polygon fill="#b2dfee" stroke="#b2dfee" points="261,-611 207,-611 207,-592 261,-592 261,-611"/>
<text text-anchor="middle" x="234" y="-599" font-family="Times New Roman,serif" font-size="10.00">break</text>
</g>
<!-- break&#45;&gt;statement -->
<g id="edge11" class="edge">
<title>break&#45;&gt;statement</title>
<path fill="none" stroke="black" d="M206.99,-594.74C201.02,-592.1 195.2,-588.47 191,-583.5 147.27,-531.82 195.06,-490.07 155,-435.5 154.23,-434.46 153.39,-433.46 152.49,-432.51"/>
<polygon fill="black" stroke="black" points="154.65,-429.75 144.71,-426.09 150.2,-435.15 154.65,-429.75"/>
</g>
<!-- call -->
<g id="node17" class="node">
<title>call</title>
<polygon fill="#b2dfee" stroke="#b2dfee" points="261,-1092 207,-1092 207,-1073 261,-1073 261,-1092"/>
<text text-anchor="middle" x="234" y="-1080" font-family="Times New Roman,serif" font-size="10.00">call</text>
</g>
<!-- call&#45;&gt;expression -->
<g id="edge12" class="edge">
<title>call&#45;&gt;expression</title>
<path fill="none" stroke="black" d="M207.54,-1072.98C201.94,-1070.51 196.14,-1067.64 191,-1064.5 172.5,-1053.19 153.69,-1037.13 140.64,-1025.1"/>
<polygon fill="black" stroke="black" points="143,-1022.52 133.32,-1018.22 138.2,-1027.62 143,-1022.52"/>
</g>
<!-- callStatement -->
<g id="node18" class="node">
<title>callStatement</title>
<polygon fill="#b2dfee" stroke="#b2dfee" points="269,-574 199,-574 199,-555 269,-555 269,-574"/>
<text text-anchor="middle" x="234" y="-562" font-family="Times New Roman,serif" font-size="10.00">callStatement</text>
</g>
<!-- callStatement&#45;&gt;statement -->
<g id="edge13" class="edge">
<title>callStatement&#45;&gt;statement</title>
<path fill="none" stroke="black" d="M202.06,-554.95C197.95,-552.68 194.1,-549.9 191,-546.5 156.04,-508.19 187.24,-476.12 155,-435.5 154.17,-434.46 153.27,-433.46 152.32,-432.51"/>
<polygon fill="black" stroke="black" points="154.18,-429.52 144.17,-426.04 149.83,-435 154.18,-429.52"/>
</g>
<!-- case -->
<g id="node19" class="node">
<title>case</title>
<polygon fill="#b2dfee" stroke="#b2dfee" points="261,-537 207,-537 207,-518 261,-518 261,-537"/>
<text text-anchor="middle" x="234" y="-525" font-family="Times New Roman,serif" font-size="10.00">case</text>
</g>
<!-- case&#45;&gt;statement -->
<g id="edge14" class="edge">
<title>case&#45;&gt;statement</title>
<path fill="none" stroke="black" d="M206.82,-519.69C201.13,-517.11 195.48,-513.77 191,-509.5 164.53,-484.26 179.67,-462.5 155,-435.5 153.98,-434.38 152.87,-433.3 151.71,-432.28"/>
<polygon fill="black" stroke="black" points="153.58,-429.3 143.46,-426.16 149.41,-434.93 153.58,-429.3"/>
</g>
<!-- class -->
<g id="node20" class="node">
<title>class</title>
<polygon fill="#b2dfee" stroke="#b2dfee" points="261,-167 207,-167 207,-148 261,-148 261,-167"/>
<text text-anchor="middle" x="234" y="-155" font-family="Times New Roman,serif" font-size="10.00">class</text>
</g>
<!-- type -->
<g id="node21" class="node">
<title>type</title>
<polygon fill="#b2dfee" stroke="#b2dfee" points="149.5,-366 95.5,-366 95.5,-347 149.5,-347 149.5,-366"/>
<text text-anchor="middle" x="122.5" y="-354" font-family="Times New Roman,serif" font-size="10.00">type</text>
</g>
<!-- class&#45;&gt;type -->
<g id="edge15" class="edge">
<title>class&#45;&gt;type</title>
<path fill="none" stroke="black" d="M206.9,-164.84C200.93,-167.63 195.14,-171.41 191,-176.5 144.49,-233.74 198.76,-279.13 155,-338.5 154.63,-339.01 154.23,-339.5 153.82,-339.98"/>
<polygon fill="black" stroke="black" points="151.27,-337.57 146.04,-346.79 155.87,-342.84 151.27,-337.57"/>
</g>
<!-- type&#45;&gt;joinpoint -->
<g id="edge44" class="edge">
<title>type&#45;&gt;joinpoint</title>
<path fill="none" stroke="black" d="M95.46,-356.5C85.81,-356.5 74.69,-356.5 64.3,-356.5"/>
<polygon fill="black" stroke="black" points="64.23,-353 54.23,-356.5 64.23,-360 64.23,-353"/>
</g>
<!-- comment -->
<g id="node22" class="node">
<title>comment</title>
<polygon fill="#b2dfee" stroke="#b2dfee" points="261,-500 207,-500 207,-481 261,-481 261,-500"/>
<text text-anchor="middle" x="234" y="-488" font-family="Times New Roman,serif" font-size="10.00">comment</text>
</g>
<!-- comment&#45;&gt;statement -->
<g id="edge16" class="edge">
<title>comment&#45;&gt;statement</title>
<path fill="none" stroke="black" d="M206.84,-481.18C201.39,-478.73 195.84,-475.82 191,-472.5 172.09,-459.51 172.97,-449.76 155,-435.5 153.42,-434.25 151.76,-433.02 150.05,-431.82"/>
<polygon fill="black" stroke="black" points="151.66,-428.69 141.36,-426.19 147.85,-434.57 151.66,-428.69"/>
</g>
<!-- constructor -->
<g id="node23" class="node">
<title>constructor</title>
<polygon fill="#b2dfee" stroke="#b2dfee" points="265.5,-796 202.5,-796 202.5,-777 265.5,-777 265.5,-796"/>
<text text-anchor="middle" x="234" y="-784" font-family="Times New Roman,serif" font-size="10.00">constructor</text>
</g>
<!-- constructor&#45;&gt;executable -->
<g id="edge17" class="edge">
<title>constructor&#45;&gt;executable</title>
<path fill="none" stroke="black" d="M202.5,-781.49C190.11,-779.45 175.66,-777.07 162.52,-774.91"/>
<polygon fill="black" stroke="black" points="162.77,-771.41 152.33,-773.24 161.63,-778.32 162.77,-771.41"/>
</g>
<!-- continue -->
<g id="node24" class="node">
<title>continue</title>
<polygon fill="#b2dfee" stroke="#b2dfee" points="261,-463 207,-463 207,-444 261,-444 261,-463"/>
<text text-anchor="middle" x="234" y="-451" font-family="Times New Roman,serif" font-size="10.00">continue</text>
</g>
<!-- continue&#45;&gt;statement -->
<g id="edge18" class="edge">
<title>continue&#45;&gt;statement</title>
<path fill="none" stroke="black" d="M206.77,-444.64C192.86,-439.94 175.55,-434.09 160.31,-428.94"/>
<polygon fill="black" stroke="black" points="161.25,-425.56 150.66,-425.68 159.01,-432.19 161.25,-425.56"/>
</g>
<!-- declaration -->
<g id="node25" class="node">
<title>declaration</title>
<polygon fill="#b2dfee" stroke="#b2dfee" points="153,-329 92,-329 92,-310 153,-310 153,-329"/>
<text text-anchor="middle" x="122.5" y="-317" font-family="Times New Roman,serif" font-size="10.00">declaration</text>
</g>
<!-- declaration&#45;&gt;joinpoint -->
<g id="edge19" class="edge">
<title>declaration&#45;&gt;joinpoint</title>
<path fill="none" stroke="black" d="M97.42,-329.03C86.6,-333.31 73.64,-338.44 61.86,-343.1"/>
<polygon fill="black" stroke="black" points="60.33,-339.94 52.32,-346.88 62.91,-346.45 60.33,-339.94"/>
</g>
<!-- enum -->
<g id="node26" class="node">
<title>enum</title>
<polygon fill="#b2dfee" stroke="#b2dfee" points="378,-167 324,-167 324,-148 378,-148 378,-167"/>
<text text-anchor="middle" x="351" y="-155" font-family="Times New Roman,serif" font-size="10.00">enum</text>
</g>
<!-- enum&#45;&gt;class -->
<g id="edge20" class="edge">
<title>enum&#45;&gt;class</title>
<path fill="none" stroke="black" d="M323.9,-157.5C308.43,-157.5 288.57,-157.5 271.56,-157.5"/>
<polygon fill="black" stroke="black" points="271.39,-154 261.39,-157.5 271.39,-161 271.39,-154"/>
</g>
<!-- field -->
<g id="node27" class="node">
<title>field</title>
<polygon fill="#b2dfee" stroke="#b2dfee" points="261,-93 207,-93 207,-74 261,-74 261,-93"/>
<text text-anchor="middle" x="234" y="-81" font-family="Times New Roman,serif" font-size="10.00">field</text>
</g>
<!-- field&#45;&gt;declaration -->
<g id="edge23" class="edge">
<title>field&#45;&gt;declaration</title>
<path fill="none" stroke="black" d="M206.78,-90.09C200.81,-92.73 195.05,-96.41 191,-101.5 134.77,-172.18 207.1,-227.72 155,-301.5 154.64,-302.01 154.25,-302.52 153.85,-303.01"/>
<polygon fill="black" stroke="black" points="151.29,-300.6 146.15,-309.87 155.95,-305.83 151.29,-300.6"/>
</g>
<!-- file -->
<g id="node28" class="node">
<title>file</title>
<polygon fill="#b2dfee" stroke="#b2dfee" points="149.5,-292 95.5,-292 95.5,-273 149.5,-273 149.5,-292"/>
<text text-anchor="middle" x="122.5" y="-280" font-family="Times New Roman,serif" font-size="10.00">file</text>
</g>
<!-- file&#45;&gt;joinpoint -->
<g id="edge24" class="edge">
<title>file&#45;&gt;joinpoint</title>
<path fill="none" stroke="black" d="M104.46,-292.01C99.66,-294.88 94.53,-298.17 90,-301.5 73.99,-313.28 57.21,-328.36 45.15,-339.75"/>
<polygon fill="black" stroke="black" points="42.42,-337.51 37.62,-346.96 47.26,-342.57 42.42,-337.51"/>
</g>
<!-- if -->
<g id="node29" class="node">
<title>if</title>
<polygon fill="#b2dfee" stroke="#b2dfee" points="261,-426 207,-426 207,-407 261,-407 261,-426"/>
<text text-anchor="middle" x="234" y="-414" font-family="Times New Roman,serif" font-size="10.00">if</text>
</g>
<!-- if&#45;&gt;statement -->
<g id="edge25" class="edge">
<title>if&#45;&gt;statement</title>
<path fill="none" stroke="black" d="M206.77,-416.5C192.99,-416.5 175.87,-416.5 160.75,-416.5"/>
<polygon fill="black" stroke="black" points="160.66,-413 150.66,-416.5 160.66,-420 160.66,-413"/>
</g>
<!-- interface -->
<g id="node30" class="node">
<title>interface</title>
<polygon fill="#b2dfee" stroke="#b2dfee" points="261,-130 207,-130 207,-111 261,-111 261,-130"/>
<text text-anchor="middle" x="234" y="-118" font-family="Times New Roman,serif" font-size="10.00">interface</text>
</g>
<!-- interface&#45;&gt;type -->
<g id="edge26" class="edge">
<title>interface&#45;&gt;type</title>
<path fill="none" stroke="black" d="M206.78,-127.09C200.81,-129.73 195.05,-133.41 191,-138.5 134.77,-209.18 207.1,-264.72 155,-338.5 154.64,-339.01 154.25,-339.52 153.85,-340.01"/>
<polygon fill="black" stroke="black" points="151.29,-337.6 146.15,-346.87 155.95,-342.83 151.29,-337.6"/>
</g>
<!-- libClass -->
<g id="node31" class="node">
<title>libClass</title>
<polygon fill="#b2dfee" stroke="#b2dfee" points="261,-19 207,-19 207,0 261,0 261,-19"/>
<text text-anchor="middle" x="234" y="-7" font-family="Times New Roman,serif" font-size="10.00">libClass</text>
</g>
<!-- libClass&#45;&gt;NamedType -->
<g id="edge27" class="edge">
<title>libClass&#45;&gt;NamedType</title>
<path fill="none" stroke="black" d="M206.77,-15.25C194.35,-17.97 179.21,-21.29 165.26,-24.35"/>
<polygon fill="black" stroke="black" points="164.39,-20.95 155.37,-26.51 165.89,-27.79 164.39,-20.95"/>
</g>
<!-- libMethod -->
<g id="node32" class="node">
<title>libMethod</title>
<polygon fill="#b2dfee" stroke="#b2dfee" points="152,-255 93,-255 93,-236 152,-236 152,-255"/>
<text text-anchor="middle" x="122.5" y="-243" font-family="Times New Roman,serif" font-size="10.00">libMethod</text>
</g>
<!-- libMethod&#45;&gt;joinpoint -->
<g id="edge28" class="edge">
<title>libMethod&#45;&gt;joinpoint</title>
<path fill="none" stroke="black" d="M102.56,-255.1C98.17,-257.8 93.7,-260.98 90,-264.5 67.08,-286.3 48.05,-318 37.35,-337.92"/>
<polygon fill="black" stroke="black" points="34.18,-336.42 32.66,-346.9 40.39,-339.66 34.18,-336.42"/>
</g>
<!-- literal -->
<g id="node33" class="node">
<title>literal</title>
<polygon fill="#b2dfee" stroke="#b2dfee" points="261,-1055 207,-1055 207,-1036 261,-1036 261,-1055"/>
<text text-anchor="middle" x="234" y="-1043" font-family="Times New Roman,serif" font-size="10.00">literal</text>
</g>
<!-- literal&#45;&gt;expression -->
<g id="edge29" class="edge">
<title>literal&#45;&gt;expression</title>
<path fill="none" stroke="black" d="M206.77,-1036.64C193.17,-1032.04 176.32,-1026.35 161.34,-1021.29"/>
<polygon fill="black" stroke="black" points="162.41,-1017.95 151.82,-1018.07 160.17,-1024.58 162.41,-1017.95"/>
</g>
<!-- localVariable -->
<g id="node34" class="node">
<title>localVariable</title>
<polygon fill="#b2dfee" stroke="#b2dfee" points="268,-389 200,-389 200,-370 268,-370 268,-389"/>
<text text-anchor="middle" x="234" y="-377" font-family="Times New Roman,serif" font-size="10.00">localVariable</text>
</g>
<!-- localVariable&#45;&gt;statement -->
<g id="edge30" class="edge">
<title>localVariable&#45;&gt;statement</title>
<path fill="none" stroke="black" d="M204.8,-389.03C191.31,-393.59 174.99,-399.1 160.51,-403.99"/>
<polygon fill="black" stroke="black" points="159.2,-400.74 150.85,-407.26 161.44,-407.37 159.2,-400.74"/>
</g>
<!-- loop -->
<g id="node35" class="node">
<title>loop</title>
<polygon fill="#b2dfee" stroke="#b2dfee" points="261,-352 207,-352 207,-333 261,-333 261,-352"/>
<text text-anchor="middle" x="234" y="-340" font-family="Times New Roman,serif" font-size="10.00">loop</text>
</g>
<!-- loop&#45;&gt;statement -->
<g id="edge31" class="edge">
<title>loop&#45;&gt;statement</title>
<path fill="none" stroke="black" d="M208.9,-352.11C202.89,-354.86 196.58,-358.05 191,-361.5 173.08,-372.6 154.65,-387.92 141.59,-399.58"/>
<polygon fill="black" stroke="black" points="138.88,-397.31 133.84,-406.63 143.59,-402.49 138.88,-397.31"/>
</g>
<!-- method -->
<g id="node36" class="node">
<title>method</title>
<polygon fill="#b2dfee" stroke="#b2dfee" points="261,-759 207,-759 207,-740 261,-740 261,-759"/>
<text text-anchor="middle" x="234" y="-747" font-family="Times New Roman,serif" font-size="10.00">method</text>
</g>
<!-- method&#45;&gt;executable -->
<g id="edge32" class="edge">
<title>method&#45;&gt;executable</title>
<path fill="none" stroke="black" d="M206.77,-754.05C193.41,-756.37 176.89,-759.24 162.11,-761.8"/>
<polygon fill="black" stroke="black" points="161.46,-758.36 152.21,-763.52 162.66,-765.26 161.46,-758.36"/>
</g>
<!-- new -->
<g id="node37" class="node">
<title>new</title>
<polygon fill="#b2dfee" stroke="#b2dfee" points="261,-1018 207,-1018 207,-999 261,-999 261,-1018"/>
<text text-anchor="middle" x="234" y="-1006" font-family="Times New Roman,serif" font-size="10.00">new</text>
</g>
<!-- new&#45;&gt;expression -->
<g id="edge33" class="edge">
<title>new&#45;&gt;expression</title>
<path fill="none" stroke="black" d="M206.77,-1008.5C193.53,-1008.5 177.21,-1008.5 162.53,-1008.5"/>
<polygon fill="black" stroke="black" points="162.21,-1005 152.21,-1008.5 162.2,-1012 162.21,-1005"/>
</g>
<!-- opAssignment -->
<g id="node38" class="node">
<title>opAssignment</title>
<polygon fill="#b2dfee" stroke="#b2dfee" points="389,-685 313,-685 313,-666 389,-666 389,-685"/>
<text text-anchor="middle" x="351" y="-673" font-family="Times New Roman,serif" font-size="10.00">opAssignment</text>
</g>
<!-- opAssignment&#45;&gt;assignment -->
<g id="edge34" class="edge">
<title>opAssignment&#45;&gt;assignment</title>
<path fill="none" stroke="black" d="M312.98,-675.5C300.87,-675.5 287.37,-675.5 275.06,-675.5"/>
<polygon fill="black" stroke="black" points="275.04,-672 265.04,-675.5 275.04,-679 275.04,-672"/>
</g>
<!-- pragma -->
<g id="node39" class="node">
<title>pragma</title>
<polygon fill="#b2dfee" stroke="#b2dfee" points="378,-500 324,-500 324,-481 378,-481 378,-500"/>
<text text-anchor="middle" x="351" y="-488" font-family="Times New Roman,serif" font-size="10.00">pragma</text>
</g>
<!-- pragma&#45;&gt;comment -->
<g id="edge35" class="edge">
<title>pragma&#45;&gt;comment</title>
<path fill="none" stroke="black" d="M323.9,-490.5C308.43,-490.5 288.57,-490.5 271.56,-490.5"/>
<polygon fill="black" stroke="black" points="271.39,-487 261.39,-490.5 271.39,-494 271.39,-487"/>
</g>
<!-- reference -->
<g id="node40" class="node">
<title>reference</title>
<polygon fill="#b2dfee" stroke="#b2dfee" points="149.5,-172 95.5,-172 95.5,-153 149.5,-153 149.5,-172"/>
<text text-anchor="middle" x="122.5" y="-160" font-family="Times New Roman,serif" font-size="10.00">reference</text>
</g>
<!-- reference&#45;&gt;joinpoint -->
<g id="edge36" class="edge">
<title>reference&#45;&gt;joinpoint</title>
<path fill="none" stroke="black" d="M116.79,-172.19C110.63,-184.88 99.48,-207.85 90,-227.5 71.11,-266.64 49.09,-312.51 37.04,-337.65"/>
<polygon fill="black" stroke="black" points="33.82,-336.26 32.66,-346.79 40.14,-339.28 33.82,-336.26"/>
</g>
<!-- return -->
<g id="node41" class="node">
<title>return</title>
<polygon fill="#b2dfee" stroke="#b2dfee" points="261,-315 207,-315 207,-296 261,-296 261,-315"/>
<text text-anchor="middle" x="234" y="-303" font-family="Times New Roman,serif" font-size="10.00">return</text>
</g>
<!-- return&#45;&gt;statement -->
<g id="edge37" class="edge">
<title>return&#45;&gt;statement</title>
<path fill="none" stroke="black" d="M206.86,-314.72C201.3,-317.38 195.69,-320.63 191,-324.5 169.61,-342.17 171.46,-353.16 155,-375.5 149.39,-383.12 143.05,-391.42 137.54,-398.55"/>
<polygon fill="black" stroke="black" points="134.5,-396.77 131.12,-406.81 140.02,-401.06 134.5,-396.77"/>
</g>
<!-- switch -->
<g id="node42" class="node">
<title>switch</title>
<polygon fill="#b2dfee" stroke="#b2dfee" points="261,-278 207,-278 207,-259 261,-259 261,-278"/>
<text text-anchor="middle" x="234" y="-266" font-family="Times New Roman,serif" font-size="10.00">switch</text>
</g>
<!-- switch&#45;&gt;statement -->
<g id="edge39" class="edge">
<title>switch&#45;&gt;statement</title>
<path fill="none" stroke="black" d="M206.61,-276.77C200.92,-279.49 195.33,-283.01 191,-287.5 161.67,-317.92 176.06,-338.86 155,-375.5 150.34,-383.6 144.27,-391.89 138.7,-398.87"/>
<polygon fill="black" stroke="black" points="135.72,-396.98 132.05,-406.92 141.12,-401.44 135.72,-396.98"/>
</g>
<!-- ternary -->
<g id="node43" class="node">
<title>ternary</title>
<polygon fill="#b2dfee" stroke="#b2dfee" points="261,-981 207,-981 207,-962 261,-962 261,-981"/>
<text text-anchor="middle" x="234" y="-969" font-family="Times New Roman,serif" font-size="10.00">ternary</text>
</g>
<!-- ternary&#45;&gt;expression -->
<g id="edge40" class="edge">
<title>ternary&#45;&gt;expression</title>
<path fill="none" stroke="black" d="M206.77,-980.36C193.17,-984.96 176.32,-990.65 161.34,-995.71"/>
<polygon fill="black" stroke="black" points="160.17,-992.42 151.82,-998.93 162.41,-999.05 160.17,-992.42"/>
</g>
<!-- this -->
<g id="node44" class="node">
<title>this</title>
<polygon fill="#b2dfee" stroke="#b2dfee" points="261,-944 207,-944 207,-925 261,-925 261,-944"/>
<text text-anchor="middle" x="234" y="-932" font-family="Times New Roman,serif" font-size="10.00">this</text>
</g>
<!-- this&#45;&gt;expression -->
<g id="edge41" class="edge">
<title>this&#45;&gt;expression</title>
<path fill="none" stroke="black" d="M208.9,-944.11C202.89,-946.86 196.58,-950.05 191,-953.5 173.08,-964.6 154.65,-979.92 141.59,-991.58"/>
<polygon fill="black" stroke="black" points="138.88,-989.31 133.84,-998.63 143.59,-994.49 138.88,-989.31"/>
</g>
<!-- throw -->
<g id="node45" class="node">
<title>throw</title>
<polygon fill="#b2dfee" stroke="#b2dfee" points="261,-241 207,-241 207,-222 261,-222 261,-241"/>
<text text-anchor="middle" x="234" y="-229" font-family="Times New Roman,serif" font-size="10.00">throw</text>
</g>
<!-- throw&#45;&gt;statement -->
<g id="edge42" class="edge">
<title>throw&#45;&gt;statement</title>
<path fill="none" stroke="black" d="M206.68,-239.23C200.86,-241.99 195.19,-245.66 191,-250.5 153.18,-294.22 181.07,-323.9 155,-375.5 150.85,-383.72 144.96,-391.95 139.39,-398.84"/>
<polygon fill="black" stroke="black" points="136.47,-396.88 132.68,-406.77 141.81,-401.41 136.47,-396.88"/>
</g>
<!-- try -->
<g id="node46" class="node">
<title>try</title>
<polygon fill="#b2dfee" stroke="#b2dfee" points="261,-204 207,-204 207,-185 261,-185 261,-204"/>
<text text-anchor="middle" x="234" y="-192" font-family="Times New Roman,serif" font-size="10.00">try</text>
</g>
<!-- try&#45;&gt;statement -->
<g id="edge43" class="edge">
<title>try&#45;&gt;statement</title>
<path fill="none" stroke="black" d="M206.9,-201.84C200.93,-204.63 195.14,-208.41 191,-213.5 144.49,-270.74 186.21,-308.67 155,-375.5 151.1,-383.85 145.26,-392.1 139.67,-398.98"/>
<polygon fill="black" stroke="black" points="136.75,-397.01 132.88,-406.87 142.05,-401.57 136.75,-397.01"/>
</g>
<!-- typeReference -->
<g id="node47" class="node">
<title>typeReference</title>
<polygon fill="#b2dfee" stroke="#b2dfee" points="271,-56 197,-56 197,-37 271,-37 271,-56"/>
<text text-anchor="middle" x="234" y="-44" font-family="Times New Roman,serif" font-size="10.00">typeReference</text>
</g>
<!-- typeReference&#45;&gt;reference -->
<g id="edge45" class="edge">
<title>typeReference&#45;&gt;reference</title>
<path fill="none" stroke="black" d="M204.63,-56.05C199.8,-58.38 195.05,-61.18 191,-64.5 164.1,-86.54 143.39,-121.97 132.36,-143.65"/>
<polygon fill="black" stroke="black" points="129.13,-142.29 127.86,-152.81 135.41,-145.37 129.13,-142.29"/>
</g>
<!-- unaryExpression -->
<g id="node48" class="node">
<title>unaryExpression</title>
<polygon fill="#b2dfee" stroke="#b2dfee" points="275.5,-907 192.5,-907 192.5,-888 275.5,-888 275.5,-907"/>
<text text-anchor="middle" x="234" y="-895" font-family="Times New Roman,serif" font-size="10.00">unaryExpression</text>
</g>
<!-- unaryExpression&#45;&gt;expression -->
<g id="edge46" class="edge">
<title>unaryExpression&#45;&gt;expression</title>
<path fill="none" stroke="black" d="M206.03,-907.21C200.76,-909.78 195.48,-912.87 191,-916.5 165.48,-937.19 144.69,-969.69 133.22,-990.01"/>
<polygon fill="black" stroke="black" points="130.08,-988.45 128.36,-998.9 136.23,-991.81 130.08,-988.45"/>
</g>
<!-- var -->
<g id="node49" class="node">
<title>var</title>
<polygon fill="#b2dfee" stroke="#b2dfee" points="261,-870 207,-870 207,-851 261,-851 261,-870"/>
<text text-anchor="middle" x="234" y="-858" font-family="Times New Roman,serif" font-size="10.00">var</text>
</g>
<!-- var&#45;&gt;expression -->
<g id="edge47" class="edge">
<title>var&#45;&gt;expression</title>
<path fill="none" stroke="black" d="M206.9,-869.07C201.21,-871.78 195.54,-875.21 191,-879.5 158.07,-910.6 138.16,-961.38 129.19,-989.04"/>
<polygon fill="black" stroke="black" points="125.8,-988.14 126.18,-998.73 132.49,-990.21 125.8,-988.14"/>
</g>
<!-- xmlElement -->
<g id="node50" class="node">
<title>xmlElement</title>
<polygon fill="#b2dfee" stroke="#b2dfee" points="264.5,-1240 203.5,-1240 203.5,-1221 264.5,-1221 264.5,-1240"/>
<text text-anchor="middle" x="234" y="-1228" font-family="Times New Roman,serif" font-size="10.00">xmlElement</text>
</g>
<!-- xmlElement&#45;&gt;xmlNode -->
<g id="edge48" class="edge">
<title>xmlElement&#45;&gt;xmlNode</title>
<path fill="none" stroke="black" d="M203.37,-1230.5C190.04,-1230.5 174.18,-1230.5 160.12,-1230.5"/>
<polygon fill="black" stroke="black" points="159.79,-1227 149.79,-1230.5 159.79,-1234 159.79,-1227"/>
</g>
</g>
</svg>
