<?xml version="1.0" encoding="UTF-8" standalone="no"?>
<!DOCTYPE svg PUBLIC "-//W3C//DTD SVG 1.1//EN"
 "http://www.w3.org/Graphics/SVG/1.1/DTD/svg11.dtd">
<!-- Generated by graphviz version 7.1.0 (20230121.1956)
 -->
<!-- Title: JavaWeaver_join_point_hierarchy_join_point_hierarchy Pages: 1 -->
<svg width="397pt" height="1322pt"
 viewBox="0.00 0.00 397.00 1322.00" xmlns="http://www.w3.org/2000/svg" xmlns:xlink="http://www.w3.org/1999/xlink">
<g id="graph0" class="graph" transform="scale(1 1) rotate(0) translate(4 1318)">
<title>JavaWeaver_join_point_hierarchy_join_point_hierarchy</title>
<polygon fill="white" stroke="none" points="-4,4 -4,-1318 393,-1318 393,4 -4,4"/>
<!-- NamedType -->
<g id="node1" class="node">
<title>NamedType</title>
<polygon fill="#b2dfee" stroke="#b2dfee" points="155,-31 90,-31 90,-12 155,-12 155,-31"/>
<text text-anchor="middle" x="122.5" y="-19" font-family="Times New Roman,serif" font-size="10.00">NamedType</text>
</g>
<!-- joinpoint -->
<g id="node2" class="node">
<title>joinpoint</title>
<polygon fill="#b2dfee" stroke="#b2dfee" points="54,-372 0,-372 0,-353 54,-353 54,-372"/>
<text text-anchor="middle" x="27" y="-360" font-family="Times New Roman,serif" font-size="10.00">joinpoint</text>
</g>
<!-- NamedType&#45;&gt;joinpoint -->
<g id="edge1" class="edge">
<title>NamedType&#45;&gt;joinpoint</title>
<path fill="none" stroke="black" d="M118.68,-31.29C113.11,-50.61 100.36,-95.05 90,-132.5 68.66,-209.63 44.15,-301.58 33.46,-341.87"/>
<polygon fill="black" stroke="black" points="30.12,-340.82 30.94,-351.38 36.89,-342.61 30.12,-340.82"/>
</g>
<!-- androidManifest -->
<g id="node3" class="node">
<title>androidManifest</title>
<polygon fill="#b2dfee" stroke="#b2dfee" points="275.5,-1314 192.5,-1314 192.5,-1295 275.5,-1295 275.5,-1314"/>
<text text-anchor="middle" x="234" y="-1302" font-family="Times New Roman,serif" font-size="10.00">androidManifest</text>
</g>
<!-- xmlNode -->
<g id="node4" class="node">
<title>xmlNode</title>
<polygon fill="#b2dfee" stroke="#b2dfee" points="149.5,-1277 95.5,-1277 95.5,-1258 149.5,-1258 149.5,-1277"/>
<text text-anchor="middle" x="122.5" y="-1265" font-family="Times New Roman,serif" font-size="10.00">xmlNode</text>
</g>
<!-- androidManifest&#45;&gt;xmlNode -->
<g id="edge2" class="edge">
<title>androidManifest&#45;&gt;xmlNode</title>
<path fill="none" stroke="black" d="M203.66,-1294.58C190.46,-1290.13 174.73,-1284.81 160.72,-1280.08"/>
<polygon fill="black" stroke="black" points="161.96,-1276.8 151.36,-1276.91 159.72,-1283.43 161.96,-1276.8"/>
</g>
<!-- xmlNode&#45;&gt;joinpoint -->
<g id="edge53" class="edge">
<title>xmlNode&#45;&gt;joinpoint</title>
<path fill="none" stroke="black" d="M119.76,-1257.81C114.59,-1228.67 99.08,-1139.2 90,-1064.5 57.44,-796.76 34.98,-469.58 29.37,-383.87"/>
<polygon fill="black" stroke="black" points="32.87,-383.69 28.73,-373.93 25.88,-384.14 32.87,-383.69"/>
</g>
<!-- annotation -->
<g id="node5" class="node">
<title>annotation</title>
<polygon fill="#b2dfee" stroke="#b2dfee" points="264,-1240 204,-1240 204,-1221 264,-1221 264,-1240"/>
<text text-anchor="middle" x="234" y="-1228" font-family="Times New Roman,serif" font-size="10.00">annotation</text>
</g>
<!-- expression -->
<g id="node6" class="node">
<title>expression</title>
<polygon fill="#b2dfee" stroke="#b2dfee" points="152,-1055 93,-1055 93,-1036 152,-1036 152,-1055"/>
<text text-anchor="middle" x="122.5" y="-1043" font-family="Times New Roman,serif" font-size="10.00">expression</text>
</g>
<!-- annotation&#45;&gt;expression -->
<g id="edge3" class="edge">
<title>annotation&#45;&gt;expression</title>
<path fill="none" stroke="black" d="M203.56,-1221.43C198.95,-1219.07 194.55,-1216.13 191,-1212.5 150.07,-1170.72 132.92,-1100.85 126.65,-1066.23"/>
<polygon fill="black" stroke="black" points="130.15,-1065.97 125.05,-1056.69 123.25,-1067.13 130.15,-1065.97"/>
</g>
<!-- expression&#45;&gt;joinpoint -->
<g id="edge24" class="edge">
<title>expression&#45;&gt;joinpoint</title>
<path fill="none" stroke="black" d="M120.09,-1035.81C115.61,-1004.96 101.31,-906.27 90,-824.5 66.45,-654.28 39.31,-448.58 30.74,-383.37"/>
<polygon fill="black" stroke="black" points="34.25,-383.22 29.48,-373.76 27.31,-384.13 34.25,-383.22"/>
</g>
<!-- anonymousExec -->
<g id="node7" class="node">
<title>anonymousExec</title>
<polygon fill="#b2dfee" stroke="#b2dfee" points="275,-870 193,-870 193,-851 275,-851 275,-870"/>
<text text-anchor="middle" x="234" y="-858" font-family="Times New Roman,serif" font-size="10.00">anonymousExec</text>
</g>
<!-- executable -->
<g id="node8" class="node">
<title>executable</title>
<polygon fill="#b2dfee" stroke="#b2dfee" points="152,-815 93,-815 93,-796 152,-796 152,-815"/>
<text text-anchor="middle" x="122.5" y="-803" font-family="Times New Roman,serif" font-size="10.00">executable</text>
</g>
<!-- anonymousExec&#45;&gt;executable -->
<g id="edge4" class="edge">
<title>anonymousExec&#45;&gt;executable</title>
<path fill="none" stroke="black" d="M208.83,-850.61C202.95,-848.08 196.71,-845.28 191,-842.5 177.43,-835.89 162.7,-827.92 150.47,-821.06"/>
<polygon fill="black" stroke="black" points="152.2,-818.02 141.78,-816.14 148.75,-824.11 152.2,-818.02"/>
</g>
<!-- executable&#45;&gt;joinpoint -->
<g id="edge23" class="edge">
<title>executable&#45;&gt;joinpoint</title>
<path fill="none" stroke="black" d="M119.46,-795.84C107.75,-740.35 49,-462 32.38,-383.28"/>
<polygon fill="black" stroke="black" points="35.9,-382.96 30.41,-373.9 29.05,-384.41 35.9,-382.96"/>
</g>
<!-- app -->
<g id="node9" class="node">
<title>app</title>
<polygon fill="#b2dfee" stroke="#b2dfee" points="149.5,-488 95.5,-488 95.5,-469 149.5,-469 149.5,-488"/>
<text text-anchor="middle" x="122.5" y="-476" font-family="Times New Roman,serif" font-size="10.00">app</text>
</g>
<!-- app&#45;&gt;joinpoint -->
<g id="edge5" class="edge">
<title>app&#45;&gt;joinpoint</title>
<path fill="none" stroke="black" d="M100.82,-468.63C96.99,-466.27 93.19,-463.55 90,-460.5 66.07,-437.62 47.3,-403.7 36.94,-382.36"/>
<polygon fill="black" stroke="black" points="40.23,-381.15 32.82,-373.58 33.9,-384.12 40.23,-381.15"/>
</g>
<!-- arrayAccess -->
<g id="node10" class="node">
<title>arrayAccess</title>
<polygon fill="#b2dfee" stroke="#b2dfee" points="267.5,-1203 200.5,-1203 200.5,-1184 267.5,-1184 267.5,-1203"/>
<text text-anchor="middle" x="234" y="-1191" font-family="Times New Roman,serif" font-size="10.00">arrayAccess</text>
</g>
<!-- arrayAccess&#45;&gt;expression -->
<g id="edge6" class="edge">
<title>arrayAccess&#45;&gt;expression</title>
<path fill="none" stroke="black" d="M202.97,-1183.7C198.65,-1181.45 194.49,-1178.74 191,-1175.5 158.05,-1144.9 138.41,-1094.55 129.42,-1066.33"/>
<polygon fill="black" stroke="black" points="132.8,-1065.4 126.55,-1056.84 126.09,-1067.43 132.8,-1065.4"/>
</g>
<!-- assert -->
<g id="node11" class="node">
<title>assert</title>
<polygon fill="#b2dfee" stroke="#b2dfee" points="261,-759 207,-759 207,-740 261,-740 261,-759"/>
<text text-anchor="middle" x="234" y="-747" font-family="Times New Roman,serif" font-size="10.00">assert</text>
</g>
<!-- statement -->
<g id="node12" class="node">
<title>statement</title>
<polygon fill="#b2dfee" stroke="#b2dfee" points="150.5,-451 94.5,-451 94.5,-432 150.5,-432 150.5,-451"/>
<text text-anchor="middle" x="122.5" y="-439" font-family="Times New Roman,serif" font-size="10.00">statement</text>
</g>
<!-- assert&#45;&gt;statement -->
<g id="edge7" class="edge">
<title>assert&#45;&gt;statement</title>
<path fill="none" stroke="black" d="M206.62,-743.04C200.65,-740.39 194.93,-736.68 191,-731.5 117.57,-634.7 221.59,-562.13 155,-460.5 154.7,-460.05 154.39,-459.6 154.06,-459.17"/>
<polygon fill="black" stroke="black" points="156.46,-456.62 146.77,-452.35 151.68,-461.73 156.46,-456.62"/>
</g>
<!-- statement&#45;&gt;joinpoint -->
<g id="edge42" class="edge">
<title>statement&#45;&gt;joinpoint</title>
<path fill="none" stroke="black" d="M110.04,-431.81C94.68,-418.84 67.2,-395.62 48.3,-379.65"/>
<polygon fill="black" stroke="black" points="50.61,-377.02 40.71,-373.24 46.09,-382.37 50.61,-377.02"/>
</g>
<!-- assignment -->
<g id="node13" class="node">
<title>assignment</title>
<polygon fill="#b2dfee" stroke="#b2dfee" points="265,-722 203,-722 203,-703 265,-703 265,-722"/>
<text text-anchor="middle" x="234" y="-710" font-family="Times New Roman,serif" font-size="10.00">assignment</text>
</g>
<!-- assignment&#45;&gt;statement -->
<g id="edge8" class="edge">
<title>assignment&#45;&gt;statement</title>
<path fill="none" stroke="black" d="M202.81,-704.08C198.29,-701.64 194.11,-698.51 191,-694.5 126.55,-611.33 213.57,-547.91 155,-460.5 154.7,-460.05 154.38,-459.61 154.05,-459.17"/>
<polygon fill="black" stroke="black" points="156.43,-456.61 146.71,-452.38 151.67,-461.74 156.43,-456.61"/>
</g>
<!-- binaryExpression -->
<g id="node14" class="node">
<title>binaryExpression</title>
<polygon fill="#b2dfee" stroke="#b2dfee" points="277,-1166 191,-1166 191,-1147 277,-1147 277,-1166"/>
<text text-anchor="middle" x="234" y="-1154" font-family="Times New Roman,serif" font-size="10.00">binaryExpression</text>
</g>
<!-- binaryExpression&#45;&gt;expression -->
<g id="edge9" class="edge">
<title>binaryExpression&#45;&gt;expression</title>
<path fill="none" stroke="black" d="M204.26,-1146.66C199.58,-1144.38 194.97,-1141.67 191,-1138.5 165.5,-1118.13 145.02,-1085.82 133.57,-1065.14"/>
<polygon fill="black" stroke="black" points="136.8,-1063.76 129,-1056.59 130.62,-1067.06 136.8,-1063.76"/>
</g>
<!-- body -->
<g id="node15" class="node">
<title>body</title>
<polygon fill="#b2dfee" stroke="#b2dfee" points="261,-685 207,-685 207,-666 261,-666 261,-685"/>
<text text-anchor="middle" x="234" y="-673" font-family="Times New Roman,serif" font-size="10.00">body</text>
</g>
<!-- body&#45;&gt;statement -->
<g id="edge10" class="edge">
<title>body&#45;&gt;statement</title>
<path fill="none" stroke="black" d="M206.79,-668.91C200.82,-666.26 195.06,-662.59 191,-657.5 135.5,-587.92 205.58,-533.74 155,-460.5 154.61,-459.94 154.21,-459.4 153.78,-458.87"/>
<polygon fill="black" stroke="black" points="156.41,-456.53 146.64,-452.42 151.72,-461.72 156.41,-456.53"/>
</g>
<!-- break -->
<g id="node16" class="node">
<title>break</title>
<polygon fill="#b2dfee" stroke="#b2dfee" points="261,-648 207,-648 207,-629 261,-629 261,-648"/>
<text text-anchor="middle" x="234" y="-636" font-family="Times New Roman,serif" font-size="10.00">break</text>
</g>
<!-- break&#45;&gt;statement -->
<g id="edge11" class="edge">
<title>break&#45;&gt;statement</title>
<path fill="none" stroke="black" d="M206.93,-631.79C200.96,-629.15 195.16,-625.5 191,-620.5 144.4,-564.45 197.63,-519.62 155,-460.5 154.6,-459.95 154.18,-459.41 153.75,-458.89"/>
<polygon fill="black" stroke="black" points="156.34,-456.51 146.54,-452.49 151.7,-461.75 156.34,-456.51"/>
</g>
<!-- call -->
<g id="node17" class="node">
<title>call</title>
<polygon fill="#b2dfee" stroke="#b2dfee" points="261,-1129 207,-1129 207,-1110 261,-1110 261,-1129"/>
<text text-anchor="middle" x="234" y="-1117" font-family="Times New Roman,serif" font-size="10.00">call</text>
</g>
<!-- call&#45;&gt;expression -->
<g id="edge12" class="edge">
<title>call&#45;&gt;expression</title>
<path fill="none" stroke="black" d="M206.65,-1109.59C201.33,-1107.21 195.87,-1104.48 191,-1101.5 172.84,-1090.4 154.4,-1074.73 141.38,-1062.79"/>
<polygon fill="black" stroke="black" points="144.11,-1060.54 134.42,-1056.25 139.32,-1065.65 144.11,-1060.54"/>
</g>
<!-- callStatement -->
<g id="node18" class="node">
<title>callStatement</title>
<polygon fill="#b2dfee" stroke="#b2dfee" points="269,-611 199,-611 199,-592 269,-592 269,-611"/>
<text text-anchor="middle" x="234" y="-599" font-family="Times New Roman,serif" font-size="10.00">callStatement</text>
</g>
<!-- callStatement&#45;&gt;statement -->
<g id="edge13" class="edge">
<title>callStatement&#45;&gt;statement</title>
<path fill="none" stroke="black" d="M201.13,-591.55C197.35,-589.36 193.84,-586.71 191,-583.5 153.21,-540.88 189.76,-505.62 155,-460.5 154.57,-459.95 154.13,-459.41 153.66,-458.88"/>
<polygon fill="black" stroke="black" points="155.93,-456.22 146.05,-452.39 151.39,-461.54 155.93,-456.22"/>
</g>
<!-- case -->
<g id="node19" class="node">
<title>case</title>
<polygon fill="#b2dfee" stroke="#b2dfee" points="261,-574 207,-574 207,-555 261,-555 261,-574"/>
<text text-anchor="middle" x="234" y="-562" font-family="Times New Roman,serif" font-size="10.00">case</text>
</g>
<!-- case&#45;&gt;statement -->
<g id="edge14" class="edge">
<title>case&#45;&gt;statement</title>
<path fill="none" stroke="black" d="M206.64,-556.87C200.96,-554.28 195.36,-550.89 191,-546.5 161.82,-517.08 182.08,-491.86 155,-460.5 154.44,-459.85 153.84,-459.21 153.23,-458.59"/>
<polygon fill="black" stroke="black" points="155.45,-455.89 145.45,-452.39 151.09,-461.36 155.45,-455.89"/>
</g>
<!-- catch -->
<g id="node20" class="node">
<title>catch</title>
<polygon fill="#b2dfee" stroke="#b2dfee" points="149.5,-391 95.5,-391 95.5,-372 149.5,-372 149.5,-391"/>
<text text-anchor="middle" x="122.5" y="-379" font-family="Times New Roman,serif" font-size="10.00">catch</text>
</g>
<!-- catch&#45;&gt;joinpoint -->
<g id="edge15" class="edge">
<title>catch&#45;&gt;joinpoint</title>
<path fill="none" stroke="black" d="M95.46,-376.21C86.11,-374.31 75.38,-372.13 65.27,-370.07"/>
<polygon fill="black" stroke="black" points="66.21,-366.69 55.71,-368.13 64.82,-373.55 66.21,-366.69"/>
</g>
<!-- class -->
<g id="node21" class="node">
<title>class</title>
<polygon fill="#b2dfee" stroke="#b2dfee" points="261,-167 207,-167 207,-148 261,-148 261,-167"/>
<text text-anchor="middle" x="234" y="-155" font-family="Times New Roman,serif" font-size="10.00">class</text>
</g>
<!-- type -->
<g id="node22" class="node">
<title>type</title>
<polygon fill="#b2dfee" stroke="#b2dfee" points="149.5,-354 95.5,-354 95.5,-335 149.5,-335 149.5,-354"/>
<text text-anchor="middle" x="122.5" y="-342" font-family="Times New Roman,serif" font-size="10.00">type</text>
</g>
<!-- class&#45;&gt;type -->
<g id="edge16" class="edge">
<title>class&#45;&gt;type</title>
<path fill="none" stroke="black" d="M206.53,-165.1C200.71,-167.86 195.08,-171.57 191,-176.5 147.32,-229.34 196.14,-271.66 155,-326.5 154.93,-326.6 154.85,-326.69 154.78,-326.79"/>
<polygon fill="black" stroke="black" points="152.44,-324.18 147.43,-333.52 157.17,-329.35 152.44,-324.18"/>
</g>
<!-- type&#45;&gt;joinpoint -->
<g id="edge48" class="edge">
<title>type&#45;&gt;joinpoint</title>
<path fill="none" stroke="black" d="M95.46,-349.51C86.11,-351.31 75.38,-353.38 65.27,-355.32"/>
<polygon fill="black" stroke="black" points="64.87,-351.84 55.72,-357.16 66.2,-358.71 64.87,-351.84"/>
</g>
<!-- comment -->
<g id="node23" class="node">
<title>comment</title>
<polygon fill="#b2dfee" stroke="#b2dfee" points="261,-537 207,-537 207,-518 261,-518 261,-537"/>
<text text-anchor="middle" x="234" y="-525" font-family="Times New Roman,serif" font-size="10.00">comment</text>
</g>
<!-- comment&#45;&gt;statement -->
<g id="edge17" class="edge">
<title>comment&#45;&gt;statement</title>
<path fill="none" stroke="black" d="M206.91,-518.88C201.34,-516.36 195.72,-513.25 191,-509.5 169.84,-492.7 174.96,-478.72 155,-460.5 153.97,-459.56 152.88,-458.63 151.75,-457.74"/>
<polygon fill="black" stroke="black" points="154.12,-455.12 143.92,-452.28 150.12,-460.87 154.12,-455.12"/>
</g>
<!-- constructor -->
<g id="node24" class="node">
<title>constructor</title>
<polygon fill="#b2dfee" stroke="#b2dfee" points="265.5,-833 202.5,-833 202.5,-814 265.5,-814 265.5,-833"/>
<text text-anchor="middle" x="234" y="-821" font-family="Times New Roman,serif" font-size="10.00">constructor</text>
</g>
<!-- constructor&#45;&gt;executable -->
<g id="edge18" class="edge">
<title>constructor&#45;&gt;executable</title>
<path fill="none" stroke="black" d="M202.21,-818.44C190.2,-816.46 176.27,-814.17 163.5,-812.08"/>
<polygon fill="black" stroke="black" points="164.11,-808.63 153.68,-810.46 162.98,-815.54 164.11,-808.63"/>
</g>
<!-- continue -->
<g id="node25" class="node">
<title>continue</title>
<polygon fill="#b2dfee" stroke="#b2dfee" points="261,-500 207,-500 207,-481 261,-481 261,-500"/>
<text text-anchor="middle" x="234" y="-488" font-family="Times New Roman,serif" font-size="10.00">continue</text>
</g>
<!-- continue&#45;&gt;statement -->
<g id="edge19" class="edge">
<title>continue&#45;&gt;statement</title>
<path fill="none" stroke="black" d="M209.41,-480.51C203.39,-477.93 196.95,-475.14 191,-472.5 179.21,-467.27 166.33,-461.39 155.01,-456.17"/>
<polygon fill="black" stroke="black" points="156.64,-453.07 146.09,-452.05 153.7,-459.42 156.64,-453.07"/>
</g>
<!-- declaration -->
<g id="node26" class="node">
<title>declaration</title>
<polygon fill="#b2dfee" stroke="#b2dfee" points="153,-317 92,-317 92,-298 153,-298 153,-317"/>
<text text-anchor="middle" x="122.5" y="-305" font-family="Times New Roman,serif" font-size="10.00">declaration</text>
</g>
<!-- declaration&#45;&gt;joinpoint -->
<g id="edge20" class="edge">
<title>declaration&#45;&gt;joinpoint</title>
<path fill="none" stroke="black" d="M104.78,-317.33C90.91,-325.49 70.91,-337.26 54.81,-346.73"/>
<polygon fill="black" stroke="black" points="53.04,-343.71 46.19,-351.8 56.58,-349.75 53.04,-343.71"/>
</g>
<!-- enum -->
<g id="node27" class="node">
<title>enum</title>
<polygon fill="#b2dfee" stroke="#b2dfee" points="378,-167 324,-167 324,-148 378,-148 378,-167"/>
<text text-anchor="middle" x="351" y="-155" font-family="Times New Roman,serif" font-size="10.00">enum</text>
</g>
<!-- enum&#45;&gt;class -->
<g id="edge21" class="edge">
<title>enum&#45;&gt;class</title>
<path fill="none" stroke="black" d="M323.62,-157.5C308.42,-157.5 289.08,-157.5 272.35,-157.5"/>
<polygon fill="black" stroke="black" points="272.77,-154 262.77,-157.5 272.77,-161 272.77,-154"/>
</g>
<!-- enumValue -->
<g id="node28" class="node">
<title>enumValue</title>
<polygon fill="#b2dfee" stroke="#b2dfee" points="381.5,-93 320.5,-93 320.5,-74 381.5,-74 381.5,-93"/>
<text text-anchor="middle" x="351" y="-81" font-family="Times New Roman,serif" font-size="10.00">enumValue</text>
</g>
<!-- field -->
<g id="node29" class="node">
<title>field</title>
<polygon fill="#b2dfee" stroke="#b2dfee" points="261,-93 207,-93 207,-74 261,-74 261,-93"/>
<text text-anchor="middle" x="234" y="-81" font-family="Times New Roman,serif" font-size="10.00">field</text>
</g>
<!-- enumValue&#45;&gt;field -->
<g id="edge22" class="edge">
<title>enumValue&#45;&gt;field</title>
<path fill="none" stroke="black" d="M320.09,-83.5C305.55,-83.5 287.94,-83.5 272.52,-83.5"/>
<polygon fill="black" stroke="black" points="272.76,-80 262.76,-83.5 272.76,-87 272.76,-80"/>
</g>
<!-- field&#45;&gt;declaration -->
<g id="edge25" class="edge">
<title>field&#45;&gt;declaration</title>
<path fill="none" stroke="black" d="M206.8,-90.76C200.84,-93.55 195.07,-97.35 191,-102.5 138.57,-168.94 204.24,-220.66 155,-289.5 154.93,-289.6 154.86,-289.7 154.78,-289.8"/>
<polygon fill="black" stroke="black" points="152.44,-287.2 147.54,-296.59 157.23,-292.3 152.44,-287.2"/>
</g>
<!-- fieldAccess -->
<g id="node30" class="node">
<title>fieldAccess</title>
<polygon fill="#b2dfee" stroke="#b2dfee" points="383,-1092 319,-1092 319,-1073 383,-1073 383,-1092"/>
<text text-anchor="middle" x="351" y="-1080" font-family="Times New Roman,serif" font-size="10.00">fieldAccess</text>
</g>
<!-- var -->
<g id="node31" class="node">
<title>var</title>
<polygon fill="#b2dfee" stroke="#b2dfee" points="261,-1092 207,-1092 207,-1073 261,-1073 261,-1092"/>
<text text-anchor="middle" x="234" y="-1080" font-family="Times New Roman,serif" font-size="10.00">var</text>
</g>
<!-- fieldAccess&#45;&gt;var -->
<g id="edge26" class="edge">
<title>fieldAccess&#45;&gt;var</title>
<path fill="none" stroke="black" d="M318.58,-1082.5C304.41,-1082.5 287.56,-1082.5 272.72,-1082.5"/>
<polygon fill="black" stroke="black" points="272.84,-1079 262.84,-1082.5 272.84,-1086 272.84,-1079"/>
</g>
<!-- var&#45;&gt;expression -->
<g id="edge51" class="edge">
<title>var&#45;&gt;expression</title>
<path fill="none" stroke="black" d="M206.77,-1073.64C193.66,-1069.21 177.53,-1063.76 162.96,-1058.83"/>
<polygon fill="black" stroke="black" points="164.23,-1055.57 153.64,-1055.68 161.99,-1062.2 164.23,-1055.57"/>
</g>
<!-- file -->
<g id="node32" class="node">
<title>file</title>
<polygon fill="#b2dfee" stroke="#b2dfee" points="149.5,-280 95.5,-280 95.5,-261 149.5,-261 149.5,-280"/>
<text text-anchor="middle" x="122.5" y="-268" font-family="Times New Roman,serif" font-size="10.00">file</text>
</g>
<!-- file&#45;&gt;joinpoint -->
<g id="edge27" class="edge">
<title>file&#45;&gt;joinpoint</title>
<path fill="none" stroke="black" d="M102.82,-280.4C98.43,-283.09 93.89,-286.19 90,-289.5 71.09,-305.58 53.15,-327.73 41.48,-343.41"/>
<polygon fill="black" stroke="black" points="38.7,-341.27 35.66,-351.42 44.37,-345.39 38.7,-341.27"/>
</g>
<!-- if -->
<g id="node33" class="node">
<title>if</title>
<polygon fill="#b2dfee" stroke="#b2dfee" points="261,-463 207,-463 207,-444 261,-444 261,-463"/>
<text text-anchor="middle" x="234" y="-451" font-family="Times New Roman,serif" font-size="10.00">if</text>
</g>
<!-- if&#45;&gt;statement -->
<g id="edge28" class="edge">
<title>if&#45;&gt;statement</title>
<path fill="none" stroke="black" d="M206.77,-450.63C193.39,-449.16 176.86,-447.35 162.06,-445.73"/>
<polygon fill="black" stroke="black" points="162.48,-442.25 152.16,-444.64 161.72,-449.21 162.48,-442.25"/>
</g>
<!-- interface -->
<g id="node34" class="node">
<title>interface</title>
<polygon fill="#b2dfee" stroke="#b2dfee" points="261,-130 207,-130 207,-111 261,-111 261,-130"/>
<text text-anchor="middle" x="234" y="-118" font-family="Times New Roman,serif" font-size="10.00">interface</text>
</g>
<!-- interface&#45;&gt;type -->
<g id="edge29" class="edge">
<title>interface&#45;&gt;type</title>
<path fill="none" stroke="black" d="M206.8,-127.76C200.84,-130.55 195.07,-134.35 191,-139.5 138.57,-205.94 204.24,-257.66 155,-326.5 154.93,-326.6 154.86,-326.7 154.78,-326.8"/>
<polygon fill="black" stroke="black" points="152.44,-324.2 147.54,-333.59 157.23,-329.3 152.44,-324.2"/>
</g>
<!-- libClass -->
<g id="node35" class="node">
<title>libClass</title>
<polygon fill="#b2dfee" stroke="#b2dfee" points="261,-19 207,-19 207,0 261,0 261,-19"/>
<text text-anchor="middle" x="234" y="-7" font-family="Times New Roman,serif" font-size="10.00">libClass</text>
</g>
<!-- libClass&#45;&gt;NamedType -->
<g id="edge30" class="edge">
<title>libClass&#45;&gt;NamedType</title>
<path fill="none" stroke="black" d="M206.77,-12.37C194.71,-13.7 180.09,-15.3 166.48,-16.79"/>
<polygon fill="black" stroke="black" points="166.44,-13.27 156.88,-17.84 167.2,-20.23 166.44,-13.27"/>
</g>
<!-- libMethod -->
<g id="node36" class="node">
<title>libMethod</title>
<polygon fill="#b2dfee" stroke="#b2dfee" points="152,-243 93,-243 93,-224 152,-224 152,-243"/>
<text text-anchor="middle" x="122.5" y="-231" font-family="Times New Roman,serif" font-size="10.00">libMethod</text>
</g>
<!-- libMethod&#45;&gt;joinpoint -->
<g id="edge31" class="edge">
<title>libMethod&#45;&gt;joinpoint</title>
<path fill="none" stroke="black" d="M101.7,-243.31C97.53,-245.93 93.38,-249.02 90,-252.5 64.26,-279.01 45.54,-318.28 35.76,-342.03"/>
<polygon fill="black" stroke="black" points="32.55,-340.61 32.13,-351.2 39.06,-343.19 32.55,-340.61"/>
</g>
<!-- literal -->
<g id="node37" class="node">
<title>literal</title>
<polygon fill="#b2dfee" stroke="#b2dfee" points="261,-1055 207,-1055 207,-1036 261,-1036 261,-1055"/>
<text text-anchor="middle" x="234" y="-1043" font-family="Times New Roman,serif" font-size="10.00">literal</text>
</g>
<!-- literal&#45;&gt;expression -->
<g id="edge32" class="edge">
<title>literal&#45;&gt;expression</title>
<path fill="none" stroke="black" d="M206.77,-1045.5C193.79,-1045.5 177.84,-1045.5 163.39,-1045.5"/>
<polygon fill="black" stroke="black" points="163.72,-1042 153.72,-1045.5 163.72,-1049 163.72,-1042"/>
</g>
<!-- localVariable -->
<g id="node38" class="node">
<title>localVariable</title>
<polygon fill="#b2dfee" stroke="#b2dfee" points="268,-426 200,-426 200,-407 268,-407 268,-426"/>
<text text-anchor="middle" x="234" y="-414" font-family="Times New Roman,serif" font-size="10.00">localVariable</text>
</g>
<!-- localVariable&#45;&gt;statement -->
<g id="edge33" class="edge">
<title>localVariable&#45;&gt;statement</title>
<path fill="none" stroke="black" d="M199.55,-424.14C187.61,-426.86 174.07,-429.96 161.75,-432.77"/>
<polygon fill="black" stroke="black" points="161.31,-429.28 152.34,-434.92 162.87,-436.1 161.31,-429.28"/>
</g>
<!-- loop -->
<g id="node39" class="node">
<title>loop</title>
<polygon fill="#b2dfee" stroke="#b2dfee" points="261,-389 207,-389 207,-370 261,-370 261,-389"/>
<text text-anchor="middle" x="234" y="-377" font-family="Times New Roman,serif" font-size="10.00">loop</text>
</g>
<!-- loop&#45;&gt;statement -->
<g id="edge34" class="edge">
<title>loop&#45;&gt;statement</title>
<path fill="none" stroke="black" d="M209.61,-389.37C203.47,-392.16 196.91,-395.3 191,-398.5 175.96,-406.64 159.78,-416.89 147.03,-425.35"/>
<polygon fill="black" stroke="black" points="145.23,-422.34 138.88,-430.82 149.13,-428.15 145.23,-422.34"/>
</g>
<!-- method -->
<g id="node40" class="node">
<title>method</title>
<polygon fill="#b2dfee" stroke="#b2dfee" points="261,-796 207,-796 207,-777 261,-777 261,-796"/>
<text text-anchor="middle" x="234" y="-784" font-family="Times New Roman,serif" font-size="10.00">method</text>
</g>
<!-- method&#45;&gt;executable -->
<g id="edge35" class="edge">
<title>method&#45;&gt;executable</title>
<path fill="none" stroke="black" d="M206.77,-791.05C193.79,-793.3 177.84,-796.07 163.39,-798.58"/>
<polygon fill="black" stroke="black" points="162.95,-795.1 153.7,-800.26 164.15,-802 162.95,-795.1"/>
</g>
<!-- new -->
<g id="node41" class="node">
<title>new</title>
<polygon fill="#b2dfee" stroke="#b2dfee" points="261,-1018 207,-1018 207,-999 261,-999 261,-1018"/>
<text text-anchor="middle" x="234" y="-1006" font-family="Times New Roman,serif" font-size="10.00">new</text>
</g>
<!-- new&#45;&gt;expression -->
<g id="edge36" class="edge">
<title>new&#45;&gt;expression</title>
<path fill="none" stroke="black" d="M206.77,-1017.36C193.66,-1021.79 177.53,-1027.24 162.96,-1032.17"/>
<polygon fill="black" stroke="black" points="161.99,-1028.8 153.64,-1035.32 164.23,-1035.43 161.99,-1028.8"/>
</g>
<!-- opAssignment -->
<g id="node42" class="node">
<title>opAssignment</title>
<polygon fill="#b2dfee" stroke="#b2dfee" points="389,-722 313,-722 313,-703 389,-703 389,-722"/>
<text text-anchor="middle" x="351" y="-710" font-family="Times New Roman,serif" font-size="10.00">opAssignment</text>
</g>
<!-- opAssignment&#45;&gt;assignment -->
<g id="edge37" class="edge">
<title>opAssignment&#45;&gt;assignment</title>
<path fill="none" stroke="black" d="M312.66,-712.5C301.15,-712.5 288.41,-712.5 276.63,-712.5"/>
<polygon fill="black" stroke="black" points="276.76,-709 266.76,-712.5 276.76,-716 276.76,-709"/>
</g>
<!-- pragma -->
<g id="node43" class="node">
<title>pragma</title>
<polygon fill="#b2dfee" stroke="#b2dfee" points="378,-537 324,-537 324,-518 378,-518 378,-537"/>
<text text-anchor="middle" x="351" y="-525" font-family="Times New Roman,serif" font-size="10.00">pragma</text>
</g>
<!-- pragma&#45;&gt;comment -->
<g id="edge38" class="edge">
<title>pragma&#45;&gt;comment</title>
<path fill="none" stroke="black" d="M323.62,-527.5C308.42,-527.5 289.08,-527.5 272.35,-527.5"/>
<polygon fill="black" stroke="black" points="272.77,-524 262.77,-527.5 272.77,-531 272.77,-524"/>
</g>
<!-- reference -->
<g id="node44" class="node">
<title>reference</title>
<polygon fill="#b2dfee" stroke="#b2dfee" points="149.5,-160 95.5,-160 95.5,-141 149.5,-141 149.5,-160"/>
<text text-anchor="middle" x="122.5" y="-148" font-family="Times New Roman,serif" font-size="10.00">reference</text>
</g>
<!-- reference&#45;&gt;joinpoint -->
<g id="edge39" class="edge">
<title>reference&#45;&gt;joinpoint</title>
<path fill="none" stroke="black" d="M116.65,-160.12C110.32,-172.74 99,-195.62 90,-215.5 69.71,-260.32 47.73,-313.71 36.17,-342.2"/>
<polygon fill="black" stroke="black" points="32.96,-340.81 32.46,-351.39 39.45,-343.43 32.96,-340.81"/>
</g>
<!-- return -->
<g id="node45" class="node">
<title>return</title>
<polygon fill="#b2dfee" stroke="#b2dfee" points="261,-352 207,-352 207,-333 261,-333 261,-352"/>
<text text-anchor="middle" x="234" y="-340" font-family="Times New Roman,serif" font-size="10.00">return</text>
</g>
<!-- return&#45;&gt;statement -->
<g id="edge40" class="edge">
<title>return&#45;&gt;statement</title>
<path fill="none" stroke="black" d="M206.66,-352.24C201.23,-354.83 195.72,-357.93 191,-361.5 178.86,-370.68 153.72,-402.09 137.78,-422.71"/>
<polygon fill="black" stroke="black" points="135.21,-420.3 131.91,-430.37 140.77,-424.56 135.21,-420.3"/>
</g>
<!-- snippetStmt -->
<g id="node46" class="node">
<title>snippetStmt</title>
<polygon fill="#b2dfee" stroke="#b2dfee" points="266.5,-315 201.5,-315 201.5,-296 266.5,-296 266.5,-315"/>
<text text-anchor="middle" x="234" y="-303" font-family="Times New Roman,serif" font-size="10.00">snippetStmt</text>
</g>
<!-- snippetStmt&#45;&gt;statement -->
<g id="edge41" class="edge">
<title>snippetStmt&#45;&gt;statement</title>
<path fill="none" stroke="black" d="M203.73,-315.47C199.11,-317.93 194.65,-320.91 191,-324.5 164.34,-350.7 174.5,-368.61 155,-400.5 150.24,-408.29 144.28,-416.37 138.84,-423.27"/>
<polygon fill="black" stroke="black" points="136.44,-420.68 132.84,-430.64 141.87,-425.09 136.44,-420.68"/>
</g>
<!-- switch -->
<g id="node47" class="node">
<title>switch</title>
<polygon fill="#b2dfee" stroke="#b2dfee" points="261,-278 207,-278 207,-259 261,-259 261,-278"/>
<text text-anchor="middle" x="234" y="-266" font-family="Times New Roman,serif" font-size="10.00">switch</text>
</g>
<!-- switch&#45;&gt;statement -->
<g id="edge43" class="edge">
<title>switch&#45;&gt;statement</title>
<path fill="none" stroke="black" d="M206.78,-276.31C200.95,-279.07 195.26,-282.72 191,-287.5 155.96,-326.88 179.42,-353.79 155,-400.5 150.83,-408.48 145.08,-416.51 139.64,-423.32"/>
<polygon fill="black" stroke="black" points="137.3,-420.66 133.56,-430.57 142.67,-425.16 137.3,-420.66"/>
</g>
<!-- ternary -->
<g id="node48" class="node">
<title>ternary</title>
<polygon fill="#b2dfee" stroke="#b2dfee" points="261,-981 207,-981 207,-962 261,-962 261,-981"/>
<text text-anchor="middle" x="234" y="-969" font-family="Times New Roman,serif" font-size="10.00">ternary</text>
</g>
<!-- ternary&#45;&gt;expression -->
<g id="edge44" class="edge">
<title>ternary&#45;&gt;expression</title>
<path fill="none" stroke="black" d="M208.46,-981.32C202.59,-984.01 196.44,-987.13 191,-990.5 173.42,-1001.38 155.35,-1016.34 142.34,-1027.91"/>
<polygon fill="black" stroke="black" points="140.01,-1025.3 134.96,-1034.61 144.71,-1030.48 140.01,-1025.3"/>
</g>
<!-- this -->
<g id="node49" class="node">
<title>this</title>
<polygon fill="#b2dfee" stroke="#b2dfee" points="261,-944 207,-944 207,-925 261,-925 261,-944"/>
<text text-anchor="middle" x="234" y="-932" font-family="Times New Roman,serif" font-size="10.00">this</text>
</g>
<!-- this&#45;&gt;expression -->
<g id="edge45" class="edge">
<title>this&#45;&gt;expression</title>
<path fill="none" stroke="black" d="M206.91,-943.79C201.35,-946.44 195.72,-949.67 191,-953.5 166.07,-973.71 145.66,-1005.19 134.04,-1025.57"/>
<polygon fill="black" stroke="black" points="130.99,-1023.84 129.24,-1034.29 137.13,-1027.22 130.99,-1023.84"/>
</g>
<!-- throw -->
<g id="node50" class="node">
<title>throw</title>
<polygon fill="#b2dfee" stroke="#b2dfee" points="261,-241 207,-241 207,-222 261,-222 261,-241"/>
<text text-anchor="middle" x="234" y="-229" font-family="Times New Roman,serif" font-size="10.00">throw</text>
</g>
<!-- throw&#45;&gt;statement -->
<g id="edge46" class="edge">
<title>throw&#45;&gt;statement</title>
<path fill="none" stroke="black" d="M206.53,-239.1C200.71,-241.86 195.08,-245.57 191,-250.5 147.32,-303.34 184.53,-338.63 155,-400.5 151.26,-408.34 145.85,-416.11 140.56,-422.74"/>
<polygon fill="black" stroke="black" points="137.89,-420.48 134.09,-430.37 143.23,-425 137.89,-420.48"/>
</g>
<!-- try -->
<g id="node51" class="node">
<title>try</title>
<polygon fill="#b2dfee" stroke="#b2dfee" points="261,-204 207,-204 207,-185 261,-185 261,-204"/>
<text text-anchor="middle" x="234" y="-192" font-family="Times New Roman,serif" font-size="10.00">try</text>
</g>
<!-- try&#45;&gt;statement -->
<g id="edge47" class="edge">
<title>try&#45;&gt;statement</title>
<path fill="none" stroke="black" d="M206.8,-201.76C200.84,-204.55 195.07,-208.35 191,-213.5 138.57,-279.94 189.72,-323.31 155,-400.5 151.35,-408.6 145.82,-416.57 140.4,-423.3"/>
<polygon fill="black" stroke="black" points="138.12,-420.58 134.25,-430.45 143.43,-425.14 138.12,-420.58"/>
</g>
<!-- typeReference -->
<g id="node52" class="node">
<title>typeReference</title>
<polygon fill="#b2dfee" stroke="#b2dfee" points="271,-56 197,-56 197,-37 271,-37 271,-56"/>
<text text-anchor="middle" x="234" y="-44" font-family="Times New Roman,serif" font-size="10.00">typeReference</text>
</g>
<!-- typeReference&#45;&gt;reference -->
<g id="edge49" class="edge">
<title>typeReference&#45;&gt;reference</title>
<path fill="none" stroke="black" d="M204.36,-56.47C199.66,-58.74 195.03,-61.41 191,-64.5 166.98,-82.95 146.68,-111.81 134.79,-130.94"/>
<polygon fill="black" stroke="black" points="131.87,-129.01 129.72,-139.38 137.87,-132.61 131.87,-129.01"/>
</g>
<!-- unaryExpression -->
<g id="node53" class="node">
<title>unaryExpression</title>
<polygon fill="#b2dfee" stroke="#b2dfee" points="275.5,-907 192.5,-907 192.5,-888 275.5,-888 275.5,-907"/>
<text text-anchor="middle" x="234" y="-895" font-family="Times New Roman,serif" font-size="10.00">unaryExpression</text>
</g>
<!-- unaryExpression&#45;&gt;expression -->
<g id="edge50" class="edge">
<title>unaryExpression&#45;&gt;expression</title>
<path fill="none" stroke="black" d="M204.28,-907.37C199.49,-909.85 194.84,-912.87 191,-916.5 158.5,-947.19 138.69,-997.03 129.55,-1024.92"/>
<polygon fill="black" stroke="black" points="126.27,-1023.7 126.63,-1034.29 132.95,-1025.78 126.27,-1023.7"/>
</g>
<!-- xmlElement -->
<g id="node54" class="node">
<title>xmlElement</title>
<polygon fill="#b2dfee" stroke="#b2dfee" points="264.5,-1277 203.5,-1277 203.5,-1258 264.5,-1258 264.5,-1277"/>
<text text-anchor="middle" x="234" y="-1265" font-family="Times New Roman,serif" font-size="10.00">xmlElement</text>
</g>
<!-- xmlElement&#45;&gt;xmlNode -->
<g id="edge52" class="edge">
<title>xmlElement&#45;&gt;xmlNode</title>
<path fill="none" stroke="black" d="M203.08,-1267.5C190.02,-1267.5 174.57,-1267.5 160.77,-1267.5"/>
<polygon fill="black" stroke="black" points="161.17,-1264 151.17,-1267.5 161.17,-1271 161.17,-1264"/>
</g>
</g>
</svg>
